<svg xmlns="http://www.w3.org/2000/svg" xmlns:xlink="http://www.w3.org/1999/xlink" width="600" height="400" viewBox="0 0 2400 1600">
<defs>
  <clipPath id="clip590">
    <rect x="0" y="0" width="2400" height="1600"></rect>
  </clipPath>
</defs>
<path clip-path="url(#clip590)" d="M0 1600 L2400 1600 L2400 0 L0 0  Z" fill="#ffffff" fill-rule="evenodd" fill-opacity="1"></path>
<defs>
  <clipPath id="clip591">
    <rect x="480" y="0" width="1681" height="1600"></rect>
  </clipPath>
</defs>
<path clip-path="url(#clip590)" d="M203.964 1423.18 L2352.76 1423.18 L2352.76 123.472 L203.964 123.472  Z" fill="#ffffff" fill-rule="evenodd" fill-opacity="1"></path>
<defs>
  <clipPath id="clip592">
    <rect x="203" y="123" width="2150" height="1301"></rect>
  </clipPath>
</defs>
<polyline clip-path="url(#clip592)" style="stroke:#000000; stroke-linecap:round; stroke-linejoin:round; stroke-width:2; stroke-opacity:0.1; fill:none" points="262.749,1423.18 262.749,123.472 "></polyline>
<polyline clip-path="url(#clip592)" style="stroke:#000000; stroke-linecap:round; stroke-linejoin:round; stroke-width:2; stroke-opacity:0.1; fill:none" points="770.047,1423.18 770.047,123.472 "></polyline>
<polyline clip-path="url(#clip592)" style="stroke:#000000; stroke-linecap:round; stroke-linejoin:round; stroke-width:2; stroke-opacity:0.1; fill:none" points="1277.35,1423.18 1277.35,123.472 "></polyline>
<polyline clip-path="url(#clip592)" style="stroke:#000000; stroke-linecap:round; stroke-linejoin:round; stroke-width:2; stroke-opacity:0.1; fill:none" points="1784.64,1423.18 1784.64,123.472 "></polyline>
<polyline clip-path="url(#clip592)" style="stroke:#000000; stroke-linecap:round; stroke-linejoin:round; stroke-width:2; stroke-opacity:0.1; fill:none" points="2291.94,1423.18 2291.94,123.472 "></polyline>
<polyline clip-path="url(#clip592)" style="stroke:#000000; stroke-linecap:round; stroke-linejoin:round; stroke-width:2; stroke-opacity:0.1; fill:none" points="203.964,1386.42 2352.76,1386.42 "></polyline>
<polyline clip-path="url(#clip592)" style="stroke:#000000; stroke-linecap:round; stroke-linejoin:round; stroke-width:2; stroke-opacity:0.1; fill:none" points="203.964,1134.46 2352.76,1134.46 "></polyline>
<polyline clip-path="url(#clip592)" style="stroke:#000000; stroke-linecap:round; stroke-linejoin:round; stroke-width:2; stroke-opacity:0.1; fill:none" points="203.964,882.495 2352.76,882.495 "></polyline>
<polyline clip-path="url(#clip592)" style="stroke:#000000; stroke-linecap:round; stroke-linejoin:round; stroke-width:2; stroke-opacity:0.1; fill:none" points="203.964,630.531 2352.76,630.531 "></polyline>
<polyline clip-path="url(#clip592)" style="stroke:#000000; stroke-linecap:round; stroke-linejoin:round; stroke-width:2; stroke-opacity:0.1; fill:none" points="203.964,378.567 2352.76,378.567 "></polyline>
<polyline clip-path="url(#clip592)" style="stroke:#000000; stroke-linecap:round; stroke-linejoin:round; stroke-width:2; stroke-opacity:0.1; fill:none" points="203.964,126.603 2352.76,126.603 "></polyline>
<polyline clip-path="url(#clip590)" style="stroke:#000000; stroke-linecap:round; stroke-linejoin:round; stroke-width:4; stroke-opacity:1; fill:none" points="203.964,1423.18 2352.76,1423.18 "></polyline>
<polyline clip-path="url(#clip590)" style="stroke:#000000; stroke-linecap:round; stroke-linejoin:round; stroke-width:4; stroke-opacity:1; fill:none" points="262.749,1423.18 262.749,1404.28 "></polyline>
<polyline clip-path="url(#clip590)" style="stroke:#000000; stroke-linecap:round; stroke-linejoin:round; stroke-width:4; stroke-opacity:1; fill:none" points="770.047,1423.18 770.047,1404.28 "></polyline>
<polyline clip-path="url(#clip590)" style="stroke:#000000; stroke-linecap:round; stroke-linejoin:round; stroke-width:4; stroke-opacity:1; fill:none" points="1277.35,1423.18 1277.35,1404.28 "></polyline>
<polyline clip-path="url(#clip590)" style="stroke:#000000; stroke-linecap:round; stroke-linejoin:round; stroke-width:4; stroke-opacity:1; fill:none" points="1784.64,1423.18 1784.64,1404.28 "></polyline>
<polyline clip-path="url(#clip590)" style="stroke:#000000; stroke-linecap:round; stroke-linejoin:round; stroke-width:4; stroke-opacity:1; fill:none" points="2291.94,1423.18 2291.94,1404.28 "></polyline>
<path clip-path="url(#clip590)" d="M262.749 1454.1 Q259.138 1454.1 257.309 1457.66 Q255.504 1461.2 255.504 1468.33 Q255.504 1475.44 257.309 1479.01 Q259.138 1482.55 262.749 1482.55 Q266.383 1482.55 268.189 1479.01 Q270.018 1475.44 270.018 1468.33 Q270.018 1461.2 268.189 1457.66 Q266.383 1454.1 262.749 1454.1 M262.749 1450.39 Q268.559 1450.39 271.615 1455 Q274.694 1459.58 274.694 1468.33 Q274.694 1477.06 271.615 1481.67 Q268.559 1486.25 262.749 1486.25 Q256.939 1486.25 253.86 1481.67 Q250.805 1477.06 250.805 1468.33 Q250.805 1459.58 253.86 1455 Q256.939 1450.39 262.749 1450.39 Z" fill="#000000" fill-rule="nonzero" fill-opacity="1"></path><path clip-path="url(#clip590)" d="M733.74 1481.64 L750.059 1481.64 L750.059 1485.58 L728.115 1485.58 L728.115 1481.64 Q730.777 1478.89 735.36 1474.26 Q739.966 1469.61 741.147 1468.27 Q743.392 1465.74 744.272 1464.01 Q745.175 1462.25 745.175 1460.56 Q745.175 1457.8 743.23 1456.07 Q741.309 1454.33 738.207 1454.33 Q736.008 1454.33 733.554 1455.09 Q731.124 1455.86 728.346 1457.41 L728.346 1452.69 Q731.17 1451.55 733.624 1450.97 Q736.077 1450.39 738.115 1450.39 Q743.485 1450.39 746.679 1453.08 Q749.874 1455.77 749.874 1460.26 Q749.874 1462.39 749.064 1464.31 Q748.276 1466.2 746.17 1468.8 Q745.591 1469.47 742.489 1472.69 Q739.388 1475.88 733.74 1481.64 Z" fill="#000000" fill-rule="nonzero" fill-opacity="1"></path><path clip-path="url(#clip590)" d="M759.92 1451.02 L778.276 1451.02 L778.276 1454.96 L764.202 1454.96 L764.202 1463.43 Q765.221 1463.08 766.239 1462.92 Q767.258 1462.73 768.276 1462.73 Q774.063 1462.73 777.443 1465.9 Q780.823 1469.08 780.823 1474.49 Q780.823 1480.07 777.35 1483.17 Q773.878 1486.25 767.559 1486.25 Q765.383 1486.25 763.114 1485.88 Q760.869 1485.51 758.462 1484.77 L758.462 1480.07 Q760.545 1481.2 762.767 1481.76 Q764.989 1482.32 767.466 1482.32 Q771.471 1482.32 773.809 1480.21 Q776.147 1478.1 776.147 1474.49 Q776.147 1470.88 773.809 1468.77 Q771.471 1466.67 767.466 1466.67 Q765.591 1466.67 763.716 1467.08 Q761.864 1467.5 759.92 1468.38 L759.92 1451.02 Z" fill="#000000" fill-rule="nonzero" fill-opacity="1"></path><path clip-path="url(#clip590)" d="M800.035 1454.1 Q796.424 1454.1 794.596 1457.66 Q792.79 1461.2 792.79 1468.33 Q792.79 1475.44 794.596 1479.01 Q796.424 1482.55 800.035 1482.55 Q803.67 1482.55 805.475 1479.01 Q807.304 1475.44 807.304 1468.33 Q807.304 1461.2 805.475 1457.66 Q803.67 1454.1 800.035 1454.1 M800.035 1450.39 Q805.846 1450.39 808.901 1455 Q811.98 1459.58 811.98 1468.33 Q811.98 1477.06 808.901 1481.67 Q805.846 1486.25 800.035 1486.25 Q794.225 1486.25 791.147 1481.67 Q788.091 1477.06 788.091 1468.33 Q788.091 1459.58 791.147 1455 Q794.225 1450.39 800.035 1450.39 Z" fill="#000000" fill-rule="nonzero" fill-opacity="1"></path><path clip-path="url(#clip590)" d="M1236.96 1451.02 L1255.32 1451.02 L1255.32 1454.96 L1241.25 1454.96 L1241.25 1463.43 Q1242.26 1463.08 1243.28 1462.92 Q1244.3 1462.73 1245.32 1462.73 Q1251.11 1462.73 1254.49 1465.9 Q1257.87 1469.08 1257.87 1474.49 Q1257.87 1480.07 1254.39 1483.17 Q1250.92 1486.25 1244.6 1486.25 Q1242.43 1486.25 1240.16 1485.88 Q1237.91 1485.51 1235.51 1484.77 L1235.51 1480.07 Q1237.59 1481.2 1239.81 1481.76 Q1242.03 1482.32 1244.51 1482.32 Q1248.51 1482.32 1250.85 1480.21 Q1253.19 1478.1 1253.19 1474.49 Q1253.19 1470.88 1250.85 1468.77 Q1248.51 1466.67 1244.51 1466.67 Q1242.63 1466.67 1240.76 1467.08 Q1238.91 1467.5 1236.96 1468.38 L1236.96 1451.02 Z" fill="#000000" fill-rule="nonzero" fill-opacity="1"></path><path clip-path="url(#clip590)" d="M1277.08 1454.1 Q1273.47 1454.1 1271.64 1457.66 Q1269.83 1461.2 1269.83 1468.33 Q1269.83 1475.44 1271.64 1479.01 Q1273.47 1482.55 1277.08 1482.55 Q1280.71 1482.55 1282.52 1479.01 Q1284.35 1475.44 1284.35 1468.33 Q1284.35 1461.2 1282.52 1457.66 Q1280.71 1454.1 1277.08 1454.1 M1277.08 1450.39 Q1282.89 1450.39 1285.94 1455 Q1289.02 1459.58 1289.02 1468.33 Q1289.02 1477.06 1285.94 1481.67 Q1282.89 1486.25 1277.08 1486.25 Q1271.27 1486.25 1268.19 1481.67 Q1265.13 1477.06 1265.13 1468.33 Q1265.13 1459.58 1268.19 1455 Q1271.27 1450.39 1277.08 1450.39 Z" fill="#000000" fill-rule="nonzero" fill-opacity="1"></path><path clip-path="url(#clip590)" d="M1307.24 1454.1 Q1303.63 1454.1 1301.8 1457.66 Q1300 1461.2 1300 1468.33 Q1300 1475.44 1301.8 1479.01 Q1303.63 1482.55 1307.24 1482.55 Q1310.88 1482.55 1312.68 1479.01 Q1314.51 1475.44 1314.51 1468.33 Q1314.51 1461.2 1312.68 1457.66 Q1310.88 1454.1 1307.24 1454.1 M1307.24 1450.39 Q1313.05 1450.39 1316.11 1455 Q1319.19 1459.58 1319.19 1468.33 Q1319.19 1477.06 1316.11 1481.67 Q1313.05 1486.25 1307.24 1486.25 Q1301.43 1486.25 1298.35 1481.67 Q1295.3 1477.06 1295.3 1468.33 Q1295.3 1459.58 1298.35 1455 Q1301.43 1450.39 1307.24 1450.39 Z" fill="#000000" fill-rule="nonzero" fill-opacity="1"></path><path clip-path="url(#clip590)" d="M1742.92 1451.02 L1765.14 1451.02 L1765.14 1453.01 L1752.59 1485.58 L1747.71 1485.58 L1759.52 1454.96 L1742.92 1454.96 L1742.92 1451.02 Z" fill="#000000" fill-rule="nonzero" fill-opacity="1"></path><path clip-path="url(#clip590)" d="M1774.31 1451.02 L1792.66 1451.02 L1792.66 1454.96 L1778.59 1454.96 L1778.59 1463.43 Q1779.61 1463.08 1780.63 1462.92 Q1781.65 1462.73 1782.66 1462.73 Q1788.45 1462.73 1791.83 1465.9 Q1795.21 1469.08 1795.21 1474.49 Q1795.21 1480.07 1791.74 1483.17 Q1788.27 1486.25 1781.95 1486.25 Q1779.77 1486.25 1777.5 1485.88 Q1775.26 1485.51 1772.85 1484.77 L1772.85 1480.07 Q1774.93 1481.2 1777.15 1481.76 Q1779.38 1482.32 1781.85 1482.32 Q1785.86 1482.32 1788.2 1480.21 Q1790.53 1478.1 1790.53 1474.49 Q1790.53 1470.88 1788.2 1468.77 Q1785.86 1466.67 1781.85 1466.67 Q1779.98 1466.67 1778.1 1467.08 Q1776.25 1467.5 1774.31 1468.38 L1774.31 1451.02 Z" fill="#000000" fill-rule="nonzero" fill-opacity="1"></path><path clip-path="url(#clip590)" d="M1814.42 1454.1 Q1810.81 1454.1 1808.98 1457.66 Q1807.18 1461.2 1807.18 1468.33 Q1807.18 1475.44 1808.98 1479.01 Q1810.81 1482.55 1814.42 1482.55 Q1818.06 1482.55 1819.86 1479.01 Q1821.69 1475.44 1821.69 1468.33 Q1821.69 1461.2 1819.86 1457.66 Q1818.06 1454.1 1814.42 1454.1 M1814.42 1450.39 Q1820.23 1450.39 1823.29 1455 Q1826.37 1459.58 1826.37 1468.33 Q1826.37 1477.06 1823.29 1481.67 Q1820.23 1486.25 1814.42 1486.25 Q1808.61 1486.25 1805.53 1481.67 Q1802.48 1477.06 1802.48 1468.33 Q1802.48 1459.58 1805.53 1455 Q1808.61 1450.39 1814.42 1450.39 Z" fill="#000000" fill-rule="nonzero" fill-opacity="1"></path><path clip-path="url(#clip590)" d="M2236.47 1481.64 L2244.11 1481.64 L2244.11 1455.28 L2235.8 1456.95 L2235.8 1452.69 L2244.06 1451.02 L2248.74 1451.02 L2248.74 1481.64 L2256.37 1481.64 L2256.37 1485.58 L2236.47 1485.58 L2236.47 1481.64 Z" fill="#000000" fill-rule="nonzero" fill-opacity="1"></path><path clip-path="url(#clip590)" d="M2275.82 1454.1 Q2272.21 1454.1 2270.38 1457.66 Q2268.57 1461.2 2268.57 1468.33 Q2268.57 1475.44 2270.38 1479.01 Q2272.21 1482.55 2275.82 1482.55 Q2279.45 1482.55 2281.26 1479.01 Q2283.09 1475.44 2283.09 1468.33 Q2283.09 1461.2 2281.26 1457.66 Q2279.45 1454.1 2275.82 1454.1 M2275.82 1450.39 Q2281.63 1450.39 2284.68 1455 Q2287.76 1459.58 2287.76 1468.33 Q2287.76 1477.06 2284.68 1481.67 Q2281.63 1486.25 2275.82 1486.25 Q2270.01 1486.25 2266.93 1481.67 Q2263.87 1477.06 2263.87 1468.33 Q2263.87 1459.58 2266.93 1455 Q2270.01 1450.39 2275.82 1450.39 Z" fill="#000000" fill-rule="nonzero" fill-opacity="1"></path><path clip-path="url(#clip590)" d="M2305.98 1454.1 Q2302.37 1454.1 2300.54 1457.66 Q2298.73 1461.2 2298.73 1468.33 Q2298.73 1475.44 2300.54 1479.01 Q2302.37 1482.55 2305.98 1482.55 Q2309.61 1482.55 2311.42 1479.01 Q2313.25 1475.44 2313.25 1468.33 Q2313.25 1461.2 2311.42 1457.66 Q2309.61 1454.1 2305.98 1454.1 M2305.98 1450.39 Q2311.79 1450.39 2314.85 1455 Q2317.92 1459.58 2317.92 1468.33 Q2317.92 1477.06 2314.85 1481.67 Q2311.79 1486.25 2305.98 1486.25 Q2300.17 1486.25 2297.09 1481.67 Q2294.04 1477.06 2294.04 1468.33 Q2294.04 1459.58 2297.09 1455 Q2300.17 1450.39 2305.98 1450.39 Z" fill="#000000" fill-rule="nonzero" fill-opacity="1"></path><path clip-path="url(#clip590)" d="M2336.14 1454.1 Q2332.53 1454.1 2330.7 1457.66 Q2328.9 1461.2 2328.9 1468.33 Q2328.9 1475.44 2330.7 1479.01 Q2332.53 1482.55 2336.14 1482.55 Q2339.78 1482.55 2341.58 1479.01 Q2343.41 1475.44 2343.41 1468.33 Q2343.41 1461.2 2341.58 1457.66 Q2339.78 1454.1 2336.14 1454.1 M2336.14 1450.39 Q2341.95 1450.39 2345.01 1455 Q2348.09 1459.58 2348.09 1468.33 Q2348.09 1477.06 2345.01 1481.67 Q2341.95 1486.25 2336.14 1486.25 Q2330.33 1486.25 2327.25 1481.67 Q2324.2 1477.06 2324.2 1468.33 Q2324.2 1459.58 2327.25 1455 Q2330.33 1450.39 2336.14 1450.39 Z" fill="#000000" fill-rule="nonzero" fill-opacity="1"></path><path clip-path="url(#clip590)" d="M1146.08 1520.52 L1152.51 1520.52 L1152.51 1568.04 L1146.08 1568.04 L1146.08 1520.52 Z" fill="#000000" fill-rule="nonzero" fill-opacity="1"></path><path clip-path="url(#clip590)" d="M1170.84 1522.27 L1170.84 1532.4 L1182.91 1532.4 L1182.91 1536.95 L1170.84 1536.95 L1170.84 1556.3 Q1170.84 1560.66 1172.02 1561.9 Q1173.23 1563.14 1176.89 1563.14 L1182.91 1563.14 L1182.91 1568.04 L1176.89 1568.04 Q1170.11 1568.04 1167.53 1565.53 Q1164.95 1562.98 1164.95 1556.3 L1164.95 1536.95 L1160.66 1536.95 L1160.66 1532.4 L1164.95 1532.4 L1164.95 1522.27 L1170.84 1522.27 Z" fill="#000000" fill-rule="nonzero" fill-opacity="1"></path><path clip-path="url(#clip590)" d="M1221.1 1548.76 L1221.1 1551.62 L1194.17 1551.62 Q1194.56 1557.67 1197.8 1560.85 Q1201.08 1564 1206.9 1564 Q1210.28 1564 1213.43 1563.17 Q1216.61 1562.35 1219.73 1560.69 L1219.73 1566.23 Q1216.58 1567.57 1213.27 1568.27 Q1209.96 1568.97 1206.55 1568.97 Q1198.02 1568.97 1193.03 1564 Q1188.06 1559.04 1188.06 1550.57 Q1188.06 1541.82 1192.77 1536.69 Q1197.52 1531.54 1205.54 1531.54 Q1212.73 1531.54 1216.9 1536.18 Q1221.1 1540.8 1221.1 1548.76 M1215.24 1547.04 Q1215.18 1542.23 1212.54 1539.37 Q1209.93 1536.5 1205.6 1536.5 Q1200.7 1536.5 1197.74 1539.27 Q1194.81 1542.04 1194.36 1547.07 L1215.24 1547.04 Z" fill="#000000" fill-rule="nonzero" fill-opacity="1"></path><path clip-path="url(#clip590)" d="M1251.37 1537.87 Q1250.38 1537.3 1249.2 1537.04 Q1248.06 1536.76 1246.66 1536.76 Q1241.69 1536.76 1239.02 1540 Q1236.38 1543.22 1236.38 1549.27 L1236.38 1568.04 L1230.49 1568.04 L1230.49 1532.4 L1236.38 1532.4 L1236.38 1537.93 Q1238.22 1534.69 1241.18 1533.13 Q1244.14 1531.54 1248.38 1531.54 Q1248.98 1531.54 1249.71 1531.63 Q1250.45 1531.7 1251.34 1531.85 L1251.37 1537.87 Z" fill="#000000" fill-rule="nonzero" fill-opacity="1"></path><path clip-path="url(#clip590)" d="M1273.71 1550.12 Q1266.62 1550.12 1263.88 1551.75 Q1261.14 1553.37 1261.14 1557.29 Q1261.14 1560.4 1263.18 1562.25 Q1265.25 1564.07 1268.78 1564.07 Q1273.65 1564.07 1276.58 1560.63 Q1279.54 1557.16 1279.54 1551.43 L1279.54 1550.12 L1273.71 1550.12 M1285.39 1547.71 L1285.39 1568.04 L1279.54 1568.04 L1279.54 1562.63 Q1277.53 1565.88 1274.54 1567.44 Q1271.55 1568.97 1267.22 1568.97 Q1261.75 1568.97 1258.5 1565.91 Q1255.28 1562.82 1255.28 1557.67 Q1255.28 1551.65 1259.29 1548.6 Q1263.34 1545.54 1271.33 1545.54 L1279.54 1545.54 L1279.54 1544.97 Q1279.54 1540.93 1276.86 1538.73 Q1274.22 1536.5 1269.42 1536.5 Q1266.36 1536.5 1263.46 1537.23 Q1260.57 1537.97 1257.89 1539.43 L1257.89 1534.02 Q1261.11 1532.78 1264.13 1532.17 Q1267.16 1531.54 1270.02 1531.54 Q1277.75 1531.54 1281.57 1535.55 Q1285.39 1539.56 1285.39 1547.71 Z" fill="#000000" fill-rule="nonzero" fill-opacity="1"></path><path clip-path="url(#clip590)" d="M1303.25 1522.27 L1303.25 1532.4 L1315.31 1532.4 L1315.31 1536.95 L1303.25 1536.95 L1303.25 1556.3 Q1303.25 1560.66 1304.43 1561.9 Q1305.64 1563.14 1309.3 1563.14 L1315.31 1563.14 L1315.31 1568.04 L1309.3 1568.04 Q1302.52 1568.04 1299.94 1565.53 Q1297.36 1562.98 1297.36 1556.3 L1297.36 1536.95 L1293.06 1536.95 L1293.06 1532.4 L1297.36 1532.4 L1297.36 1522.27 L1303.25 1522.27 Z" fill="#000000" fill-rule="nonzero" fill-opacity="1"></path><path clip-path="url(#clip590)" d="M1323.02 1532.4 L1328.87 1532.4 L1328.87 1568.04 L1323.02 1568.04 L1323.02 1532.4 M1323.02 1518.52 L1328.87 1518.52 L1328.87 1525.93 L1323.02 1525.93 L1323.02 1518.52 Z" fill="#000000" fill-rule="nonzero" fill-opacity="1"></path><path clip-path="url(#clip590)" d="M1354.94 1536.5 Q1350.23 1536.5 1347.49 1540.19 Q1344.75 1543.85 1344.75 1550.25 Q1344.75 1556.65 1347.46 1560.34 Q1350.2 1564 1354.94 1564 Q1359.62 1564 1362.36 1560.31 Q1365.09 1556.62 1365.09 1550.25 Q1365.09 1543.92 1362.36 1540.23 Q1359.62 1536.5 1354.94 1536.5 M1354.94 1531.54 Q1362.58 1531.54 1366.94 1536.5 Q1371.3 1541.47 1371.3 1550.25 Q1371.3 1559 1366.94 1564 Q1362.58 1568.97 1354.94 1568.97 Q1347.27 1568.97 1342.91 1564 Q1338.58 1559 1338.58 1550.25 Q1338.58 1541.47 1342.91 1536.5 Q1347.27 1531.54 1354.94 1531.54 Z" fill="#000000" fill-rule="nonzero" fill-opacity="1"></path><path clip-path="url(#clip590)" d="M1410.64 1546.53 L1410.64 1568.04 L1404.78 1568.04 L1404.78 1546.72 Q1404.78 1541.66 1402.81 1539.14 Q1400.84 1536.63 1396.89 1536.63 Q1392.15 1536.63 1389.41 1539.65 Q1386.67 1542.68 1386.67 1547.9 L1386.67 1568.04 L1380.78 1568.04 L1380.78 1532.4 L1386.67 1532.4 L1386.67 1537.93 Q1388.77 1534.72 1391.61 1533.13 Q1394.47 1531.54 1398.19 1531.54 Q1404.34 1531.54 1407.49 1535.36 Q1410.64 1539.14 1410.64 1546.53 Z" fill="#000000" fill-rule="nonzero" fill-opacity="1"></path><polyline clip-path="url(#clip590)" style="stroke:#000000; stroke-linecap:round; stroke-linejoin:round; stroke-width:4; stroke-opacity:1; fill:none" points="203.964,1423.18 203.964,123.472 "></polyline>
<polyline clip-path="url(#clip590)" style="stroke:#000000; stroke-linecap:round; stroke-linejoin:round; stroke-width:4; stroke-opacity:1; fill:none" points="203.964,1386.42 222.861,1386.42 "></polyline>
<polyline clip-path="url(#clip590)" style="stroke:#000000; stroke-linecap:round; stroke-linejoin:round; stroke-width:4; stroke-opacity:1; fill:none" points="203.964,1134.46 222.861,1134.46 "></polyline>
<polyline clip-path="url(#clip590)" style="stroke:#000000; stroke-linecap:round; stroke-linejoin:round; stroke-width:4; stroke-opacity:1; fill:none" points="203.964,882.495 222.861,882.495 "></polyline>
<polyline clip-path="url(#clip590)" style="stroke:#000000; stroke-linecap:round; stroke-linejoin:round; stroke-width:4; stroke-opacity:1; fill:none" points="203.964,630.531 222.861,630.531 "></polyline>
<polyline clip-path="url(#clip590)" style="stroke:#000000; stroke-linecap:round; stroke-linejoin:round; stroke-width:4; stroke-opacity:1; fill:none" points="203.964,378.567 222.861,378.567 "></polyline>
<polyline clip-path="url(#clip590)" style="stroke:#000000; stroke-linecap:round; stroke-linejoin:round; stroke-width:4; stroke-opacity:1; fill:none" points="203.964,126.603 222.861,126.603 "></polyline>
<path clip-path="url(#clip590)" d="M156.019 1372.22 Q152.408 1372.22 150.579 1375.79 Q148.774 1379.33 148.774 1386.46 Q148.774 1393.56 150.579 1397.13 Q152.408 1400.67 156.019 1400.67 Q159.653 1400.67 161.459 1397.13 Q163.288 1393.56 163.288 1386.46 Q163.288 1379.33 161.459 1375.79 Q159.653 1372.22 156.019 1372.22 M156.019 1368.52 Q161.829 1368.52 164.885 1373.12 Q167.964 1377.71 167.964 1386.46 Q167.964 1395.18 164.885 1399.79 Q161.829 1404.37 156.019 1404.37 Q150.209 1404.37 147.13 1399.79 Q144.075 1395.18 144.075 1386.46 Q144.075 1377.71 147.13 1373.12 Q150.209 1368.52 156.019 1368.52 Z" fill="#000000" fill-rule="nonzero" fill-opacity="1"></path><path clip-path="url(#clip590)" d="M147.061 1117.18 L165.417 1117.18 L165.417 1121.11 L151.343 1121.11 L151.343 1129.59 Q152.362 1129.24 153.38 1129.08 Q154.399 1128.89 155.417 1128.89 Q161.204 1128.89 164.584 1132.06 Q167.964 1135.23 167.964 1140.65 Q167.964 1146.23 164.491 1149.33 Q161.019 1152.41 154.7 1152.41 Q152.524 1152.41 150.255 1152.04 Q148.01 1151.67 145.603 1150.93 L145.603 1146.23 Q147.686 1147.36 149.908 1147.92 Q152.13 1148.47 154.607 1148.47 Q158.612 1148.47 160.95 1146.37 Q163.288 1144.26 163.288 1140.65 Q163.288 1137.04 160.95 1134.93 Q158.612 1132.83 154.607 1132.83 Q152.732 1132.83 150.857 1133.24 Q149.005 1133.66 147.061 1134.54 L147.061 1117.18 Z" fill="#000000" fill-rule="nonzero" fill-opacity="1"></path><path clip-path="url(#clip590)" d="M116.668 895.839 L124.306 895.839 L124.306 869.474 L115.996 871.14 L115.996 866.881 L124.26 865.215 L128.936 865.215 L128.936 895.839 L136.575 895.839 L136.575 899.775 L116.668 899.775 L116.668 895.839 Z" fill="#000000" fill-rule="nonzero" fill-opacity="1"></path><path clip-path="url(#clip590)" d="M156.019 868.293 Q152.408 868.293 150.579 871.858 Q148.774 875.4 148.774 882.529 Q148.774 889.636 150.579 893.2 Q152.408 896.742 156.019 896.742 Q159.653 896.742 161.459 893.2 Q163.288 889.636 163.288 882.529 Q163.288 875.4 161.459 871.858 Q159.653 868.293 156.019 868.293 M156.019 864.59 Q161.829 864.59 164.885 869.196 Q167.964 873.779 167.964 882.529 Q167.964 891.256 164.885 895.863 Q161.829 900.446 156.019 900.446 Q150.209 900.446 147.13 895.863 Q144.075 891.256 144.075 882.529 Q144.075 873.779 147.13 869.196 Q150.209 864.59 156.019 864.59 Z" fill="#000000" fill-rule="nonzero" fill-opacity="1"></path><path clip-path="url(#clip590)" d="M117.663 643.875 L125.302 643.875 L125.302 617.51 L116.992 619.177 L116.992 614.917 L125.255 613.251 L129.931 613.251 L129.931 643.875 L137.57 643.875 L137.57 647.811 L117.663 647.811 L117.663 643.875 Z" fill="#000000" fill-rule="nonzero" fill-opacity="1"></path><path clip-path="url(#clip590)" d="M147.061 613.251 L165.417 613.251 L165.417 617.186 L151.343 617.186 L151.343 625.658 Q152.362 625.311 153.38 625.149 Q154.399 624.964 155.417 624.964 Q161.204 624.964 164.584 628.135 Q167.964 631.306 167.964 636.723 Q167.964 642.301 164.491 645.403 Q161.019 648.482 154.7 648.482 Q152.524 648.482 150.255 648.112 Q148.01 647.741 145.603 647 L145.603 642.301 Q147.686 643.436 149.908 643.991 Q152.13 644.547 154.607 644.547 Q158.612 644.547 160.95 642.44 Q163.288 640.334 163.288 636.723 Q163.288 633.112 160.95 631.005 Q158.612 628.899 154.607 628.899 Q152.732 628.899 150.857 629.315 Q149.005 629.732 147.061 630.612 L147.061 613.251 Z" fill="#000000" fill-rule="nonzero" fill-opacity="1"></path><path clip-path="url(#clip590)" d="M119.885 391.912 L136.204 391.912 L136.204 395.847 L114.26 395.847 L114.26 391.912 Q116.922 389.157 121.505 384.527 Q126.112 379.875 127.292 378.532 Q129.538 376.009 130.417 374.273 Q131.32 372.514 131.32 370.824 Q131.32 368.069 129.376 366.333 Q127.455 364.597 124.353 364.597 Q122.154 364.597 119.7 365.361 Q117.269 366.125 114.492 367.676 L114.492 362.953 Q117.316 361.819 119.769 361.24 Q122.223 360.662 124.26 360.662 Q129.63 360.662 132.825 363.347 Q136.019 366.032 136.019 370.523 Q136.019 372.652 135.209 374.574 Q134.422 376.472 132.316 379.064 Q131.737 379.736 128.635 382.953 Q125.533 386.148 119.885 391.912 Z" fill="#000000" fill-rule="nonzero" fill-opacity="1"></path><path clip-path="url(#clip590)" d="M156.019 364.365 Q152.408 364.365 150.579 367.93 Q148.774 371.472 148.774 378.601 Q148.774 385.708 150.579 389.273 Q152.408 392.814 156.019 392.814 Q159.653 392.814 161.459 389.273 Q163.288 385.708 163.288 378.601 Q163.288 371.472 161.459 367.93 Q159.653 364.365 156.019 364.365 M156.019 360.662 Q161.829 360.662 164.885 365.268 Q167.964 369.852 167.964 378.601 Q167.964 387.328 164.885 391.935 Q161.829 396.518 156.019 396.518 Q150.209 396.518 147.13 391.935 Q144.075 387.328 144.075 378.601 Q144.075 369.852 147.13 365.268 Q150.209 360.662 156.019 360.662 Z" fill="#000000" fill-rule="nonzero" fill-opacity="1"></path><path clip-path="url(#clip590)" d="M120.88 139.948 L137.2 139.948 L137.2 143.883 L115.256 143.883 L115.256 139.948 Q117.918 137.193 122.501 132.563 Q127.107 127.911 128.288 126.568 Q130.533 124.045 131.413 122.309 Q132.316 120.55 132.316 118.86 Q132.316 116.105 130.371 114.369 Q128.45 112.633 125.348 112.633 Q123.149 112.633 120.695 113.397 Q118.265 114.161 115.487 115.712 L115.487 110.99 Q118.311 109.855 120.765 109.277 Q123.218 108.698 125.255 108.698 Q130.626 108.698 133.82 111.383 Q137.015 114.068 137.015 118.559 Q137.015 120.689 136.204 122.61 Q135.417 124.508 133.311 127.101 Q132.732 127.772 129.63 130.989 Q126.529 134.184 120.88 139.948 Z" fill="#000000" fill-rule="nonzero" fill-opacity="1"></path><path clip-path="url(#clip590)" d="M147.061 109.323 L165.417 109.323 L165.417 113.258 L151.343 113.258 L151.343 121.73 Q152.362 121.383 153.38 121.221 Q154.399 121.036 155.417 121.036 Q161.204 121.036 164.584 124.207 Q167.964 127.378 167.964 132.795 Q167.964 138.374 164.491 141.475 Q161.019 144.554 154.7 144.554 Q152.524 144.554 150.255 144.184 Q148.01 143.813 145.603 143.073 L145.603 138.374 Q147.686 139.508 149.908 140.063 Q152.13 140.619 154.607 140.619 Q158.612 140.619 160.95 138.513 Q163.288 136.406 163.288 132.795 Q163.288 129.184 160.95 127.077 Q158.612 124.971 154.607 124.971 Q152.732 124.971 150.857 125.388 Q149.005 125.804 147.061 126.684 L147.061 109.323 Z" fill="#000000" fill-rule="nonzero" fill-opacity="1"></path><path clip-path="url(#clip590)" d="M16.4842 898.826 L16.4842 892.397 L58.5933 892.397 L58.5933 869.257 L64.0042 869.257 L64.0042 898.826 L16.4842 898.826 Z" fill="#000000" fill-rule="nonzero" fill-opacity="1"></path><path clip-path="url(#clip590)" d="M58.5933 856.398 L58.5933 833.959 L64.0042 833.959 L64.0042 864.133 L58.5933 864.133 Q54.8057 860.473 48.44 854.17 Q42.0425 847.837 40.1964 846.213 Q36.7271 843.126 34.34 841.916 Q31.921 840.675 29.5975 840.675 Q25.8099 840.675 23.4228 843.349 Q21.0356 845.991 21.0356 850.256 Q21.0356 853.279 22.086 856.653 Q23.1363 859.995 25.2688 863.815 L18.7758 863.815 Q17.2162 859.931 16.4205 856.558 Q15.6248 853.184 15.6248 850.383 Q15.6248 842.999 19.3169 838.606 Q23.009 834.214 29.1837 834.214 Q32.112 834.214 34.7537 835.328 Q37.3637 836.41 40.9285 839.307 Q41.8515 840.102 46.2757 844.367 Q50.668 848.632 58.5933 856.398 Z" fill="#000000" fill-rule="nonzero" fill-opacity="1"></path><path clip-path="url(#clip590)" d="M16.4842 800.317 L16.4842 770.27 L21.895 770.27 L21.895 793.887 L35.9632 793.887 L35.9632 771.257 L41.3741 771.257 L41.3741 793.887 L58.5933 793.887 L58.5933 769.698 L64.0042 769.698 L64.0042 800.317 L16.4842 800.317 Z" fill="#000000" fill-rule="nonzero" fill-opacity="1"></path><path clip-path="url(#clip590)" d="M33.8307 738.728 Q33.2578 739.715 33.0032 740.893 Q32.7167 742.039 32.7167 743.439 Q32.7167 748.404 35.9632 751.078 Q39.1779 753.72 45.2253 753.72 L64.0042 753.72 L64.0042 759.608 L28.3562 759.608 L28.3562 753.72 L33.8944 753.72 Q30.6479 751.874 29.0883 748.913 Q27.4968 745.953 27.4968 741.72 Q27.4968 741.116 27.5923 740.383 Q27.656 739.651 27.8151 738.76 L33.8307 738.728 Z" fill="#000000" fill-rule="nonzero" fill-opacity="1"></path><path clip-path="url(#clip590)" d="M33.8307 713.075 Q33.2578 714.061 33.0032 715.239 Q32.7167 716.385 32.7167 717.785 Q32.7167 722.75 35.9632 725.424 Q39.1779 728.066 45.2253 728.066 L64.0042 728.066 L64.0042 733.954 L28.3562 733.954 L28.3562 728.066 L33.8944 728.066 Q30.6479 726.22 29.0883 723.26 Q27.4968 720.3 27.4968 716.066 Q27.4968 715.462 27.5923 714.73 Q27.656 713.998 27.8151 713.106 L33.8307 713.075 Z" fill="#000000" fill-rule="nonzero" fill-opacity="1"></path><path clip-path="url(#clip590)" d="M32.4621 694.55 Q32.4621 699.261 36.1542 701.998 Q39.8145 704.735 46.212 704.735 Q52.6095 704.735 56.3017 702.03 Q59.9619 699.293 59.9619 694.55 Q59.9619 689.872 56.2698 687.134 Q52.5777 684.397 46.212 684.397 Q39.8781 684.397 36.186 687.134 Q32.4621 689.872 32.4621 694.55 M27.4968 694.55 Q27.4968 686.912 32.4621 682.551 Q37.4273 678.19 46.212 678.19 Q54.9649 678.19 59.9619 682.551 Q64.9272 686.912 64.9272 694.55 Q64.9272 702.221 59.9619 706.582 Q54.9649 710.91 46.212 710.91 Q37.4273 710.91 32.4621 706.582 Q27.4968 702.221 27.4968 694.55 Z" fill="#000000" fill-rule="nonzero" fill-opacity="1"></path><path clip-path="url(#clip590)" d="M33.8307 647.826 Q33.2578 648.813 33.0032 649.99 Q32.7167 651.136 32.7167 652.537 Q32.7167 657.502 35.9632 660.176 Q39.1779 662.817 45.2253 662.817 L64.0042 662.817 L64.0042 668.706 L28.3562 668.706 L28.3562 662.817 L33.8944 662.817 Q30.6479 660.971 29.0883 658.011 Q27.4968 655.051 27.4968 650.818 Q27.4968 650.213 27.5923 649.481 Q27.656 648.749 27.8151 647.858 L33.8307 647.826 Z" fill="#000000" fill-rule="nonzero" fill-opacity="1"></path><path clip-path="url(#clip590)" d="M942.357 16.7545 L942.357 25.383 Q938.226 21.5346 933.527 19.6307 Q928.868 17.7268 923.602 17.7268 Q913.231 17.7268 907.722 24.0867 Q902.213 30.4061 902.213 42.3968 Q902.213 54.3469 907.722 60.7069 Q913.231 67.0263 923.602 67.0263 Q928.868 67.0263 933.527 65.1223 Q938.226 63.2184 942.357 59.3701 L942.357 67.9175 Q938.064 70.8341 933.243 72.2924 Q928.463 73.7508 923.116 73.7508 Q909.383 73.7508 901.484 65.3654 Q893.585 56.9395 893.585 42.3968 Q893.585 27.8135 901.484 19.4281 Q909.383 11.0023 923.116 11.0023 Q928.544 11.0023 933.324 12.4606 Q938.145 13.8784 942.357 16.7545 Z" fill="#000000" fill-rule="nonzero" fill-opacity="1"></path><path clip-path="url(#clip590)" d="M972.253 32.4315 Q966.258 32.4315 962.774 37.1306 Q959.29 41.7891 959.29 49.9314 Q959.29 58.0738 962.734 62.7728 Q966.217 67.4314 972.253 67.4314 Q978.208 67.4314 981.692 62.7323 Q985.176 58.0333 985.176 49.9314 Q985.176 41.8701 981.692 37.1711 Q978.208 32.4315 972.253 32.4315 M972.253 26.1121 Q981.975 26.1121 987.525 32.4315 Q993.075 38.7509 993.075 49.9314 Q993.075 61.0714 987.525 67.4314 Q981.975 73.7508 972.253 73.7508 Q962.49 73.7508 956.941 67.4314 Q951.432 61.0714 951.432 49.9314 Q951.432 38.7509 956.941 32.4315 Q962.49 26.1121 972.253 26.1121 Z" fill="#000000" fill-rule="nonzero" fill-opacity="1"></path><path clip-path="url(#clip590)" d="M1043.14 45.1919 L1043.14 72.576 L1035.69 72.576 L1035.69 45.4349 Q1035.69 38.994 1033.18 35.7938 Q1030.67 32.5936 1025.64 32.5936 Q1019.61 32.5936 1016.12 36.4419 Q1012.64 40.2903 1012.64 46.9338 L1012.64 72.576 L1005.15 72.576 L1005.15 27.2059 L1012.64 27.2059 L1012.64 34.2544 Q1015.31 30.163 1018.92 28.1376 Q1022.57 26.1121 1027.3 26.1121 Q1035.12 26.1121 1039.13 30.9732 Q1043.14 35.7938 1043.14 45.1919 Z" fill="#000000" fill-rule="nonzero" fill-opacity="1"></path><path clip-path="url(#clip590)" d="M1052.66 27.2059 L1060.56 27.2059 L1074.74 65.2844 L1088.92 27.2059 L1096.82 27.2059 L1079.8 72.576 L1069.68 72.576 L1052.66 27.2059 Z" fill="#000000" fill-rule="nonzero" fill-opacity="1"></path><path clip-path="url(#clip590)" d="M1145.92 48.0275 L1145.92 51.6733 L1111.64 51.6733 Q1112.13 59.3701 1116.26 63.421 Q1120.44 67.4314 1127.85 67.4314 Q1132.14 67.4314 1136.15 66.3781 Q1140.2 65.3249 1144.17 63.2184 L1144.17 70.267 Q1140.16 71.9684 1135.95 72.8596 Q1131.74 73.7508 1127.4 73.7508 Q1116.55 73.7508 1110.19 67.4314 Q1103.87 61.1119 1103.87 50.3365 Q1103.87 39.1965 1109.86 32.6746 Q1115.9 26.1121 1126.11 26.1121 Q1135.26 26.1121 1140.57 32.0264 Q1145.92 37.9003 1145.92 48.0275 M1138.46 45.84 Q1138.38 39.7232 1135.02 36.0774 Q1131.7 32.4315 1126.19 32.4315 Q1119.95 32.4315 1116.18 35.9558 Q1112.45 39.4801 1111.89 45.8805 L1138.46 45.84 Z" fill="#000000" fill-rule="nonzero" fill-opacity="1"></path><path clip-path="url(#clip590)" d="M1184.44 34.1734 Q1183.18 33.4443 1181.68 33.1202 Q1180.23 32.7556 1178.44 32.7556 Q1172.12 32.7556 1168.72 36.8875 Q1165.36 40.9789 1165.36 48.6757 L1165.36 72.576 L1157.87 72.576 L1157.87 27.2059 L1165.36 27.2059 L1165.36 34.2544 Q1167.71 30.1225 1171.48 28.1376 Q1175.24 26.1121 1180.63 26.1121 Q1181.4 26.1121 1182.33 26.2337 Q1183.26 26.3147 1184.4 26.5172 L1184.44 34.1734 Z" fill="#000000" fill-rule="nonzero" fill-opacity="1"></path><path clip-path="url(#clip590)" d="M1220.65 49.3643 Q1220.65 41.2625 1217.29 36.8065 Q1213.97 32.3505 1207.93 32.3505 Q1201.94 32.3505 1198.58 36.8065 Q1195.26 41.2625 1195.26 49.3643 Q1195.26 57.4256 1198.58 61.8816 Q1201.94 66.3376 1207.93 66.3376 Q1213.97 66.3376 1217.29 61.8816 Q1220.65 57.4256 1220.65 49.3643 M1228.11 66.9452 Q1228.11 78.5308 1222.96 84.1616 Q1217.82 89.8329 1207.21 89.8329 Q1203.28 89.8329 1199.79 89.2252 Q1196.31 88.6581 1193.03 87.4428 L1193.03 80.1917 Q1196.31 81.9741 1199.51 82.8248 Q1202.71 83.6755 1206.03 83.6755 Q1213.36 83.6755 1217.01 79.8271 Q1220.65 76.0193 1220.65 68.282 L1220.65 64.5957 Q1218.35 68.6061 1214.74 70.5911 Q1211.13 72.576 1206.11 72.576 Q1197.77 72.576 1192.66 66.2161 Q1187.56 59.8562 1187.56 49.3643 Q1187.56 38.832 1192.66 32.472 Q1197.77 26.1121 1206.11 26.1121 Q1211.13 26.1121 1214.74 28.0971 Q1218.35 30.082 1220.65 34.0924 L1220.65 27.2059 L1228.11 27.2059 L1228.11 66.9452 Z" fill="#000000" fill-rule="nonzero" fill-opacity="1"></path><path clip-path="url(#clip590)" d="M1282.27 48.0275 L1282.27 51.6733 L1248 51.6733 Q1248.48 59.3701 1252.62 63.421 Q1256.79 67.4314 1264.2 67.4314 Q1268.5 67.4314 1272.51 66.3781 Q1276.56 65.3249 1280.53 63.2184 L1280.53 70.267 Q1276.52 71.9684 1272.3 72.8596 Q1268.09 73.7508 1263.76 73.7508 Q1252.9 73.7508 1246.54 67.4314 Q1240.22 61.1119 1240.22 50.3365 Q1240.22 39.1965 1246.22 32.6746 Q1252.25 26.1121 1262.46 26.1121 Q1271.61 26.1121 1276.92 32.0264 Q1282.27 37.9003 1282.27 48.0275 M1274.82 45.84 Q1274.73 39.7232 1271.37 36.0774 Q1268.05 32.4315 1262.54 32.4315 Q1256.3 32.4315 1252.54 35.9558 Q1248.81 39.4801 1248.24 45.8805 L1274.82 45.84 Z" fill="#000000" fill-rule="nonzero" fill-opacity="1"></path><path clip-path="url(#clip590)" d="M1332.22 45.1919 L1332.22 72.576 L1324.76 72.576 L1324.76 45.4349 Q1324.76 38.994 1322.25 35.7938 Q1319.74 32.5936 1314.72 32.5936 Q1308.68 32.5936 1305.2 36.4419 Q1301.71 40.2903 1301.71 46.9338 L1301.71 72.576 L1294.22 72.576 L1294.22 27.2059 L1301.71 27.2059 L1301.71 34.2544 Q1304.39 30.163 1307.99 28.1376 Q1311.64 26.1121 1316.38 26.1121 Q1324.2 26.1121 1328.21 30.9732 Q1332.22 35.7938 1332.22 45.1919 Z" fill="#000000" fill-rule="nonzero" fill-opacity="1"></path><path clip-path="url(#clip590)" d="M1379.73 28.9478 L1379.73 35.9153 Q1376.57 34.1734 1373.37 33.3227 Q1370.21 32.4315 1366.97 32.4315 Q1359.72 32.4315 1355.71 37.0496 Q1351.7 41.6271 1351.7 49.9314 Q1351.7 58.2358 1355.71 62.8538 Q1359.72 67.4314 1366.97 67.4314 Q1370.21 67.4314 1373.37 66.5807 Q1376.57 65.6895 1379.73 63.9476 L1379.73 70.8341 Q1376.61 72.2924 1373.25 73.0216 Q1369.93 73.7508 1366.16 73.7508 Q1355.91 73.7508 1349.88 67.3098 Q1343.84 60.8689 1343.84 49.9314 Q1343.84 38.832 1349.92 32.472 Q1356.04 26.1121 1366.65 26.1121 Q1370.09 26.1121 1373.37 26.8413 Q1376.65 27.5299 1379.73 28.9478 Z" fill="#000000" fill-rule="nonzero" fill-opacity="1"></path><path clip-path="url(#clip590)" d="M1431.5 48.0275 L1431.5 51.6733 L1397.23 51.6733 Q1397.72 59.3701 1401.85 63.421 Q1406.02 67.4314 1413.44 67.4314 Q1417.73 67.4314 1421.74 66.3781 Q1425.79 65.3249 1429.76 63.2184 L1429.76 70.267 Q1425.75 71.9684 1421.54 72.8596 Q1417.33 73.7508 1412.99 73.7508 Q1402.14 73.7508 1395.78 67.4314 Q1389.46 61.1119 1389.46 50.3365 Q1389.46 39.1965 1395.45 32.6746 Q1401.49 26.1121 1411.7 26.1121 Q1420.85 26.1121 1426.16 32.0264 Q1431.5 37.9003 1431.5 48.0275 M1424.05 45.84 Q1423.97 39.7232 1420.61 36.0774 Q1417.29 32.4315 1411.78 32.4315 Q1405.54 32.4315 1401.77 35.9558 Q1398.04 39.4801 1397.48 45.8805 L1424.05 45.84 Z" fill="#000000" fill-rule="nonzero" fill-opacity="1"></path><path clip-path="url(#clip590)" d="M1508.92 48.0275 L1508.92 51.6733 L1474.65 51.6733 Q1475.13 59.3701 1479.26 63.421 Q1483.44 67.4314 1490.85 67.4314 Q1495.14 67.4314 1499.15 66.3781 Q1503.21 65.3249 1507.18 63.2184 L1507.18 70.267 Q1503.16 71.9684 1498.95 72.8596 Q1494.74 73.7508 1490.4 73.7508 Q1479.55 73.7508 1473.19 67.4314 Q1466.87 61.1119 1466.87 50.3365 Q1466.87 39.1965 1472.86 32.6746 Q1478.9 26.1121 1489.11 26.1121 Q1498.26 26.1121 1503.57 32.0264 Q1508.92 37.9003 1508.92 48.0275 M1501.46 45.84 Q1501.38 39.7232 1498.02 36.0774 Q1494.7 32.4315 1489.19 32.4315 Q1482.95 32.4315 1479.18 35.9558 Q1475.46 39.4801 1474.89 45.8805 L1501.46 45.84 Z" fill="#000000" fill-rule="nonzero" fill-opacity="1"></path><path clip-path="url(#clip590)" d="M1547.44 34.1734 Q1546.19 33.4443 1544.69 33.1202 Q1543.23 32.7556 1541.45 32.7556 Q1535.13 32.7556 1531.72 36.8875 Q1528.36 40.9789 1528.36 48.6757 L1528.36 72.576 L1520.87 72.576 L1520.87 27.2059 L1528.36 27.2059 L1528.36 34.2544 Q1530.71 30.1225 1534.48 28.1376 Q1538.25 26.1121 1543.63 26.1121 Q1544.4 26.1121 1545.33 26.2337 Q1546.27 26.3147 1547.4 26.5172 L1547.44 34.1734 Z" fill="#000000" fill-rule="nonzero" fill-opacity="1"></path><path clip-path="url(#clip590)" d="M1580.09 34.1734 Q1578.84 33.4443 1577.34 33.1202 Q1575.88 32.7556 1574.1 32.7556 Q1567.78 32.7556 1564.37 36.8875 Q1561.01 40.9789 1561.01 48.6757 L1561.01 72.576 L1553.52 72.576 L1553.52 27.2059 L1561.01 27.2059 L1561.01 34.2544 Q1563.36 30.1225 1567.13 28.1376 Q1570.9 26.1121 1576.28 26.1121 Q1577.05 26.1121 1577.98 26.2337 Q1578.92 26.3147 1580.05 26.5172 L1580.09 34.1734 Z" fill="#000000" fill-rule="nonzero" fill-opacity="1"></path><path clip-path="url(#clip590)" d="M1603.67 32.4315 Q1597.67 32.4315 1594.19 37.1306 Q1590.7 41.7891 1590.7 49.9314 Q1590.7 58.0738 1594.15 62.7728 Q1597.63 67.4314 1603.67 67.4314 Q1609.62 67.4314 1613.11 62.7323 Q1616.59 58.0333 1616.59 49.9314 Q1616.59 41.8701 1613.11 37.1711 Q1609.62 32.4315 1603.67 32.4315 M1603.67 26.1121 Q1613.39 26.1121 1618.94 32.4315 Q1624.49 38.7509 1624.49 49.9314 Q1624.49 61.0714 1618.94 67.4314 Q1613.39 73.7508 1603.67 73.7508 Q1593.9 73.7508 1588.36 67.4314 Q1582.85 61.0714 1582.85 49.9314 Q1582.85 38.7509 1588.36 32.4315 Q1593.9 26.1121 1603.67 26.1121 Z" fill="#000000" fill-rule="nonzero" fill-opacity="1"></path><path clip-path="url(#clip590)" d="M1663.13 34.1734 Q1661.88 33.4443 1660.38 33.1202 Q1658.92 32.7556 1657.14 32.7556 Q1650.82 32.7556 1647.42 36.8875 Q1644.06 40.9789 1644.06 48.6757 L1644.06 72.576 L1636.56 72.576 L1636.56 27.2059 L1644.06 27.2059 L1644.06 34.2544 Q1646.4 30.1225 1650.17 28.1376 Q1653.94 26.1121 1659.33 26.1121 Q1660.1 26.1121 1661.03 26.2337 Q1661.96 26.3147 1663.09 26.5172 L1663.13 34.1734 Z" fill="#000000" fill-rule="nonzero" fill-opacity="1"></path><polyline clip-path="url(#clip592)" style="stroke:#0000ff; stroke-linecap:round; stroke-linejoin:round; stroke-width:4; stroke-opacity:1; fill:none" points="264.778,160.256 266.808,170.323 268.837,180.307 270.866,190.209 272.895,200.03 274.924,209.771 276.954,219.431 278.983,229.012 281.012,238.514 283.041,247.939 285.07,257.285 287.1,266.556 289.129,275.75 291.158,284.868 293.187,293.912 295.216,302.882 297.246,311.777 299.275,320.6 301.304,329.351 303.333,338.029 305.362,346.636 307.391,355.173 309.421,363.64 311.45,372.037 313.479,380.365 315.508,388.624 317.537,396.816 319.567,404.941 321.596,412.999 323.625,420.991 325.654,428.917 327.683,436.778 329.713,444.575 331.742,452.307 333.771,459.976 335.8,467.582 337.829,475.126 339.859,482.608 341.888,490.028 343.917,497.387 345.946,504.686 347.975,511.925 350.005,519.105 352.034,526.226 354.063,533.288 356.092,540.292 358.121,547.239 360.15,554.129 362.18,560.962 364.209,567.739 366.238,574.46 368.267,581.126 370.296,587.738 372.326,594.295 374.355,600.798 376.384,607.248 378.413,613.645 380.442,619.99 382.472,626.282 384.501,632.523 386.53,638.712 388.559,644.851 390.588,650.939 392.618,656.978 394.647,662.966 396.676,668.906 398.705,674.797 400.734,680.639 402.763,686.434 404.793,692.181 406.822,697.88 408.851,703.533 410.88,709.14 412.909,714.7 414.939,720.215 416.968,725.685 418.997,731.109 421.026,736.489 423.055,741.825 425.085,747.117 427.114,752.366 429.143,757.572 431.172,762.735 433.201,767.855 435.231,772.933 437.26,777.97 439.289,782.966 441.318,787.92 443.347,792.834 445.377,797.707 447.406,802.54 449.435,807.334 451.464,812.088 453.493,816.804 455.522,821.48 457.552,826.118 459.581,830.718 461.61,835.281 463.639,839.806 465.668,844.293 467.698,848.744 469.727,853.158 471.756,857.537 473.785,861.879 475.814,866.185 477.844,870.456 479.873,874.692 481.902,878.894 483.931,883.061 485.96,887.193 487.99,891.292 490.019,895.357 492.048,899.388 494.077,903.387 496.106,907.353 498.136,911.286 500.165,915.187 502.194,919.056 504.223,922.893 506.252,926.698 508.281,930.473 510.311,934.216 512.34,937.928 514.369,941.611 516.398,945.263 518.427,948.884 520.457,952.477 522.486,956.039 524.515,959.573 526.544,963.077 528.573,966.553 530.603,970 532.632,973.419 534.661,976.81 536.69,980.172 538.719,983.508 540.749,986.816 542.778,990.096 544.807,993.35 546.836,996.577 548.865,999.778 550.894,1002.95 552.924,1006.1 554.953,1009.22 556.982,1012.32 559.011,1015.39 561.04,1018.44 563.07,1021.46 565.099,1024.45 567.128,1027.43 569.157,1030.37 571.186,1033.3 573.216,1036.2 575.245,1039.07 577.274,1041.92 579.303,1044.75 581.332,1047.56 583.362,1050.34 585.391,1053.1 587.42,1055.83 589.449,1058.55 591.478,1061.24 593.508,1063.91 595.537,1066.56 597.566,1069.18 599.595,1071.79 601.624,1074.37 603.653,1076.93 605.683,1079.47 607.712,1081.99 609.741,1084.49 611.77,1086.97 613.799,1089.43 615.829,1091.87 617.858,1094.29 619.887,1096.69 621.916,1099.07 623.945,1101.42 625.975,1103.76 628.004,1106.08 630.033,1108.39 632.062,1110.67 634.091,1112.93 636.121,1115.18 638.15,1117.41 640.179,1119.61 642.208,1121.8 644.237,1123.98 646.267,1126.13 648.296,1128.27 650.325,1130.39 652.354,1132.49 654.383,1134.57 656.412,1136.64 658.442,1138.69 660.471,1140.73 662.5,1142.74 664.529,1144.74 666.558,1146.73 668.588,1148.7 670.617,1150.65 672.646,1152.58 674.675,1154.5 676.704,1156.41 678.734,1158.3 680.763,1160.17 682.792,1162.03 684.821,1163.87 686.85,1165.7 688.88,1167.51 690.909,1169.31 692.938,1171.09 694.967,1172.86 696.996,1174.61 699.025,1176.35 701.055,1178.07 703.084,1179.78 705.113,1181.48 707.142,1183.16 709.171,1184.83 711.201,1186.49 713.23,1188.13 715.259,1189.76 717.288,1191.37 719.317,1192.97 721.347,1194.56 723.376,1196.14 725.405,1197.7 727.434,1199.25 729.463,1200.78 731.493,1202.31 733.522,1203.82 735.551,1205.32 737.58,1206.81 739.609,1208.28 741.639,1209.74 743.668,1211.19 745.697,1212.63 747.726,1214.06 749.755,1215.47 751.784,1216.88 753.814,1218.27 755.843,1219.65 757.872,1221.02 759.901,1222.38 761.93,1223.72 763.96,1225.06 765.989,1226.38 768.018,1227.7 770.047,1229 772.076,1230.29 774.106,1231.58 776.135,1232.85 778.164,1234.11 780.193,1235.36 782.222,1236.6 784.252,1237.83 786.281,1239.05 788.31,1240.26 790.339,1241.46 792.368,1242.65 794.398,1243.83 796.427,1245 798.456,1246.16 800.485,1247.31 802.514,1248.45 804.543,1249.59 806.573,1250.71 808.602,1251.82 810.631,1252.93 812.66,1254.03 814.689,1255.11 816.719,1256.19 818.748,1257.26 820.777,1258.32 822.806,1259.37 824.835,1260.42 826.865,1261.45 828.894,1262.48 830.923,1263.49 832.952,1264.5 834.981,1265.5 837.011,1266.5 839.04,1267.48 841.069,1268.46 843.098,1269.43 845.127,1270.39 847.156,1271.34 849.186,1272.28 851.215,1273.22 853.244,1274.15 855.273,1275.07 857.302,1275.99 859.332,1276.89 861.361,1277.79 863.39,1278.68 865.419,1279.57 867.448,1280.45 869.478,1281.32 871.507,1282.18 873.536,1283.03 875.565,1283.88 877.594,1284.73 879.624,1285.56 881.653,1286.39 883.682,1287.21 885.711,1288.02 887.74,1288.83 889.77,1289.63 891.799,1290.43 893.828,1291.22 895.857,1292 897.886,1292.77 899.915,1293.54 901.945,1294.3 903.974,1295.06 906.003,1295.81 908.032,1296.55 910.061,1297.29 912.091,1298.02 914.12,1298.75 916.149,1299.47 918.178,1300.18 920.207,1300.89 922.237,1301.59 924.266,1302.29 926.295,1302.98 928.324,1303.67 930.353,1304.35 932.383,1305.02 934.412,1305.69 936.441,1306.35 938.47,1307.01 940.499,1307.66 942.529,1308.31 944.558,1308.95 946.587,1309.58 948.616,1310.21 950.645,1310.84 952.674,1311.46 954.704,1312.08 956.733,1312.69 958.762,1313.29 960.791,1313.89 962.82,1314.49 964.85,1315.08 966.879,1315.66 968.908,1316.25 970.937,1316.82 972.966,1317.39 974.996,1317.96 977.025,1318.52 979.054,1319.08 981.083,1319.63 983.112,1320.18 985.142,1320.72 987.171,1321.26 989.2,1321.8 991.229,1322.33 993.258,1322.86 995.287,1323.38 997.317,1323.89 999.346,1324.41 1001.38,1324.92 1003.4,1325.42 1005.43,1325.92 1007.46,1326.42 1009.49,1326.91 1011.52,1327.4 1013.55,1327.89 1015.58,1328.37 1017.61,1328.84 1019.64,1329.32 1021.67,1329.78 1023.7,1330.25 1025.73,1330.71 1027.75,1331.17 1029.78,1331.62 1031.81,1332.07 1033.84,1332.52 1035.87,1332.96 1037.9,1333.4 1039.93,1333.83 1041.96,1334.27 1043.99,1334.69 1046.02,1335.12 1048.05,1335.54 1050.08,1335.96 1052.1,1336.37 1054.13,1336.78 1056.16,1337.19 1058.19,1337.59 1060.22,1338 1062.25,1338.39 1064.28,1338.79 1066.31,1339.18 1068.34,1339.57 1070.37,1339.95 1072.4,1340.33 1074.43,1340.71 1076.46,1341.09 1078.48,1341.46 1080.51,1341.83 1082.54,1342.19 1084.57,1342.56 1086.6,1342.92 1088.63,1343.27 1090.66,1343.63 1092.69,1343.98 1094.72,1344.33 1096.75,1344.67 1098.78,1345.02 1100.81,1345.36 1102.83,1345.69 1104.86,1346.03 1106.89,1346.36 1108.92,1346.69 1110.95,1347.01 1112.98,1347.34 1115.01,1347.66 1117.04,1347.98 1119.07,1348.29 1121.1,1348.61 1123.13,1348.92 1125.16,1349.22 1127.18,1349.53 1129.21,1349.83 1131.24,1350.13 1133.27,1350.43 1135.3,1350.73 1137.33,1351.02 1139.36,1351.31 1141.39,1351.6 1143.42,1351.88 1145.45,1352.17 1147.48,1352.45 1149.51,1352.73 1151.54,1353 1153.56,1353.28 1155.59,1353.55 1157.62,1353.82 1159.65,1354.09 1161.68,1354.35 1163.71,1354.62 1165.74,1354.88 1167.77,1355.14 1169.8,1355.39 1171.83,1355.65 1173.86,1355.9 1175.89,1356.15 1177.91,1356.4 1179.94,1356.65 1181.97,1356.89 1184,1357.13 1186.03,1357.37 1188.06,1357.61 1190.09,1357.85 1192.12,1358.08 1194.15,1358.32 1196.18,1358.55 1198.21,1358.78 1200.24,1359 1202.27,1359.23 1204.29,1359.45 1206.32,1359.67 1208.35,1359.89 1210.38,1360.11 1212.41,1360.33 1214.44,1360.54 1216.47,1360.75 1218.5,1360.96 1220.53,1361.17 1222.56,1361.38 1224.59,1361.59 1226.62,1361.79 1228.64,1361.99 1230.67,1362.19 1232.7,1362.39 1234.73,1362.59 1236.76,1362.78 1238.79,1362.98 1240.82,1363.17 1242.85,1363.36 1244.88,1363.55 1246.91,1363.74 1248.94,1363.93 1250.97,1364.11 1252.99,1364.29 1255.02,1364.48 1257.05,1364.66 1259.08,1364.83 1261.11,1365.01 1263.14,1365.19 1265.17,1365.36 1267.2,1365.53 1269.23,1365.71 1271.26,1365.88 1273.29,1366.04 1275.32,1366.21 1277.35,1366.38 1279.37,1366.54 1281.4,1366.71 1283.43,1366.87 1285.46,1367.03 1287.49,1367.19 1289.52,1367.35 1291.55,1367.5 1293.58,1367.66 1295.61,1367.81 1297.64,1367.96 1299.67,1368.12 1301.7,1368.27 1303.72,1368.41 1305.75,1368.56 1307.78,1368.71 1309.81,1368.85 1311.84,1369 1313.87,1369.14 1315.9,1369.28 1317.93,1369.42 1319.96,1369.56 1321.99,1369.7 1324.02,1369.84 1326.05,1369.98 1328.07,1370.11 1330.1,1370.24 1332.13,1370.38 1334.16,1370.51 1336.19,1370.64 1338.22,1370.77 1340.25,1370.9 1342.28,1371.03 1344.31,1371.15 1346.34,1371.28 1348.37,1371.4 1350.4,1371.53 1352.43,1371.65 1354.45,1371.77 1356.48,1371.89 1358.51,1372.01 1360.54,1372.13 1362.57,1372.24 1364.6,1372.36 1366.63,1372.48 1368.66,1372.59 1370.69,1372.7 1372.72,1372.82 1374.75,1372.93 1376.78,1373.04 1378.8,1373.15 1380.83,1373.26 1382.86,1373.37 1384.89,1373.47 1386.92,1373.58 1388.95,1373.68 1390.98,1373.79 1393.01,1373.89 1395.04,1374 1397.07,1374.1 1399.1,1374.2 1401.13,1374.3 1403.16,1374.4 1405.18,1374.5 1407.21,1374.6 1409.24,1374.69 1411.27,1374.79 1413.3,1374.88 1415.33,1374.98 1417.36,1375.07 1419.39,1375.17 1421.42,1375.26 1423.45,1375.35 1425.48,1375.44 1427.51,1375.53 1429.53,1375.62 1431.56,1375.71 1433.59,1375.8 1435.62,1375.88 1437.65,1375.97 1439.68,1376.06 1441.71,1376.14 1443.74,1376.23 1445.77,1376.31 1447.8,1376.39 1449.83,1376.48 1451.86,1376.56 1453.88,1376.64 1455.91,1376.72 1457.94,1376.8 1459.97,1376.88 1462,1376.96 1464.03,1377.03 1466.06,1377.11 1468.09,1377.19 1470.12,1377.26 1472.15,1377.34 1474.18,1377.41 1476.21,1377.49 1478.24,1377.56 1480.26,1377.63 1482.29,1377.7 1484.32,1377.78 1486.35,1377.85 1488.38,1377.92 1490.41,1377.99 1492.44,1378.06 1494.47,1378.13 1496.5,1378.19 1498.53,1378.26 1500.56,1378.33 1502.59,1378.39 1504.61,1378.46 1506.64,1378.53 1508.67,1378.59 1510.7,1378.66 1512.73,1378.72 1514.76,1378.78 1516.79,1378.84 1518.82,1378.91 1520.85,1378.97 1522.88,1379.03 1524.91,1379.09 1526.94,1379.15 1528.96,1379.21 1530.99,1379.27 1533.02,1379.33 1535.05,1379.39 1537.08,1379.44 1539.11,1379.5 1541.14,1379.56 1543.17,1379.61 1545.2,1379.67 1547.23,1379.73 1549.26,1379.78 1551.29,1379.84 1553.32,1379.89 1555.34,1379.94 1557.37,1380 1559.4,1380.05 1561.43,1380.1 1563.46,1380.15 1565.49,1380.21 1567.52,1380.26 1569.55,1380.31 1571.58,1380.36 1573.61,1380.41 1575.64,1380.46 1577.67,1380.51 1579.69,1380.55 1581.72,1380.6 1583.75,1380.65 1585.78,1380.7 1587.81,1380.74 1589.84,1380.79 1591.87,1380.84 1593.9,1380.88 1595.93,1380.93 1597.96,1380.97 1599.99,1381.02 1602.02,1381.06 1604.05,1381.11 1606.07,1381.15 1608.1,1381.19 1610.13,1381.24 1612.16,1381.28 1614.19,1381.32 1616.22,1381.36 1618.25,1381.4 1620.28,1381.45 1622.31,1381.49 1624.34,1381.53 1626.37,1381.57 1628.4,1381.61 1630.42,1381.65 1632.45,1381.69 1634.48,1381.72 1636.51,1381.76 1638.54,1381.8 1640.57,1381.84 1642.6,1381.88 1644.63,1381.91 1646.66,1381.95 1648.69,1381.99 1650.72,1382.02 1652.75,1382.06 1654.77,1382.1 1656.8,1382.13 1658.83,1382.17 1660.86,1382.2 1662.89,1382.24 1664.92,1382.27 1666.95,1382.31 1668.98,1382.34 1671.01,1382.37 1673.04,1382.41 1675.07,1382.44 1677.1,1382.47 1679.13,1382.5 1681.15,1382.54 1683.18,1382.57 1685.21,1382.6 1687.24,1382.63 1689.27,1382.66 1691.3,1382.69 1693.33,1382.72 1695.36,1382.75 1697.39,1382.78 1699.42,1382.81 1701.45,1382.84 1703.48,1382.87 1705.5,1382.9 1707.53,1382.93 1709.56,1382.96 1711.59,1382.99 1713.62,1383.02 1715.65,1383.04 1717.68,1383.07 1719.71,1383.1 1721.74,1383.13 1723.77,1383.15 1725.8,1383.18 1727.83,1383.21 1729.85,1383.23 1731.88,1383.26 1733.91,1383.29 1735.94,1383.31 1737.97,1383.34 1740,1383.36 1742.03,1383.39 1744.06,1383.41 1746.09,1383.44 1748.12,1383.46 1750.15,1383.49 1752.18,1383.51 1754.21,1383.53 1756.23,1383.56 1758.26,1383.58 1760.29,1383.6 1762.32,1383.63 1764.35,1383.65 1766.38,1383.67 1768.41,1383.7 1770.44,1383.72 1772.47,1383.74 1774.5,1383.76 1776.53,1383.78 1778.56,1383.81 1780.58,1383.83 1782.61,1383.85 1784.64,1383.87 1786.67,1383.89 1788.7,1383.91 1790.73,1383.93 1792.76,1383.95 1794.79,1383.97 1796.82,1383.99 1798.85,1384.01 1800.88,1384.03 1802.91,1384.05 1804.94,1384.07 1806.96,1384.09 1808.99,1384.11 1811.02,1384.13 1813.05,1384.15 1815.08,1384.17 1817.11,1384.19 1819.14,1384.2 1821.17,1384.22 1823.2,1384.24 1825.23,1384.26 1827.26,1384.28 1829.29,1384.29 1831.31,1384.31 1833.34,1384.33 1835.37,1384.35 1837.4,1384.36 1839.43,1384.38 1841.46,1384.4 1843.49,1384.41 1845.52,1384.43 1847.55,1384.45 1849.58,1384.46 1851.61,1384.48 1853.64,1384.49 1855.66,1384.51 1857.69,1384.53 1859.72,1384.54 1861.75,1384.56 1863.78,1384.57 1865.81,1384.59 1867.84,1384.6 1869.87,1384.62 1871.9,1384.63 1873.93,1384.65 1875.96,1384.66 1877.99,1384.68 1880.02,1384.69 1882.04,1384.7 1884.07,1384.72 1886.1,1384.73 1888.13,1384.75 1890.16,1384.76 1892.19,1384.77 1894.22,1384.79 1896.25,1384.8 1898.28,1384.81 1900.31,1384.83 1902.34,1384.84 1904.37,1384.85 1906.39,1384.87 1908.42,1384.88 1910.45,1384.89 1912.48,1384.9 1914.51,1384.92 1916.54,1384.93 1918.57,1384.94 1920.6,1384.95 1922.63,1384.97 1924.66,1384.98 1926.69,1384.99 1928.72,1385 1930.74,1385.01 1932.77,1385.02 1934.8,1385.04 1936.83,1385.05 1938.86,1385.06 1940.89,1385.07 1942.92,1385.08 1944.95,1385.09 1946.98,1385.1 1949.01,1385.11 1951.04,1385.12 1953.07,1385.13 1955.1,1385.15 1957.12,1385.16 1959.15,1385.17 1961.18,1385.18 1963.21,1385.19 1965.24,1385.2 1967.27,1385.21 1969.3,1385.22 1971.33,1385.23 1973.36,1385.24 1975.39,1385.25 1977.42,1385.26 1979.45,1385.27 1981.47,1385.28 1983.5,1385.28 1985.53,1385.29 1987.56,1385.3 1989.59,1385.31 1991.62,1385.32 1993.65,1385.33 1995.68,1385.34 1997.71,1385.35 1999.74,1385.36 2001.77,1385.37 2003.8,1385.37 2005.82,1385.38 2007.85,1385.39 2009.88,1385.4 2011.91,1385.41 2013.94,1385.42 2015.97,1385.43 2018,1385.43 2020.03,1385.44 2022.06,1385.45 2024.09,1385.46 2026.12,1385.47 2028.15,1385.47 2030.18,1385.48 2032.2,1385.49 2034.23,1385.5 2036.26,1385.5 2038.29,1385.51 2040.32,1385.52 2042.35,1385.53 2044.38,1385.53 2046.41,1385.54 2048.44,1385.55 2050.47,1385.56 2052.5,1385.56 2054.53,1385.57 2056.55,1385.58 2058.58,1385.58 2060.61,1385.59 2062.64,1385.6 2064.67,1385.6 2066.7,1385.61 2068.73,1385.62 2070.76,1385.62 2072.79,1385.63 2074.82,1385.64 2076.85,1385.64 2078.88,1385.65 2080.91,1385.66 2082.93,1385.66 2084.96,1385.67 2086.99,1385.68 2089.02,1385.68 2091.05,1385.69 2093.08,1385.69 2095.11,1385.7 2097.14,1385.71 2099.17,1385.71 2101.2,1385.72 2103.23,1385.72 2105.26,1385.73 2107.28,1385.73 2109.31,1385.74 2111.34,1385.75 2113.37,1385.75 2115.4,1385.76 2117.43,1385.76 2119.46,1385.77 2121.49,1385.77 2123.52,1385.78 2125.55,1385.78 2127.58,1385.79 2129.61,1385.79 2131.63,1385.8 2133.66,1385.8 2135.69,1385.81 2137.72,1385.81 2139.75,1385.82 2141.78,1385.82 2143.81,1385.83 2145.84,1385.83 2147.87,1385.84 2149.9,1385.84 2151.93,1385.85 2153.96,1385.85 2155.99,1385.86 2158.01,1385.86 2160.04,1385.87 2162.07,1385.87 2164.1,1385.88 2166.13,1385.88 2168.16,1385.88 2170.19,1385.89 2172.22,1385.89 2174.25,1385.9 2176.28,1385.9 2178.31,1385.91 2180.34,1385.91 2182.36,1385.92 2184.39,1385.92 2186.42,1385.92 2188.45,1385.93 2190.48,1385.93 2192.51,1385.94 2194.54,1385.94 2196.57,1385.94 2198.6,1385.95 2200.63,1385.95 2202.66,1385.96 2204.69,1385.96 2206.71,1385.96 2208.74,1385.97 2210.77,1385.97 2212.8,1385.97 2214.83,1385.98 2216.86,1385.98 2218.89,1385.99 2220.92,1385.99 2222.95,1385.99 2224.98,1386 2227.01,1386 2229.04,1386 2231.07,1386.01 2233.09,1386.01 2235.12,1386.01 2237.15,1386.02 2239.18,1386.02 2241.21,1386.02 2243.24,1386.03 2245.27,1386.03 2247.3,1386.03 2249.33,1386.04 2251.36,1386.04 2253.39,1386.04 2255.42,1386.05 2257.44,1386.05 2259.47,1386.05 2261.5,1386.05 2263.53,1386.06 2265.56,1386.06 2267.59,1386.06 2269.62,1386.07 2271.65,1386.07 2273.68,1386.07 2275.71,1386.08 2277.74,1386.08 2279.77,1386.08 2281.8,1386.08 2283.82,1386.09 2285.85,1386.09 2287.88,1386.09 2289.91,1386.09 2291.94,1386.1 "></polyline>
<polyline clip-path="url(#clip592)" style="stroke:#ff0000; stroke-linecap:round; stroke-linejoin:round; stroke-width:4; stroke-opacity:1; fill:none" points="264.778,170.09 266.808,189.755 268.837,209.106 270.866,228.146 272.895,246.881 274.924,265.315 276.954,283.452 278.983,301.299 281.012,318.858 283.041,336.135 285.07,353.133 287.1,369.858 289.129,386.314 291.158,402.505 293.187,418.434 295.216,434.108 297.246,449.528 299.275,464.7 301.304,479.628 303.333,494.314 305.362,508.764 307.391,522.981 309.421,536.968 311.45,550.73 313.479,564.27 315.508,577.591 317.537,590.697 319.567,603.591 321.596,616.278 323.625,628.759 325.654,641.039 327.683,653.121 329.713,665.007 331.742,676.701 333.771,688.207 335.8,699.526 337.829,710.663 339.859,721.619 341.888,732.399 343.917,743.004 345.946,753.438 347.975,763.702 350.005,773.801 352.034,783.737 354.063,793.512 356.092,803.129 358.121,812.59 360.15,821.898 362.18,831.055 364.209,840.064 366.238,848.928 368.267,857.648 370.296,866.226 372.326,874.666 374.355,882.969 376.384,891.138 378.413,899.174 380.442,907.081 382.472,914.859 384.501,922.511 386.53,930.039 388.559,937.445 390.588,944.731 392.618,951.899 394.647,958.951 396.676,965.888 398.705,972.713 400.734,979.428 402.763,986.033 404.793,992.532 406.822,998.925 408.851,1005.21 410.88,1011.4 412.909,1017.49 414.939,1023.48 416.968,1029.37 418.997,1035.16 421.026,1040.86 423.055,1046.47 425.085,1051.99 427.114,1057.42 429.143,1062.76 431.172,1068.01 433.201,1073.18 435.231,1078.26 437.26,1083.26 439.289,1088.19 441.318,1093.03 443.347,1097.79 445.377,1102.47 447.406,1107.08 449.435,1111.61 451.464,1116.07 453.493,1120.46 455.522,1124.78 457.552,1129.02 459.581,1133.2 461.61,1137.31 463.639,1141.35 465.668,1145.32 467.698,1149.24 469.727,1153.08 471.756,1156.87 473.785,1160.59 475.814,1164.26 477.844,1167.86 479.873,1171.41 481.902,1174.89 483.931,1178.32 485.96,1181.7 487.99,1185.02 490.019,1188.28 492.048,1191.5 494.077,1194.66 496.106,1197.77 498.136,1200.82 500.165,1203.83 502.194,1206.79 504.223,1209.7 506.252,1212.57 508.281,1215.38 510.311,1218.16 512.34,1220.88 514.369,1223.56 516.398,1226.2 518.427,1228.8 520.457,1231.35 522.486,1233.86 524.515,1236.33 526.544,1238.76 528.573,1241.15 530.603,1243.5 532.632,1245.82 534.661,1248.09 536.69,1250.33 538.719,1252.53 540.749,1254.7 542.778,1256.83 544.807,1258.93 546.836,1260.99 548.865,1263.02 550.894,1265.01 552.924,1266.97 554.953,1268.9 556.982,1270.8 559.011,1272.67 561.04,1274.51 563.07,1276.32 565.099,1278.09 567.128,1279.84 569.157,1281.56 571.186,1283.26 573.216,1284.92 575.245,1286.56 577.274,1288.17 579.303,1289.76 581.332,1291.32 583.362,1292.85 585.391,1294.36 587.42,1295.84 589.449,1297.3 591.478,1298.74 593.508,1300.15 595.537,1301.54 597.566,1302.91 599.595,1304.25 601.624,1305.57 603.653,1306.87 605.683,1308.15 607.712,1309.41 609.741,1310.65 611.77,1311.87 613.799,1313.07 615.829,1314.24 617.858,1315.4 619.887,1316.54 621.916,1317.67 623.945,1318.77 625.975,1319.86 628.004,1320.92 630.033,1321.97 632.062,1323.01 634.091,1324.02 636.121,1325.02 638.15,1326.01 640.179,1326.97 642.208,1327.93 644.237,1328.86 646.267,1329.78 648.296,1330.69 650.325,1331.58 652.354,1332.46 654.383,1333.32 656.412,1334.17 658.442,1335 660.471,1335.82 662.5,1336.63 664.529,1337.42 666.558,1338.2 668.588,1338.97 670.617,1339.73 672.646,1340.47 674.675,1341.2 676.704,1341.92 678.734,1342.63 680.763,1343.33 682.792,1344.01 684.821,1344.68 686.85,1345.35 688.88,1346 690.909,1346.64 692.938,1347.27 694.967,1347.89 696.996,1348.5 699.025,1349.1 701.055,1349.69 703.084,1350.27 705.113,1350.85 707.142,1351.41 709.171,1351.96 711.201,1352.5 713.23,1353.04 715.259,1353.57 717.288,1354.08 719.317,1354.59 721.347,1355.1 723.376,1355.59 725.405,1356.07 727.434,1356.55 729.463,1357.02 731.493,1357.48 733.522,1357.94 735.551,1358.38 737.58,1358.82 739.609,1359.25 741.639,1359.68 743.668,1360.1 745.697,1360.51 747.726,1360.91 749.755,1361.31 751.784,1361.7 753.814,1362.09 755.843,1362.47 757.872,1362.84 759.901,1363.21 761.93,1363.57 763.96,1363.93 765.989,1364.27 768.018,1364.62 770.047,1364.96 772.076,1365.29 774.106,1365.62 776.135,1365.94 778.164,1366.26 780.193,1366.57 782.222,1366.87 784.252,1367.17 786.281,1367.47 788.31,1367.76 790.339,1368.05 792.368,1368.33 794.398,1368.61 796.427,1368.88 798.456,1369.15 800.485,1369.42 802.514,1369.68 804.543,1369.93 806.573,1370.19 808.602,1370.43 810.631,1370.68 812.66,1370.92 814.689,1371.15 816.719,1371.39 818.748,1371.62 820.777,1371.84 822.806,1372.06 824.835,1372.28 826.865,1372.49 828.894,1372.7 830.923,1372.91 832.952,1373.12 834.981,1373.32 837.011,1373.51 839.04,1373.71 841.069,1373.9 843.098,1374.09 845.127,1374.27 847.156,1374.45 849.186,1374.63 851.215,1374.81 853.244,1374.98 855.273,1375.15 857.302,1375.32 859.332,1375.49 861.361,1375.65 863.39,1375.81 865.419,1375.97 867.448,1376.12 869.478,1376.28 871.507,1376.43 873.536,1376.57 875.565,1376.72 877.594,1376.86 879.624,1377 881.653,1377.14 883.682,1377.28 885.711,1377.41 887.74,1377.54 889.77,1377.67 891.799,1377.8 893.828,1377.93 895.857,1378.05 897.886,1378.17 899.915,1378.29 901.945,1378.41 903.974,1378.53 906.003,1378.64 908.032,1378.75 910.061,1378.86 912.091,1378.97 914.12,1379.08 916.149,1379.18 918.178,1379.29 920.207,1379.39 922.237,1379.49 924.266,1379.59 926.295,1379.69 928.324,1379.78 930.353,1379.88 932.383,1379.97 934.412,1380.06 936.441,1380.15 938.47,1380.24 940.499,1380.33 942.529,1380.42 944.558,1380.5 946.587,1380.58 948.616,1380.67 950.645,1380.75 952.674,1380.83 954.704,1380.9 956.733,1380.98 958.762,1381.06 960.791,1381.13 962.82,1381.2 964.85,1381.28 966.879,1381.35 968.908,1381.42 970.937,1381.49 972.966,1381.56 974.996,1381.62 977.025,1381.69 979.054,1381.75 981.083,1381.82 983.112,1381.88 985.142,1381.94 987.171,1382 989.2,1382.06 991.229,1382.12 993.258,1382.18 995.287,1382.24 997.317,1382.29 999.346,1382.35 1001.38,1382.4 1003.4,1382.46 1005.43,1382.51 1007.46,1382.56 1009.49,1382.62 1011.52,1382.67 1013.55,1382.72 1015.58,1382.77 1017.61,1382.81 1019.64,1382.86 1021.67,1382.91 1023.7,1382.96 1025.73,1383 1027.75,1383.05 1029.78,1383.09 1031.81,1383.13 1033.84,1383.18 1035.87,1383.22 1037.9,1383.26 1039.93,1383.3 1041.96,1383.34 1043.99,1383.38 1046.02,1383.42 1048.05,1383.46 1050.08,1383.5 1052.1,1383.54 1054.13,1383.57 1056.16,1383.61 1058.19,1383.65 1060.22,1383.68 1062.25,1383.72 1064.28,1383.75 1066.31,1383.79 1068.34,1383.82 1070.37,1383.85 1072.4,1383.88 1074.43,1383.92 1076.46,1383.95 1078.48,1383.98 1080.51,1384.01 1082.54,1384.04 1084.57,1384.07 1086.6,1384.1 1088.63,1384.13 1090.66,1384.16 1092.69,1384.18 1094.72,1384.21 1096.75,1384.24 1098.78,1384.27 1100.81,1384.29 1102.83,1384.32 1104.86,1384.35 1106.89,1384.37 1108.92,1384.4 1110.95,1384.42 1112.98,1384.44 1115.01,1384.47 1117.04,1384.49 1119.07,1384.52 1121.1,1384.54 1123.13,1384.56 1125.16,1384.58 1127.18,1384.61 1129.21,1384.63 1131.24,1384.65 1133.27,1384.67 1135.3,1384.69 1137.33,1384.71 1139.36,1384.73 1141.39,1384.75 1143.42,1384.77 1145.45,1384.79 1147.48,1384.81 1149.51,1384.83 1151.54,1384.85 1153.56,1384.87 1155.59,1384.89 1157.62,1384.9 1159.65,1384.92 1161.68,1384.94 1163.71,1384.96 1165.74,1384.97 1167.77,1384.99 1169.8,1385.01 1171.83,1385.02 1173.86,1385.04 1175.89,1385.06 1177.91,1385.07 1179.94,1385.09 1181.97,1385.1 1184,1385.12 1186.03,1385.13 1188.06,1385.15 1190.09,1385.16 1192.12,1385.18 1194.15,1385.19 1196.18,1385.2 1198.21,1385.22 1200.24,1385.23 1202.27,1385.25 1204.29,1385.26 1206.32,1385.27 1208.35,1385.28 1210.38,1385.3 1212.41,1385.31 1214.44,1385.32 1216.47,1385.33 1218.5,1385.35 1220.53,1385.36 1222.56,1385.37 1224.59,1385.38 1226.62,1385.39 1228.64,1385.41 1230.67,1385.42 1232.7,1385.43 1234.73,1385.44 1236.76,1385.45 1238.79,1385.46 1240.82,1385.47 1242.85,1385.48 1244.88,1385.49 1246.91,1385.5 1248.94,1385.51 1250.97,1385.52 1252.99,1385.53 1255.02,1385.54 1257.05,1385.55 1259.08,1385.56 1261.11,1385.57 1263.14,1385.58 1265.17,1385.59 1267.2,1385.6 1269.23,1385.61 1271.26,1385.61 1273.29,1385.62 1275.32,1385.63 1277.35,1385.64 1279.37,1385.65 1281.4,1385.66 1283.43,1385.66 1285.46,1385.67 1287.49,1385.68 1289.52,1385.69 1291.55,1385.7 1293.58,1385.7 1295.61,1385.71 1297.64,1385.72 1299.67,1385.73 1301.7,1385.73 1303.72,1385.74 1305.75,1385.75 1307.78,1385.75 1309.81,1385.76 1311.84,1385.77 1313.87,1385.78 1315.9,1385.78 1317.93,1385.79 1319.96,1385.8 1321.99,1385.8 1324.02,1385.81 1326.05,1385.81 1328.07,1385.82 1330.1,1385.83 1332.13,1385.83 1334.16,1385.84 1336.19,1385.85 1338.22,1385.85 1340.25,1385.86 1342.28,1385.86 1344.31,1385.87 1346.34,1385.87 1348.37,1385.88 1350.4,1385.89 1352.43,1385.89 1354.45,1385.9 1356.48,1385.9 1358.51,1385.91 1360.54,1385.91 1362.57,1385.92 1364.6,1385.92 1366.63,1385.93 1368.66,1385.93 1370.69,1385.94 1372.72,1385.94 1374.75,1385.95 1376.78,1385.95 1378.8,1385.96 1380.83,1385.96 1382.86,1385.96 1384.89,1385.97 1386.92,1385.97 1388.95,1385.98 1390.98,1385.98 1393.01,1385.99 1395.04,1385.99 1397.07,1386 1399.1,1386 1401.13,1386 1403.16,1386.01 1405.18,1386.01 1407.21,1386.02 1409.24,1386.02 1411.27,1386.02 1413.3,1386.03 1415.33,1386.03 1417.36,1386.04 1419.39,1386.04 1421.42,1386.04 1423.45,1386.05 1425.48,1386.05 1427.51,1386.05 1429.53,1386.06 1431.56,1386.06 1433.59,1386.06 1435.62,1386.07 1437.65,1386.07 1439.68,1386.07 1441.71,1386.08 1443.74,1386.08 1445.77,1386.08 1447.8,1386.09 1449.83,1386.09 1451.86,1386.09 1453.88,1386.1 1455.91,1386.1 1457.94,1386.1 1459.97,1386.11 1462,1386.11 1464.03,1386.11 1466.06,1386.11 1468.09,1386.12 1470.12,1386.12 1472.15,1386.12 1474.18,1386.13 1476.21,1386.13 1478.24,1386.13 1480.26,1386.13 1482.29,1386.14 1484.32,1386.14 1486.35,1386.14 1488.38,1386.14 1490.41,1386.15 1492.44,1386.15 1494.47,1386.15 1496.5,1386.15 1498.53,1386.16 1500.56,1386.16 1502.59,1386.16 1504.61,1386.16 1506.64,1386.17 1508.67,1386.17 1510.7,1386.17 1512.73,1386.17 1514.76,1386.17 1516.79,1386.18 1518.82,1386.18 1520.85,1386.18 1522.88,1386.18 1524.91,1386.19 1526.94,1386.19 1528.96,1386.19 1530.99,1386.19 1533.02,1386.19 1535.05,1386.2 1537.08,1386.2 1539.11,1386.2 1541.14,1386.2 1543.17,1386.2 1545.2,1386.21 1547.23,1386.21 1549.26,1386.21 1551.29,1386.21 1553.32,1386.21 1555.34,1386.21 1557.37,1386.22 1559.4,1386.22 1561.43,1386.22 1563.46,1386.22 1565.49,1386.22 1567.52,1386.23 1569.55,1386.23 1571.58,1386.23 1573.61,1386.23 1575.64,1386.23 1577.67,1386.23 1579.69,1386.23 1581.72,1386.24 1583.75,1386.24 1585.78,1386.24 1587.81,1386.24 1589.84,1386.24 1591.87,1386.24 1593.9,1386.25 1595.93,1386.25 1597.96,1386.25 1599.99,1386.25 1602.02,1386.25 1604.05,1386.25 1606.07,1386.25 1608.1,1386.26 1610.13,1386.26 1612.16,1386.26 1614.19,1386.26 1616.22,1386.26 1618.25,1386.26 1620.28,1386.26 1622.31,1386.26 1624.34,1386.27 1626.37,1386.27 1628.4,1386.27 1630.42,1386.27 1632.45,1386.27 1634.48,1386.27 1636.51,1386.27 1638.54,1386.27 1640.57,1386.27 1642.6,1386.28 1644.63,1386.28 1646.66,1386.28 1648.69,1386.28 1650.72,1386.28 1652.75,1386.28 1654.77,1386.28 1656.8,1386.28 1658.83,1386.28 1660.86,1386.29 1662.89,1386.29 1664.92,1386.29 1666.95,1386.29 1668.98,1386.29 1671.01,1386.29 1673.04,1386.29 1675.07,1386.29 1677.1,1386.29 1679.13,1386.29 1681.15,1386.3 1683.18,1386.3 1685.21,1386.3 1687.24,1386.3 1689.27,1386.3 1691.3,1386.3 1693.33,1386.3 1695.36,1386.3 1697.39,1386.3 1699.42,1386.3 1701.45,1386.3 1703.48,1386.31 1705.5,1386.31 1707.53,1386.31 1709.56,1386.31 1711.59,1386.31 1713.62,1386.31 1715.65,1386.31 1717.68,1386.31 1719.71,1386.31 1721.74,1386.31 1723.77,1386.31 1725.8,1386.31 1727.83,1386.31 1729.85,1386.32 1731.88,1386.32 1733.91,1386.32 1735.94,1386.32 1737.97,1386.32 1740,1386.32 1742.03,1386.32 1744.06,1386.32 1746.09,1386.32 1748.12,1386.32 1750.15,1386.32 1752.18,1386.32 1754.21,1386.32 1756.23,1386.32 1758.26,1386.32 1760.29,1386.33 1762.32,1386.33 1764.35,1386.33 1766.38,1386.33 1768.41,1386.33 1770.44,1386.33 1772.47,1386.33 1774.5,1386.33 1776.53,1386.33 1778.56,1386.33 1780.58,1386.33 1782.61,1386.33 1784.64,1386.33 1786.67,1386.33 1788.7,1386.33 1790.73,1386.33 1792.76,1386.33 1794.79,1386.34 1796.82,1386.34 1798.85,1386.34 1800.88,1386.34 1802.91,1386.34 1804.94,1386.34 1806.96,1386.34 1808.99,1386.34 1811.02,1386.34 1813.05,1386.34 1815.08,1386.34 1817.11,1386.34 1819.14,1386.34 1821.17,1386.34 1823.2,1386.34 1825.23,1386.34 1827.26,1386.34 1829.29,1386.34 1831.31,1386.34 1833.34,1386.34 1835.37,1386.35 1837.4,1386.35 1839.43,1386.35 1841.46,1386.35 1843.49,1386.35 1845.52,1386.35 1847.55,1386.35 1849.58,1386.35 1851.61,1386.35 1853.64,1386.35 1855.66,1386.35 1857.69,1386.35 1859.72,1386.35 1861.75,1386.35 1863.78,1386.35 1865.81,1386.35 1867.84,1386.35 1869.87,1386.35 1871.9,1386.35 1873.93,1386.35 1875.96,1386.35 1877.99,1386.35 1880.02,1386.35 1882.04,1386.35 1884.07,1386.36 1886.1,1386.36 1888.13,1386.36 1890.16,1386.36 1892.19,1386.36 1894.22,1386.36 1896.25,1386.36 1898.28,1386.36 1900.31,1386.36 1902.34,1386.36 1904.37,1386.36 1906.39,1386.36 1908.42,1386.36 1910.45,1386.36 1912.48,1386.36 1914.51,1386.36 1916.54,1386.36 1918.57,1386.36 1920.6,1386.36 1922.63,1386.36 1924.66,1386.36 1926.69,1386.36 1928.72,1386.36 1930.74,1386.36 1932.77,1386.36 1934.8,1386.36 1936.83,1386.36 1938.86,1386.36 1940.89,1386.36 1942.92,1386.36 1944.95,1386.36 1946.98,1386.37 1949.01,1386.37 1951.04,1386.37 1953.07,1386.37 1955.1,1386.37 1957.12,1386.37 1959.15,1386.37 1961.18,1386.37 1963.21,1386.37 1965.24,1386.37 1967.27,1386.37 1969.3,1386.37 1971.33,1386.37 1973.36,1386.37 1975.39,1386.37 1977.42,1386.37 1979.45,1386.37 1981.47,1386.37 1983.5,1386.37 1985.53,1386.37 1987.56,1386.37 1989.59,1386.37 1991.62,1386.37 1993.65,1386.37 1995.68,1386.37 1997.71,1386.37 1999.74,1386.37 2001.77,1386.37 2003.8,1386.37 2005.82,1386.37 2007.85,1386.37 2009.88,1386.37 2011.91,1386.37 2013.94,1386.37 2015.97,1386.37 2018,1386.37 2020.03,1386.37 2022.06,1386.37 2024.09,1386.37 2026.12,1386.38 2028.15,1386.38 2030.18,1386.38 2032.2,1386.38 2034.23,1386.38 2036.26,1386.38 2038.29,1386.38 2040.32,1386.38 2042.35,1386.38 2044.38,1386.38 2046.41,1386.38 2048.44,1386.38 2050.47,1386.38 2052.5,1386.38 2054.53,1386.38 2056.55,1386.38 2058.58,1386.38 2060.61,1386.38 2062.64,1386.38 2064.67,1386.38 2066.7,1386.38 2068.73,1386.38 2070.76,1386.38 2072.79,1386.38 2074.82,1386.38 2076.85,1386.38 2078.88,1386.38 2080.91,1386.38 2082.93,1386.38 2084.96,1386.38 2086.99,1386.38 2089.02,1386.38 2091.05,1386.38 2093.08,1386.38 2095.11,1386.38 2097.14,1386.38 2099.17,1386.38 2101.2,1386.38 2103.23,1386.38 2105.26,1386.38 2107.28,1386.38 2109.31,1386.38 2111.34,1386.38 2113.37,1386.38 2115.4,1386.38 2117.43,1386.38 2119.46,1386.38 2121.49,1386.38 2123.52,1386.38 2125.55,1386.38 2127.58,1386.38 2129.61,1386.38 2131.63,1386.38 2133.66,1386.39 2135.69,1386.39 2137.72,1386.39 2139.75,1386.39 2141.78,1386.39 2143.81,1386.39 2145.84,1386.39 2147.87,1386.39 2149.9,1386.39 2151.93,1386.39 2153.96,1386.39 2155.99,1386.39 2158.01,1386.39 2160.04,1386.39 2162.07,1386.39 2164.1,1386.39 2166.13,1386.39 2168.16,1386.39 2170.19,1386.39 2172.22,1386.39 2174.25,1386.39 2176.28,1386.39 2178.31,1386.39 2180.34,1386.39 2182.36,1386.39 2184.39,1386.39 2186.42,1386.39 2188.45,1386.39 2190.48,1386.39 2192.51,1386.39 2194.54,1386.39 2196.57,1386.39 2198.6,1386.39 2200.63,1386.39 2202.66,1386.39 2204.69,1386.39 2206.71,1386.39 2208.74,1386.39 2210.77,1386.39 2212.8,1386.39 2214.83,1386.39 2216.86,1386.39 2218.89,1386.39 2220.92,1386.39 2222.95,1386.39 2224.98,1386.39 2227.01,1386.39 2229.04,1386.39 2231.07,1386.39 2233.09,1386.39 2235.12,1386.39 2237.15,1386.39 2239.18,1386.39 2241.21,1386.39 2243.24,1386.39 2245.27,1386.39 2247.3,1386.39 2249.33,1386.39 2251.36,1386.39 2253.39,1386.39 2255.42,1386.39 2257.44,1386.39 2259.47,1386.39 2261.5,1386.39 2263.53,1386.39 2265.56,1386.39 2267.59,1386.39 2269.62,1386.39 2271.65,1386.39 2273.68,1386.39 2275.71,1386.39 2277.74,1386.39 2279.77,1386.39 2281.8,1386.4 2283.82,1386.4 2285.85,1386.4 2287.88,1386.4 2289.91,1386.4 2291.94,1386.4 "></polyline>
<path clip-path="url(#clip590)" d="M1766.16 322.316 L2281.13 322.316 L2281.13 166.796 L1766.16 166.796  Z" fill="#ffffff" fill-rule="evenodd" fill-opacity="1"></path>
<polyline clip-path="url(#clip590)" style="stroke:#000000; stroke-linecap:round; stroke-linejoin:round; stroke-width:4; stroke-opacity:1; fill:none" points="1766.16,322.316 2281.13,322.316 2281.13,166.796 1766.16,166.796 1766.16,322.316 "></polyline>
<polyline clip-path="url(#clip590)" style="stroke:#0000ff; stroke-linecap:round; stroke-linejoin:round; stroke-width:4; stroke-opacity:1; fill:none" points="1790.03,218.636 1933.29,218.636 "></polyline>
<path clip-path="url(#clip590)" d="M1964.27 201.356 L1968.95 201.356 L1968.95 233.508 Q1968.95 239.758 1966.56 242.582 Q1964.2 245.406 1958.95 245.406 L1957.16 245.406 L1957.16 241.471 L1958.62 241.471 Q1961.72 241.471 1963 239.735 Q1964.27 237.999 1964.27 233.508 L1964.27 201.356 Z" fill="#000000" fill-rule="nonzero" fill-opacity="1"></path><path clip-path="url(#clip590)" d="M1989.85 222.883 Q1984.69 222.883 1982.7 224.064 Q1980.7 225.244 1980.7 228.092 Q1980.7 230.36 1982.19 231.703 Q1983.69 233.022 1986.26 233.022 Q1989.8 233.022 1991.93 230.522 Q1994.08 227.999 1994.08 223.832 L1994.08 222.883 L1989.85 222.883 M1998.34 221.124 L1998.34 235.916 L1994.08 235.916 L1994.08 231.981 Q1992.63 234.342 1990.45 235.476 Q1988.27 236.587 1985.13 236.587 Q1981.14 236.587 1978.78 234.365 Q1976.45 232.119 1976.45 228.369 Q1976.45 223.994 1979.36 221.772 Q1982.3 219.55 1988.11 219.55 L1994.08 219.55 L1994.08 219.133 Q1994.08 216.194 1992.14 214.596 Q1990.22 212.976 1986.72 212.976 Q1984.5 212.976 1982.39 213.508 Q1980.29 214.041 1978.34 215.106 L1978.34 211.17 Q1980.68 210.268 1982.88 209.828 Q1985.08 209.365 1987.16 209.365 Q1992.79 209.365 1995.57 212.282 Q1998.34 215.198 1998.34 221.124 Z" fill="#000000" fill-rule="nonzero" fill-opacity="1"></path><path clip-path="url(#clip590)" d="M2025.77 210.985 L2025.77 214.967 Q2023.97 213.971 2022.14 213.485 Q2020.33 212.976 2018.48 212.976 Q2014.34 212.976 2012.05 215.615 Q2009.76 218.231 2009.76 222.976 Q2009.76 227.721 2012.05 230.36 Q2014.34 232.976 2018.48 232.976 Q2020.33 232.976 2022.14 232.49 Q2023.97 231.981 2025.77 230.985 L2025.77 234.92 Q2023.99 235.754 2022.07 236.17 Q2020.17 236.587 2018.02 236.587 Q2012.16 236.587 2008.71 232.906 Q2005.26 229.226 2005.26 222.976 Q2005.26 216.633 2008.74 212.999 Q2012.23 209.365 2018.3 209.365 Q2020.26 209.365 2022.14 209.782 Q2024.01 210.175 2025.77 210.985 Z" fill="#000000" fill-rule="nonzero" fill-opacity="1"></path><path clip-path="url(#clip590)" d="M2043.23 212.976 Q2039.8 212.976 2037.81 215.661 Q2035.82 218.323 2035.82 222.976 Q2035.82 227.629 2037.79 230.314 Q2039.78 232.976 2043.23 232.976 Q2046.63 232.976 2048.62 230.291 Q2050.61 227.606 2050.61 222.976 Q2050.61 218.37 2048.62 215.684 Q2046.63 212.976 2043.23 212.976 M2043.23 209.365 Q2048.78 209.365 2051.95 212.976 Q2055.13 216.587 2055.13 222.976 Q2055.13 229.342 2051.95 232.976 Q2048.78 236.587 2043.23 236.587 Q2037.65 236.587 2034.48 232.976 Q2031.33 229.342 2031.33 222.976 Q2031.33 216.587 2034.48 212.976 Q2037.65 209.365 2043.23 209.365 Z" fill="#000000" fill-rule="nonzero" fill-opacity="1"></path><path clip-path="url(#clip590)" d="M2080.8 222.976 Q2080.8 218.277 2078.85 215.615 Q2076.93 212.93 2073.55 212.93 Q2070.17 212.93 2068.23 215.615 Q2066.31 218.277 2066.31 222.976 Q2066.31 227.675 2068.23 230.36 Q2070.17 233.022 2073.55 233.022 Q2076.93 233.022 2078.85 230.36 Q2080.8 227.675 2080.8 222.976 M2066.31 213.925 Q2067.65 211.61 2069.69 210.499 Q2071.75 209.365 2074.59 209.365 Q2079.32 209.365 2082.25 213.115 Q2085.22 216.865 2085.22 222.976 Q2085.22 229.087 2082.25 232.837 Q2079.32 236.587 2074.59 236.587 Q2071.75 236.587 2069.69 235.476 Q2067.65 234.342 2066.31 232.027 L2066.31 235.916 L2062.02 235.916 L2062.02 199.897 L2066.31 199.897 L2066.31 213.925 Z" fill="#000000" fill-rule="nonzero" fill-opacity="1"></path><path clip-path="url(#clip590)" d="M2092.28 209.99 L2096.54 209.99 L2096.54 235.916 L2092.28 235.916 L2092.28 209.99 M2092.28 199.897 L2096.54 199.897 L2096.54 205.291 L2092.28 205.291 L2092.28 199.897 Z" fill="#000000" fill-rule="nonzero" fill-opacity="1"></path><polyline clip-path="url(#clip590)" style="stroke:#ff0000; stroke-linecap:round; stroke-linejoin:round; stroke-width:4; stroke-opacity:1; fill:none" points="1790.03,270.476 1933.29,270.476 "></polyline>
<path clip-path="url(#clip590)" d="M1982.72 282.825 L1982.72 273.543 L1975.08 273.543 L1975.08 269.7 L1987.35 269.7 L1987.35 284.538 Q1984.64 286.459 1981.38 287.455 Q1978.11 288.427 1974.41 288.427 Q1966.31 288.427 1961.72 283.705 Q1957.16 278.959 1957.16 270.51 Q1957.16 262.038 1961.72 257.316 Q1966.31 252.571 1974.41 252.571 Q1977.79 252.571 1980.82 253.404 Q1983.88 254.237 1986.45 255.858 L1986.45 260.835 Q1983.85 258.636 1980.94 257.524 Q1978.02 256.413 1974.8 256.413 Q1968.46 256.413 1965.26 259.955 Q1962.09 263.497 1962.09 270.51 Q1962.09 277.501 1965.26 281.043 Q1968.46 284.584 1974.8 284.584 Q1977.28 284.584 1979.22 284.168 Q1981.17 283.728 1982.72 282.825 Z" fill="#000000" fill-rule="nonzero" fill-opacity="1"></path><path clip-path="url(#clip590)" d="M2007.49 274.723 Q2002.32 274.723 2000.33 275.904 Q1998.34 277.084 1998.34 279.932 Q1998.34 282.2 1999.82 283.543 Q2001.33 284.862 2003.9 284.862 Q2007.44 284.862 2009.57 282.362 Q2011.72 279.839 2011.72 275.672 L2011.72 274.723 L2007.49 274.723 M2015.98 272.964 L2015.98 287.756 L2011.72 287.756 L2011.72 283.821 Q2010.26 286.182 2008.09 287.316 Q2005.91 288.427 2002.76 288.427 Q1998.78 288.427 1996.42 286.205 Q1994.08 283.959 1994.08 280.209 Q1994.08 275.834 1997 273.612 Q1999.94 271.39 2005.75 271.39 L2011.72 271.39 L2011.72 270.973 Q2011.72 268.034 2009.78 266.436 Q2007.86 264.816 2004.36 264.816 Q2002.14 264.816 2000.03 265.348 Q1997.93 265.881 1995.98 266.946 L1995.98 263.01 Q1998.32 262.108 2000.52 261.668 Q2002.72 261.205 2004.8 261.205 Q2010.43 261.205 2013.2 264.122 Q2015.98 267.038 2015.98 272.964 Z" fill="#000000" fill-rule="nonzero" fill-opacity="1"></path><path clip-path="url(#clip590)" d="M2024.32 277.524 L2024.32 261.83 L2028.57 261.83 L2028.57 277.362 Q2028.57 281.043 2030.01 282.895 Q2031.45 284.723 2034.32 284.723 Q2037.76 284.723 2039.76 282.524 Q2041.77 280.325 2041.77 276.529 L2041.77 261.83 L2046.03 261.83 L2046.03 287.756 L2041.77 287.756 L2041.77 283.774 Q2040.22 286.135 2038.16 287.293 Q2036.12 288.427 2033.41 288.427 Q2028.95 288.427 2026.63 285.649 Q2024.32 282.871 2024.32 277.524 M2035.03 261.205 L2035.03 261.205 Z" fill="#000000" fill-rule="nonzero" fill-opacity="1"></path><path clip-path="url(#clip590)" d="M2071.33 262.594 L2071.33 266.622 Q2069.52 265.696 2067.58 265.233 Q2065.63 264.77 2063.55 264.77 Q2060.38 264.77 2058.78 265.742 Q2057.21 266.714 2057.21 268.659 Q2057.21 270.14 2058.34 270.997 Q2059.48 271.83 2062.9 272.594 L2064.36 272.918 Q2068.9 273.89 2070.8 275.672 Q2072.72 277.432 2072.72 280.603 Q2072.72 284.214 2069.85 286.321 Q2067 288.427 2062 288.427 Q2059.92 288.427 2057.65 288.01 Q2055.4 287.617 2052.9 286.807 L2052.9 282.409 Q2055.26 283.635 2057.56 284.26 Q2059.85 284.862 2062.09 284.862 Q2065.1 284.862 2066.72 283.844 Q2068.34 282.802 2068.34 280.927 Q2068.34 279.191 2067.16 278.265 Q2066.01 277.339 2062.05 276.483 L2060.57 276.135 Q2056.61 275.302 2054.85 273.589 Q2053.09 271.853 2053.09 268.844 Q2053.09 265.186 2055.68 263.196 Q2058.27 261.205 2063.04 261.205 Q2065.4 261.205 2067.49 261.552 Q2069.57 261.899 2071.33 262.594 Z" fill="#000000" fill-rule="nonzero" fill-opacity="1"></path><path clip-path="url(#clip590)" d="M2096.03 262.594 L2096.03 266.622 Q2094.22 265.696 2092.28 265.233 Q2090.33 264.77 2088.25 264.77 Q2085.08 264.77 2083.48 265.742 Q2081.91 266.714 2081.91 268.659 Q2081.91 270.14 2083.04 270.997 Q2084.18 271.83 2087.6 272.594 L2089.06 272.918 Q2093.6 273.89 2095.5 275.672 Q2097.42 277.432 2097.42 280.603 Q2097.42 284.214 2094.55 286.321 Q2091.7 288.427 2086.7 288.427 Q2084.62 288.427 2082.35 288.01 Q2080.1 287.617 2077.6 286.807 L2077.6 282.409 Q2079.96 283.635 2082.25 284.26 Q2084.55 284.862 2086.79 284.862 Q2089.8 284.862 2091.42 283.844 Q2093.04 282.802 2093.04 280.927 Q2093.04 279.191 2091.86 278.265 Q2090.7 277.339 2086.75 276.483 L2085.26 276.135 Q2081.31 275.302 2079.55 273.589 Q2077.79 271.853 2077.79 268.844 Q2077.79 265.186 2080.38 263.196 Q2082.97 261.205 2087.74 261.205 Q2090.1 261.205 2092.19 261.552 Q2094.27 261.899 2096.03 262.594 Z" fill="#000000" fill-rule="nonzero" fill-opacity="1"></path><path clip-path="url(#clip590)" d="M2102.05 272.872 L2114.52 272.872 L2114.52 276.668 L2102.05 276.668 L2102.05 272.872 Z" fill="#000000" fill-rule="nonzero" fill-opacity="1"></path><path clip-path="url(#clip590)" d="M2142.21 254.33 L2142.21 258.89 Q2139.55 257.617 2137.19 256.992 Q2134.82 256.367 2132.63 256.367 Q2128.81 256.367 2126.72 257.848 Q2124.66 259.33 2124.66 262.061 Q2124.66 264.353 2126.03 265.534 Q2127.42 266.691 2131.26 267.409 L2134.08 267.987 Q2139.31 268.983 2141.79 271.506 Q2144.29 274.006 2144.29 278.219 Q2144.29 283.242 2140.91 285.834 Q2137.56 288.427 2131.05 288.427 Q2128.6 288.427 2125.82 287.871 Q2123.06 287.316 2120.1 286.228 L2120.1 281.413 Q2122.95 283.01 2125.68 283.821 Q2128.41 284.631 2131.05 284.631 Q2135.06 284.631 2137.23 283.057 Q2139.41 281.483 2139.41 278.566 Q2139.41 276.02 2137.83 274.584 Q2136.28 273.149 2132.72 272.432 L2129.87 271.876 Q2124.64 270.835 2122.3 268.612 Q2119.96 266.39 2119.96 262.432 Q2119.96 257.848 2123.18 255.21 Q2126.42 252.571 2132.09 252.571 Q2134.52 252.571 2137.05 253.011 Q2139.57 253.45 2142.21 254.33 Z" fill="#000000" fill-rule="nonzero" fill-opacity="1"></path><path clip-path="url(#clip590)" d="M2173.57 273.728 L2173.57 275.811 L2153.99 275.811 Q2154.27 280.209 2156.63 282.524 Q2159.01 284.816 2163.25 284.816 Q2165.7 284.816 2168 284.214 Q2170.31 283.612 2172.58 282.409 L2172.58 286.436 Q2170.29 287.408 2167.88 287.918 Q2165.47 288.427 2163 288.427 Q2156.79 288.427 2153.16 284.816 Q2149.55 281.205 2149.55 275.047 Q2149.55 268.682 2152.97 264.955 Q2156.42 261.205 2162.25 261.205 Q2167.49 261.205 2170.52 264.585 Q2173.57 267.941 2173.57 273.728 M2169.31 272.478 Q2169.27 268.983 2167.35 266.899 Q2165.45 264.816 2162.3 264.816 Q2158.74 264.816 2156.58 266.83 Q2154.45 268.844 2154.13 272.501 L2169.31 272.478 Z" fill="#000000" fill-rule="nonzero" fill-opacity="1"></path><path clip-path="url(#clip590)" d="M2180.56 261.83 L2184.82 261.83 L2184.82 287.756 L2180.56 287.756 L2180.56 261.83 M2180.56 251.737 L2184.82 251.737 L2184.82 257.131 L2180.56 257.131 L2180.56 251.737 Z" fill="#000000" fill-rule="nonzero" fill-opacity="1"></path><path clip-path="url(#clip590)" d="M2210.8 265.765 L2210.8 251.737 L2215.06 251.737 L2215.06 287.756 L2210.8 287.756 L2210.8 283.867 Q2209.45 286.182 2207.39 287.316 Q2205.36 288.427 2202.49 288.427 Q2197.79 288.427 2194.82 284.677 Q2191.88 280.927 2191.88 274.816 Q2191.88 268.705 2194.82 264.955 Q2197.79 261.205 2202.49 261.205 Q2205.36 261.205 2207.39 262.339 Q2209.45 263.45 2210.8 265.765 M2196.28 274.816 Q2196.28 279.515 2198.2 282.2 Q2200.15 284.862 2203.53 284.862 Q2206.91 284.862 2208.85 282.2 Q2210.8 279.515 2210.8 274.816 Q2210.8 270.117 2208.85 267.455 Q2206.91 264.77 2203.53 264.77 Q2200.15 264.77 2198.2 267.455 Q2196.28 270.117 2196.28 274.816 Z" fill="#000000" fill-rule="nonzero" fill-opacity="1"></path><path clip-path="url(#clip590)" d="M2246 273.728 L2246 275.811 L2226.42 275.811 Q2226.7 280.209 2229.06 282.524 Q2231.44 284.816 2235.68 284.816 Q2238.13 284.816 2240.43 284.214 Q2242.74 283.612 2245.01 282.409 L2245.01 286.436 Q2242.72 287.408 2240.31 287.918 Q2237.9 288.427 2235.43 288.427 Q2229.22 288.427 2225.59 284.816 Q2221.98 281.205 2221.98 275.047 Q2221.98 268.682 2225.4 264.955 Q2228.85 261.205 2234.68 261.205 Q2239.92 261.205 2242.95 264.585 Q2246 267.941 2246 273.728 M2241.74 272.478 Q2241.7 268.983 2239.78 266.899 Q2237.88 264.816 2234.73 264.816 Q2231.17 264.816 2229.01 266.83 Q2226.88 268.844 2226.56 272.501 L2241.74 272.478 Z" fill="#000000" fill-rule="nonzero" fill-opacity="1"></path><path clip-path="url(#clip590)" d="M2252.99 251.737 L2257.25 251.737 L2257.25 287.756 L2252.99 287.756 L2252.99 251.737 Z" fill="#000000" fill-rule="nonzero" fill-opacity="1"></path></svg>