<svg xmlns="http://www.w3.org/2000/svg" xmlns:xlink="http://www.w3.org/1999/xlink" width="600" height="400" viewBox="0 0 2400 1600">
<defs>
  <clipPath id="clip070">
    <rect x="0" y="0" width="2400" height="1600"></rect>
  </clipPath>
</defs>
<path clip-path="url(#clip070)" d="M0 1600 L2400 1600 L2400 0 L0 0  Z" fill="#ffffff" fill-rule="evenodd" fill-opacity="1"></path>
<defs>
  <clipPath id="clip071">
    <rect x="480" y="0" width="1681" height="1600"></rect>
  </clipPath>
</defs>
<path clip-path="url(#clip070)" d="M221.637 1410.9 L2352.76 1410.9 L2352.76 123.472 L221.637 123.472  Z" fill="#ffffff" fill-rule="evenodd" fill-opacity="1"></path>
<defs>
  <clipPath id="clip072">
    <rect x="221" y="123" width="2132" height="1288"></rect>
  </clipPath>
</defs>
<polyline clip-path="url(#clip072)" style="stroke:#000000; stroke-linecap:round; stroke-linejoin:round; stroke-width:2; stroke-opacity:0.1; fill:none" points="865.478,1410.9 865.478,123.472 "></polyline>
<polyline clip-path="url(#clip072)" style="stroke:#000000; stroke-linecap:round; stroke-linejoin:round; stroke-width:2; stroke-opacity:0.1; fill:none" points="1700.32,1410.9 1700.32,123.472 "></polyline>
<polyline clip-path="url(#clip072)" style="stroke:#000000; stroke-linecap:round; stroke-linejoin:round; stroke-width:2; stroke-opacity:0.1; fill:none" points="221.637,1374.46 2352.76,1374.46 "></polyline>
<polyline clip-path="url(#clip072)" style="stroke:#000000; stroke-linecap:round; stroke-linejoin:round; stroke-width:2; stroke-opacity:0.1; fill:none" points="221.637,645.729 2352.76,645.729 "></polyline>
<polyline clip-path="url(#clip070)" style="stroke:#000000; stroke-linecap:round; stroke-linejoin:round; stroke-width:4; stroke-opacity:1; fill:none" points="221.637,1410.9 2352.76,1410.9 "></polyline>
<polyline clip-path="url(#clip070)" style="stroke:#000000; stroke-linecap:round; stroke-linejoin:round; stroke-width:4; stroke-opacity:1; fill:none" points="865.478,1410.9 865.478,1392 "></polyline>
<polyline clip-path="url(#clip070)" style="stroke:#000000; stroke-linecap:round; stroke-linejoin:round; stroke-width:4; stroke-opacity:1; fill:none" points="1700.32,1410.9 1700.32,1392 "></polyline>
<path clip-path="url(#clip070)" d="M831.806 1485.02 L839.445 1485.02 L839.445 1458.66 L831.135 1460.32 L831.135 1456.06 L839.398 1454.4 L844.074 1454.4 L844.074 1485.02 L851.713 1485.02 L851.713 1488.96 L831.806 1488.96 L831.806 1485.02 Z" fill="#000000" fill-rule="nonzero" fill-opacity="1"></path><path clip-path="url(#clip070)" d="M871.157 1457.48 Q867.546 1457.48 865.718 1461.04 Q863.912 1464.58 863.912 1471.71 Q863.912 1478.82 865.718 1482.38 Q867.546 1485.92 871.157 1485.92 Q874.792 1485.92 876.597 1482.38 Q878.426 1478.82 878.426 1471.71 Q878.426 1464.58 876.597 1461.04 Q874.792 1457.48 871.157 1457.48 M871.157 1453.77 Q876.968 1453.77 880.023 1458.38 Q883.102 1462.96 883.102 1471.71 Q883.102 1480.44 880.023 1485.04 Q876.968 1489.63 871.157 1489.63 Q865.347 1489.63 862.269 1485.04 Q859.213 1480.44 859.213 1471.71 Q859.213 1462.96 862.269 1458.38 Q865.347 1453.77 871.157 1453.77 Z" fill="#000000" fill-rule="nonzero" fill-opacity="1"></path><path clip-path="url(#clip070)" d="M883.647 1458.35 L889.854 1458.35 L889.854 1436.93 L883.102 1438.28 L883.102 1434.82 L889.816 1433.47 L893.615 1433.47 L893.615 1458.35 L899.822 1458.35 L899.822 1461.55 L883.647 1461.55 L883.647 1458.35 Z" fill="#000000" fill-rule="nonzero" fill-opacity="1"></path><path clip-path="url(#clip070)" d="M1666.09 1485.02 L1673.73 1485.02 L1673.73 1458.66 L1665.42 1460.32 L1665.42 1456.06 L1673.68 1454.4 L1678.36 1454.4 L1678.36 1485.02 L1686 1485.02 L1686 1488.96 L1666.09 1488.96 L1666.09 1485.02 Z" fill="#000000" fill-rule="nonzero" fill-opacity="1"></path><path clip-path="url(#clip070)" d="M1705.44 1457.48 Q1701.83 1457.48 1700 1461.04 Q1698.2 1464.58 1698.2 1471.71 Q1698.2 1478.82 1700 1482.38 Q1701.83 1485.92 1705.44 1485.92 Q1709.07 1485.92 1710.88 1482.38 Q1712.71 1478.82 1712.71 1471.71 Q1712.71 1464.58 1710.88 1461.04 Q1709.07 1457.48 1705.44 1457.48 M1705.44 1453.77 Q1711.25 1453.77 1714.31 1458.38 Q1717.38 1462.96 1717.38 1471.71 Q1717.38 1480.44 1714.31 1485.04 Q1711.25 1489.63 1705.44 1489.63 Q1699.63 1489.63 1696.55 1485.04 Q1693.5 1480.44 1693.5 1471.71 Q1693.5 1462.96 1696.55 1458.38 Q1699.63 1453.77 1705.44 1453.77 Z" fill="#000000" fill-rule="nonzero" fill-opacity="1"></path><path clip-path="url(#clip070)" d="M1721.96 1458.35 L1735.21 1458.35 L1735.21 1461.55 L1717.38 1461.55 L1717.38 1458.35 Q1719.55 1456.11 1723.27 1452.35 Q1727.01 1448.57 1727.97 1447.48 Q1729.8 1445.43 1730.51 1444.02 Q1731.25 1442.59 1731.25 1441.22 Q1731.25 1438.98 1729.67 1437.57 Q1728.11 1436.16 1725.58 1436.16 Q1723.8 1436.16 1721.8 1436.78 Q1719.83 1437.4 1717.57 1438.66 L1717.57 1434.82 Q1719.87 1433.9 1721.86 1433.43 Q1723.85 1432.96 1725.51 1432.96 Q1729.87 1432.96 1732.47 1435.14 Q1735.06 1437.32 1735.06 1440.97 Q1735.06 1442.7 1734.41 1444.26 Q1733.77 1445.8 1732.05 1447.91 Q1731.58 1448.46 1729.06 1451.07 Q1726.54 1453.67 1721.96 1458.35 Z" fill="#000000" fill-rule="nonzero" fill-opacity="1"></path><path clip-path="url(#clip070)" d="M1024.87 1567.41 L1024.87 1554.64 L1014.36 1554.64 L1014.36 1549.36 L1031.23 1549.36 L1031.23 1569.76 Q1027.51 1572.4 1023.02 1573.77 Q1018.53 1575.11 1013.44 1575.11 Q1002.3 1575.11 995.997 1568.62 Q989.727 1562.09 989.727 1550.47 Q989.727 1538.82 995.997 1532.33 Q1002.3 1525.81 1013.44 1525.81 Q1018.09 1525.81 1022.26 1526.95 Q1026.46 1528.1 1029.99 1530.33 L1029.99 1537.17 Q1026.43 1534.15 1022.41 1532.62 Q1018.4 1531.09 1013.98 1531.09 Q1005.26 1531.09 1000.87 1535.96 Q996.507 1540.83 996.507 1550.47 Q996.507 1560.09 1000.87 1564.96 Q1005.26 1569.82 1013.98 1569.82 Q1017.39 1569.82 1020.06 1569.25 Q1022.73 1568.65 1024.87 1567.41 Z" fill="#000000" fill-rule="nonzero" fill-opacity="1"></path><path clip-path="url(#clip070)" d="M1063.38 1544.01 Q1062.39 1543.44 1061.21 1543.18 Q1060.07 1542.9 1058.67 1542.9 Q1053.7 1542.9 1051.03 1546.14 Q1048.39 1549.36 1048.39 1555.41 L1048.39 1574.19 L1042.5 1574.19 L1042.5 1538.54 L1048.39 1538.54 L1048.39 1544.08 Q1050.23 1540.83 1053.19 1539.27 Q1056.15 1537.68 1060.39 1537.68 Q1060.99 1537.68 1061.72 1537.77 Q1062.46 1537.84 1063.35 1538 L1063.38 1544.01 Z" fill="#000000" fill-rule="nonzero" fill-opacity="1"></path><path clip-path="url(#clip070)" d="M1069.52 1538.54 L1075.38 1538.54 L1075.38 1574.19 L1069.52 1574.19 L1069.52 1538.54 M1069.52 1524.66 L1075.38 1524.66 L1075.38 1532.08 L1069.52 1532.08 L1069.52 1524.66 Z" fill="#000000" fill-rule="nonzero" fill-opacity="1"></path><path clip-path="url(#clip070)" d="M1111.09 1543.95 L1111.09 1524.66 L1116.95 1524.66 L1116.95 1574.19 L1111.09 1574.19 L1111.09 1568.84 Q1109.24 1572.02 1106.41 1573.58 Q1103.61 1575.11 1099.66 1575.11 Q1093.2 1575.11 1089.13 1569.95 Q1085.09 1564.8 1085.09 1556.39 Q1085.09 1547.99 1089.13 1542.83 Q1093.2 1537.68 1099.66 1537.68 Q1103.61 1537.68 1106.41 1539.24 Q1109.24 1540.77 1111.09 1543.95 M1091.13 1556.39 Q1091.13 1562.85 1093.77 1566.55 Q1096.45 1570.21 1101.1 1570.21 Q1105.74 1570.21 1108.42 1566.55 Q1111.09 1562.85 1111.09 1556.39 Q1111.09 1549.93 1108.42 1546.27 Q1105.74 1542.58 1101.1 1542.58 Q1096.45 1542.58 1093.77 1546.27 Q1091.13 1549.93 1091.13 1556.39 Z" fill="#000000" fill-rule="nonzero" fill-opacity="1"></path><path clip-path="url(#clip070)" d="M1172.45 1539.59 L1172.45 1545.13 Q1169.97 1543.85 1167.3 1543.22 Q1164.62 1542.58 1161.76 1542.58 Q1157.4 1542.58 1155.2 1543.92 Q1153.04 1545.25 1153.04 1547.93 Q1153.04 1549.96 1154.6 1551.14 Q1156.16 1552.29 1160.87 1553.34 L1162.87 1553.78 Q1169.11 1555.12 1171.72 1557.57 Q1174.36 1559.99 1174.36 1564.35 Q1174.36 1569.32 1170.42 1572.21 Q1166.5 1575.11 1159.63 1575.11 Q1156.76 1575.11 1153.64 1574.54 Q1150.56 1573.99 1147.12 1572.88 L1147.12 1566.83 Q1150.37 1568.52 1153.52 1569.38 Q1156.67 1570.21 1159.76 1570.21 Q1163.89 1570.21 1166.12 1568.81 Q1168.35 1567.37 1168.35 1564.8 Q1168.35 1562.41 1166.73 1561.14 Q1165.13 1559.86 1159.69 1558.68 L1157.65 1558.21 Q1152.21 1557.06 1149.79 1554.71 Q1147.37 1552.32 1147.37 1548.18 Q1147.37 1543.15 1150.94 1540.42 Q1154.5 1537.68 1161.06 1537.68 Q1164.31 1537.68 1167.17 1538.16 Q1170.04 1538.63 1172.45 1539.59 Z" fill="#000000" fill-rule="nonzero" fill-opacity="1"></path><path clip-path="url(#clip070)" d="M1183.69 1538.54 L1189.55 1538.54 L1189.55 1574.19 L1183.69 1574.19 L1183.69 1538.54 M1183.69 1524.66 L1189.55 1524.66 L1189.55 1532.08 L1183.69 1532.08 L1183.69 1524.66 Z" fill="#000000" fill-rule="nonzero" fill-opacity="1"></path><path clip-path="url(#clip070)" d="M1199.25 1538.54 L1227.07 1538.54 L1227.07 1543.88 L1205.05 1569.51 L1227.07 1569.51 L1227.07 1574.19 L1198.46 1574.19 L1198.46 1568.84 L1220.48 1543.22 L1199.25 1543.22 L1199.25 1538.54 Z" fill="#000000" fill-rule="nonzero" fill-opacity="1"></path><path clip-path="url(#clip070)" d="M1266.51 1554.9 L1266.51 1557.76 L1239.58 1557.76 Q1239.96 1563.81 1243.21 1566.99 Q1246.49 1570.14 1252.31 1570.14 Q1255.69 1570.14 1258.84 1569.32 Q1262.02 1568.49 1265.14 1566.83 L1265.14 1572.37 Q1261.99 1573.71 1258.68 1574.41 Q1255.37 1575.11 1251.96 1575.11 Q1243.43 1575.11 1238.44 1570.14 Q1233.47 1565.18 1233.47 1556.71 Q1233.47 1547.96 1238.18 1542.83 Q1242.92 1537.68 1250.94 1537.68 Q1258.14 1537.68 1262.31 1542.33 Q1266.51 1546.94 1266.51 1554.9 M1260.65 1553.18 Q1260.59 1548.37 1257.95 1545.51 Q1255.34 1542.64 1251.01 1542.64 Q1246.11 1542.64 1243.15 1545.41 Q1240.22 1548.18 1239.77 1553.21 L1260.65 1553.18 Z" fill="#000000" fill-rule="nonzero" fill-opacity="1"></path><path clip-path="url(#clip070)" d="M1310.91 1524.72 Q1306.64 1532.04 1304.57 1539.21 Q1302.51 1546.37 1302.51 1553.72 Q1302.51 1561.07 1304.57 1568.3 Q1306.68 1575.49 1310.91 1582.78 L1305.82 1582.78 Q1301.04 1575.3 1298.65 1568.07 Q1296.3 1560.85 1296.3 1553.72 Q1296.3 1546.62 1298.65 1539.43 Q1301.01 1532.24 1305.82 1524.72 L1310.91 1524.72 Z" fill="#000000" fill-rule="nonzero" fill-opacity="1"></path><path clip-path="url(#clip070)" d="M1322.53 1526.67 L1331.18 1526.67 L1352.25 1566.42 L1352.25 1526.67 L1358.49 1526.67 L1358.49 1574.19 L1349.84 1574.19 L1328.76 1534.43 L1328.76 1574.19 L1322.53 1574.19 L1322.53 1526.67 Z" fill="#000000" fill-rule="nonzero" fill-opacity="1"></path><path clip-path="url(#clip070)" d="M1400.67 1538.54 L1387.77 1555.88 L1401.33 1574.19 L1394.43 1574.19 L1384.05 1560.18 L1373.67 1574.19 L1366.77 1574.19 L1380.61 1555.53 L1367.95 1538.54 L1374.85 1538.54 L1384.31 1551.24 L1393.76 1538.54 L1400.67 1538.54 Z" fill="#000000" fill-rule="nonzero" fill-opacity="1"></path><path clip-path="url(#clip070)" d="M1454.84 1534.5 L1443.41 1540.67 L1454.84 1546.88 L1452.99 1550 L1442.3 1543.53 L1442.3 1555.53 L1438.67 1555.53 L1438.67 1543.53 L1427.97 1550 L1426.13 1546.88 L1437.55 1540.67 L1426.13 1534.5 L1427.97 1531.34 L1438.67 1537.81 L1438.67 1525.81 L1442.3 1525.81 L1442.3 1537.81 L1452.99 1531.34 L1454.84 1534.5 Z" fill="#000000" fill-rule="nonzero" fill-opacity="1"></path><path clip-path="url(#clip070)" d="M1483.9 1526.67 L1492.55 1526.67 L1513.62 1566.42 L1513.62 1526.67 L1519.86 1526.67 L1519.86 1574.19 L1511.21 1574.19 L1490.14 1534.43 L1490.14 1574.19 L1483.9 1574.19 L1483.9 1526.67 Z" fill="#000000" fill-rule="nonzero" fill-opacity="1"></path><path clip-path="url(#clip070)" d="M1547.24 1577.5 Q1544.75 1583.86 1542.4 1585.8 Q1540.04 1587.74 1536.1 1587.74 L1531.42 1587.74 L1531.42 1582.84 L1534.85 1582.84 Q1537.27 1582.84 1538.61 1581.7 Q1539.95 1580.55 1541.57 1576.29 L1542.62 1573.61 L1528.2 1538.54 L1534.41 1538.54 L1545.55 1566.42 L1556.69 1538.54 L1562.9 1538.54 L1547.24 1577.5 Z" fill="#000000" fill-rule="nonzero" fill-opacity="1"></path><path clip-path="url(#clip070)" d="M1570.06 1524.72 L1575.15 1524.72 Q1579.92 1532.24 1582.28 1539.43 Q1584.67 1546.62 1584.67 1553.72 Q1584.67 1560.85 1582.28 1568.07 Q1579.92 1575.3 1575.15 1582.78 L1570.06 1582.78 Q1574.29 1575.49 1576.36 1568.3 Q1578.46 1561.07 1578.46 1553.72 Q1578.46 1546.37 1576.36 1539.21 Q1574.29 1532.04 1570.06 1524.72 Z" fill="#000000" fill-rule="nonzero" fill-opacity="1"></path><polyline clip-path="url(#clip070)" style="stroke:#000000; stroke-linecap:round; stroke-linejoin:round; stroke-width:4; stroke-opacity:1; fill:none" points="221.637,1410.9 221.637,123.472 "></polyline>
<polyline clip-path="url(#clip070)" style="stroke:#000000; stroke-linecap:round; stroke-linejoin:round; stroke-width:4; stroke-opacity:1; fill:none" points="221.637,1374.46 240.535,1374.46 "></polyline>
<polyline clip-path="url(#clip070)" style="stroke:#000000; stroke-linecap:round; stroke-linejoin:round; stroke-width:4; stroke-opacity:1; fill:none" points="221.637,645.729 240.535,645.729 "></polyline>
<path clip-path="url(#clip070)" d="M114.931 1394.25 L122.57 1394.25 L122.57 1367.89 L114.26 1369.55 L114.26 1365.29 L122.524 1363.63 L127.2 1363.63 L127.2 1394.25 L134.839 1394.25 L134.839 1398.19 L114.931 1398.19 L114.931 1394.25 Z" fill="#000000" fill-rule="nonzero" fill-opacity="1"></path><path clip-path="url(#clip070)" d="M154.283 1366.71 Q150.672 1366.71 148.843 1370.27 Q147.038 1373.81 147.038 1380.94 Q147.038 1388.05 148.843 1391.61 Q150.672 1395.16 154.283 1395.16 Q157.917 1395.16 159.723 1391.61 Q161.552 1388.05 161.552 1380.94 Q161.552 1373.81 159.723 1370.27 Q157.917 1366.71 154.283 1366.71 M154.283 1363 Q160.093 1363 163.149 1367.61 Q166.227 1372.19 166.227 1380.94 Q166.227 1389.67 163.149 1394.28 Q160.093 1398.86 154.283 1398.86 Q148.473 1398.86 145.394 1394.28 Q142.339 1389.67 142.339 1380.94 Q142.339 1372.19 145.394 1367.61 Q148.473 1363 154.283 1363 Z" fill="#000000" fill-rule="nonzero" fill-opacity="1"></path><path clip-path="url(#clip070)" d="M175.932 1345.2 Q172.998 1345.2 171.512 1348.1 Q170.045 1350.97 170.045 1356.77 Q170.045 1362.54 171.512 1365.44 Q172.998 1368.31 175.932 1368.31 Q178.885 1368.31 180.352 1365.44 Q181.838 1362.54 181.838 1356.77 Q181.838 1350.97 180.352 1348.1 Q178.885 1345.2 175.932 1345.2 M175.932 1342.19 Q180.653 1342.19 183.136 1345.93 Q185.637 1349.66 185.637 1356.77 Q185.637 1363.86 183.136 1367.6 Q180.653 1371.32 175.932 1371.32 Q171.212 1371.32 168.71 1367.6 Q166.227 1363.86 166.227 1356.77 Q166.227 1349.66 168.71 1345.93 Q171.212 1342.19 175.932 1342.19 Z" fill="#000000" fill-rule="nonzero" fill-opacity="1"></path><path clip-path="url(#clip070)" d="M115.853 665.522 L123.492 665.522 L123.492 639.156 L115.182 640.823 L115.182 636.563 L123.446 634.897 L128.121 634.897 L128.121 665.522 L135.76 665.522 L135.76 669.457 L115.853 669.457 L115.853 665.522 Z" fill="#000000" fill-rule="nonzero" fill-opacity="1"></path><path clip-path="url(#clip070)" d="M155.205 637.976 Q151.594 637.976 149.765 641.54 Q147.959 645.082 147.959 652.212 Q147.959 659.318 149.765 662.883 Q151.594 666.424 155.205 666.424 Q158.839 666.424 160.644 662.883 Q162.473 659.318 162.473 652.212 Q162.473 645.082 160.644 641.54 Q158.839 637.976 155.205 637.976 M155.205 634.272 Q161.015 634.272 164.07 638.878 Q167.149 643.462 167.149 652.212 Q167.149 660.938 164.07 665.545 Q161.015 670.128 155.205 670.128 Q149.395 670.128 146.316 665.545 Q143.26 660.938 143.26 652.212 Q143.26 643.462 146.316 638.878 Q149.395 634.272 155.205 634.272 Z" fill="#000000" fill-rule="nonzero" fill-opacity="1"></path><path clip-path="url(#clip070)" d="M179.844 626.906 Q182.571 627.489 184.095 629.332 Q185.637 631.176 185.637 633.884 Q185.637 638.04 182.778 640.316 Q179.92 642.592 174.653 642.592 Q172.885 642.592 171.005 642.235 Q169.143 641.896 167.149 641.2 L167.149 637.533 Q168.729 638.454 170.61 638.924 Q172.49 639.395 174.541 639.395 Q178.114 639.395 179.976 637.984 Q181.857 636.573 181.857 633.884 Q181.857 631.401 180.108 630.009 Q178.377 628.599 175.274 628.599 L172.001 628.599 L172.001 625.477 L175.424 625.477 Q178.227 625.477 179.713 624.367 Q181.198 623.239 181.198 621.132 Q181.198 618.969 179.656 617.822 Q178.133 616.656 175.274 616.656 Q173.713 616.656 171.926 616.994 Q170.139 617.333 167.995 618.048 L167.995 614.662 Q170.158 614.06 172.039 613.76 Q173.939 613.459 175.613 613.459 Q179.938 613.459 182.459 615.433 Q184.979 617.389 184.979 620.737 Q184.979 623.069 183.643 624.687 Q182.308 626.286 179.844 626.906 Z" fill="#000000" fill-rule="nonzero" fill-opacity="1"></path><path clip-path="url(#clip070)" d="M16.4842 1278.73 L16.4842 1270.08 L56.238 1249 L16.4842 1249 L16.4842 1242.77 L64.0042 1242.77 L64.0042 1251.42 L24.2503 1272.49 L64.0042 1272.49 L64.0042 1278.73 L16.4842 1278.73 Z" fill="#000000" fill-rule="nonzero" fill-opacity="1"></path><path clip-path="url(#clip070)" d="M49.9359 1230.83 L28.3562 1230.83 L28.3562 1224.97 L49.7131 1224.97 Q54.7739 1224.97 57.3202 1223 Q59.8346 1221.03 59.8346 1217.08 Q59.8346 1212.34 56.8109 1209.6 Q53.7872 1206.83 48.5673 1206.83 L28.3562 1206.83 L28.3562 1200.98 L64.0042 1200.98 L64.0042 1206.83 L58.5296 1206.83 Q61.7762 1208.96 63.3676 1211.8 Q64.9272 1214.6 64.9272 1218.32 Q64.9272 1224.46 61.1078 1227.65 Q57.2883 1230.83 49.9359 1230.83 M27.4968 1216.09 L27.4968 1216.09 Z" fill="#000000" fill-rule="nonzero" fill-opacity="1"></path><path clip-path="url(#clip070)" d="M35.1993 1161.16 Q31.2526 1158.96 29.3747 1155.91 Q27.4968 1152.85 27.4968 1148.71 Q27.4968 1143.14 31.4117 1140.12 Q35.2948 1137.1 42.4881 1137.1 L64.0042 1137.1 L64.0042 1142.98 L42.679 1142.98 Q37.5546 1142.98 35.072 1144.8 Q32.5894 1146.61 32.5894 1150.34 Q32.5894 1154.89 35.6131 1157.53 Q38.6368 1160.17 43.8567 1160.17 L64.0042 1160.17 L64.0042 1166.06 L42.679 1166.06 Q37.5228 1166.06 35.072 1167.87 Q32.5894 1169.69 32.5894 1173.48 Q32.5894 1177.96 35.6449 1180.61 Q38.6686 1183.25 43.8567 1183.25 L64.0042 1183.25 L64.0042 1189.14 L28.3562 1189.14 L28.3562 1183.25 L33.8944 1183.25 Q30.616 1181.24 29.0564 1178.44 Q27.4968 1175.64 27.4968 1171.79 Q27.4968 1167.91 29.4702 1165.2 Q31.4436 1162.46 35.1993 1161.16 Z" fill="#000000" fill-rule="nonzero" fill-opacity="1"></path><path clip-path="url(#clip070)" d="M46.212 1099.82 Q39.7508 1099.82 36.0905 1102.5 Q32.3984 1105.14 32.3984 1109.79 Q32.3984 1114.43 36.0905 1117.11 Q39.7508 1119.75 46.212 1119.75 Q52.6732 1119.75 56.3653 1117.11 Q60.0256 1114.43 60.0256 1109.79 Q60.0256 1105.14 56.3653 1102.5 Q52.6732 1099.82 46.212 1099.82 M33.7671 1119.75 Q30.5842 1117.9 29.0564 1115.1 Q27.4968 1112.27 27.4968 1108.35 Q27.4968 1101.86 32.6531 1097.82 Q37.8093 1093.75 46.212 1093.75 Q54.6147 1093.75 59.771 1097.82 Q64.9272 1101.86 64.9272 1108.35 Q64.9272 1112.27 63.3994 1115.1 Q61.8398 1117.9 58.657 1119.75 L64.0042 1119.75 L64.0042 1125.64 L14.479 1125.64 L14.479 1119.75 L33.7671 1119.75 Z" fill="#000000" fill-rule="nonzero" fill-opacity="1"></path><path clip-path="url(#clip070)" d="M44.7161 1053.55 L47.5806 1053.55 L47.5806 1080.47 Q53.6281 1080.09 56.8109 1076.84 Q59.9619 1073.57 59.9619 1067.74 Q59.9619 1064.37 59.1344 1061.22 Q58.3069 1058.03 56.6518 1054.91 L62.1899 1054.91 Q63.5267 1058.07 64.227 1061.38 Q64.9272 1064.69 64.9272 1068.09 Q64.9272 1076.62 59.9619 1081.62 Q54.9967 1086.58 46.5303 1086.58 Q37.7774 1086.58 32.6531 1081.87 Q27.4968 1077.13 27.4968 1069.11 Q27.4968 1061.92 32.1438 1057.75 Q36.7589 1053.55 44.7161 1053.55 M42.9973 1059.4 Q38.1912 1059.47 35.3266 1062.11 Q32.4621 1064.72 32.4621 1069.05 Q32.4621 1073.95 35.2312 1076.91 Q38.0002 1079.84 43.0292 1080.28 L42.9973 1059.4 Z" fill="#000000" fill-rule="nonzero" fill-opacity="1"></path><path clip-path="url(#clip070)" d="M33.8307 1023.28 Q33.2578 1024.26 33.0032 1025.44 Q32.7167 1026.59 32.7167 1027.99 Q32.7167 1032.95 35.9632 1035.63 Q39.1779 1038.27 45.2253 1038.27 L64.0042 1038.27 L64.0042 1044.16 L28.3562 1044.16 L28.3562 1038.27 L33.8944 1038.27 Q30.6479 1036.42 29.0883 1033.46 Q27.4968 1030.5 27.4968 1026.27 Q27.4968 1025.66 27.5923 1024.93 Q27.656 1024.2 27.8151 1023.31 L33.8307 1023.28 Z" fill="#000000" fill-rule="nonzero" fill-opacity="1"></path><path clip-path="url(#clip070)" d="M32.4621 982.6 Q32.4621 987.311 36.1542 990.048 Q39.8145 992.785 46.212 992.785 Q52.6095 992.785 56.3017 990.08 Q59.9619 987.342 59.9619 982.6 Q59.9619 977.921 56.2698 975.184 Q52.5777 972.447 46.212 972.447 Q39.8781 972.447 36.186 975.184 Q32.4621 977.921 32.4621 982.6 M27.4968 982.6 Q27.4968 974.961 32.4621 970.601 Q37.4273 966.24 46.212 966.24 Q54.9649 966.24 59.9619 970.601 Q64.9272 974.961 64.9272 982.6 Q64.9272 990.271 59.9619 994.631 Q54.9649 998.96 46.212 998.96 Q37.4273 998.96 32.4621 994.631 Q27.4968 990.271 27.4968 982.6 Z" fill="#000000" fill-rule="nonzero" fill-opacity="1"></path><path clip-path="url(#clip070)" d="M14.479 938.486 L19.3487 938.486 L19.3487 944.087 Q19.3487 947.238 20.6219 948.48 Q21.895 949.689 25.2052 949.689 L28.3562 949.689 L28.3562 940.045 L32.9077 940.045 L32.9077 949.689 L64.0042 949.689 L64.0042 955.577 L32.9077 955.577 L32.9077 961.179 L28.3562 961.179 L28.3562 955.577 L25.8736 955.577 Q19.9216 955.577 17.2162 952.808 Q14.479 950.039 14.479 944.024 L14.479 938.486 Z" fill="#000000" fill-rule="nonzero" fill-opacity="1"></path><path clip-path="url(#clip070)" d="M28.3562 912.864 L28.3562 907.007 L64.0042 907.007 L64.0042 912.864 L28.3562 912.864 M14.479 912.864 L14.479 907.007 L21.895 907.007 L21.895 912.864 L14.479 912.864 Z" fill="#000000" fill-rule="nonzero" fill-opacity="1"></path><path clip-path="url(#clip070)" d="M18.2347 888.96 L28.3562 888.96 L28.3562 876.897 L32.9077 876.897 L32.9077 888.96 L52.2594 888.96 Q56.6199 888.96 57.8613 887.783 Q59.1026 886.573 59.1026 882.913 L59.1026 876.897 L64.0042 876.897 L64.0042 882.913 Q64.0042 889.692 61.4897 892.271 Q58.9434 894.849 52.2594 894.849 L32.9077 894.849 L32.9077 899.145 L28.3562 899.145 L28.3562 894.849 L18.2347 894.849 L18.2347 888.96 Z" fill="#000000" fill-rule="nonzero" fill-opacity="1"></path><path clip-path="url(#clip070)" d="M44.7161 838.703 L47.5806 838.703 L47.5806 865.63 Q53.6281 865.248 56.8109 862.002 Q59.9619 858.723 59.9619 852.899 Q59.9619 849.525 59.1344 846.374 Q58.3069 843.191 56.6518 840.072 L62.1899 840.072 Q63.5267 843.223 64.227 846.533 Q64.9272 849.843 64.9272 853.249 Q64.9272 861.779 59.9619 866.776 Q54.9967 871.741 46.5303 871.741 Q37.7774 871.741 32.6531 867.03 Q27.4968 862.288 27.4968 854.267 Q27.4968 847.074 32.1438 842.904 Q36.7589 838.703 44.7161 838.703 M42.9973 844.56 Q38.1912 844.623 35.3266 847.265 Q32.4621 849.875 32.4621 854.204 Q32.4621 859.105 35.2312 862.065 Q38.0002 864.993 43.0292 865.439 L42.9973 844.56 Z" fill="#000000" fill-rule="nonzero" fill-opacity="1"></path><path clip-path="url(#clip070)" d="M33.8307 808.434 Q33.2578 809.421 33.0032 810.599 Q32.7167 811.744 32.7167 813.145 Q32.7167 818.11 35.9632 820.784 Q39.1779 823.425 45.2253 823.425 L64.0042 823.425 L64.0042 829.314 L28.3562 829.314 L28.3562 823.425 L33.8944 823.425 Q30.6479 821.579 29.0883 818.619 Q27.4968 815.659 27.4968 811.426 Q27.4968 810.821 27.5923 810.089 Q27.656 809.357 27.8151 808.466 L33.8307 808.434 Z" fill="#000000" fill-rule="nonzero" fill-opacity="1"></path><path clip-path="url(#clip070)" d="M46.0847 786.091 Q46.0847 793.188 47.7079 795.926 Q49.3312 798.663 53.2461 798.663 Q56.3653 798.663 58.2114 796.626 Q60.0256 794.557 60.0256 791.024 Q60.0256 786.154 56.5881 783.226 Q53.1188 780.266 47.3897 780.266 L46.0847 780.266 L46.0847 786.091 M43.6657 774.409 L64.0042 774.409 L64.0042 780.266 L58.5933 780.266 Q61.8398 782.271 63.3994 785.263 Q64.9272 788.255 64.9272 792.584 Q64.9272 798.058 61.8716 801.305 Q58.7843 804.519 53.6281 804.519 Q47.6125 804.519 44.5569 800.509 Q41.5014 796.467 41.5014 788.478 L41.5014 780.266 L40.9285 780.266 Q36.8862 780.266 34.6901 782.94 Q32.4621 785.581 32.4621 790.387 Q32.4621 793.443 33.1941 796.339 Q33.9262 799.236 35.3903 801.909 L29.9795 801.909 Q28.7381 798.695 28.1334 795.671 Q27.4968 792.647 27.4968 789.783 Q27.4968 782.048 31.5072 778.229 Q35.5176 774.409 43.6657 774.409 Z" fill="#000000" fill-rule="nonzero" fill-opacity="1"></path><path clip-path="url(#clip070)" d="M18.2347 756.554 L28.3562 756.554 L28.3562 744.491 L32.9077 744.491 L32.9077 756.554 L52.2594 756.554 Q56.6199 756.554 57.8613 755.376 Q59.1026 754.167 59.1026 750.506 L59.1026 744.491 L64.0042 744.491 L64.0042 750.506 Q64.0042 757.286 61.4897 759.864 Q58.9434 762.442 52.2594 762.442 L32.9077 762.442 L32.9077 766.739 L28.3562 766.739 L28.3562 762.442 L18.2347 762.442 L18.2347 756.554 Z" fill="#000000" fill-rule="nonzero" fill-opacity="1"></path><path clip-path="url(#clip070)" d="M28.3562 736.788 L28.3562 730.932 L64.0042 730.932 L64.0042 736.788 L28.3562 736.788 M14.479 736.788 L14.479 730.932 L21.895 730.932 L21.895 736.788 L14.479 736.788 Z" fill="#000000" fill-rule="nonzero" fill-opacity="1"></path><path clip-path="url(#clip070)" d="M32.4621 704.864 Q32.4621 709.575 36.1542 712.312 Q39.8145 715.049 46.212 715.049 Q52.6095 715.049 56.3017 712.344 Q59.9619 709.607 59.9619 704.864 Q59.9619 700.185 56.2698 697.448 Q52.5777 694.711 46.212 694.711 Q39.8781 694.711 36.186 697.448 Q32.4621 700.185 32.4621 704.864 M27.4968 704.864 Q27.4968 697.225 32.4621 692.865 Q37.4273 688.504 46.212 688.504 Q54.9649 688.504 59.9619 692.865 Q64.9272 697.225 64.9272 704.864 Q64.9272 712.535 59.9619 716.895 Q54.9649 721.224 46.212 721.224 Q37.4273 721.224 32.4621 716.895 Q27.4968 712.535 27.4968 704.864 Z" fill="#000000" fill-rule="nonzero" fill-opacity="1"></path><path clip-path="url(#clip070)" d="M42.4881 649.164 L64.0042 649.164 L64.0042 655.021 L42.679 655.021 Q37.6183 655.021 35.1038 656.994 Q32.5894 658.967 32.5894 662.914 Q32.5894 667.657 35.6131 670.394 Q38.6368 673.131 43.8567 673.131 L64.0042 673.131 L64.0042 679.019 L28.3562 679.019 L28.3562 673.131 L33.8944 673.131 Q30.6797 671.03 29.0883 668.198 Q27.4968 665.333 27.4968 661.609 Q27.4968 655.466 31.3163 652.315 Q35.1038 649.164 42.4881 649.164 Z" fill="#000000" fill-rule="nonzero" fill-opacity="1"></path><path clip-path="url(#clip070)" d="M29.4065 614.758 L34.9447 614.758 Q33.6716 617.24 33.035 619.914 Q32.3984 622.587 32.3984 625.452 Q32.3984 629.812 33.7352 632.009 Q35.072 634.173 37.7456 634.173 Q39.7826 634.173 40.9603 632.613 Q42.1061 631.054 43.1565 626.343 L43.6021 624.338 Q44.9389 618.1 47.3897 615.49 Q49.8086 612.848 54.1691 612.848 Q59.1344 612.848 62.0308 616.795 Q64.9272 620.709 64.9272 627.584 Q64.9272 630.449 64.3543 633.568 Q63.8132 636.656 62.6992 640.093 L56.6518 640.093 Q58.3387 636.847 59.198 633.696 Q60.0256 630.544 60.0256 627.457 Q60.0256 623.319 58.6251 621.091 Q57.1929 618.863 54.6147 618.863 Q52.2276 618.863 50.9545 620.487 Q49.6813 622.078 48.5037 627.521 L48.0262 629.558 Q46.8804 635 44.5251 637.419 Q42.138 639.838 38.0002 639.838 Q32.9713 639.838 30.2341 636.274 Q27.4968 632.709 27.4968 626.152 Q27.4968 622.906 27.9743 620.041 Q28.4517 617.177 29.4065 614.758 Z" fill="#000000" fill-rule="nonzero" fill-opacity="1"></path><path clip-path="url(#clip070)" d="M14.5426 568.733 Q21.8632 572.999 29.0246 575.067 Q36.186 577.136 43.5384 577.136 Q50.8908 577.136 58.1159 575.067 Q65.3091 572.967 72.5979 568.733 L72.5979 573.826 Q65.1182 578.6 57.8931 580.987 Q50.668 583.343 43.5384 583.343 Q36.4406 583.343 29.2474 580.987 Q22.0542 578.632 14.5426 573.826 L14.5426 568.733 Z" fill="#000000" fill-rule="nonzero" fill-opacity="1"></path><path clip-path="url(#clip070)" d="M14.479 557.371 L14.479 551.514 L64.0042 551.514 L64.0042 557.371 L14.479 557.371 Z" fill="#000000" fill-rule="nonzero" fill-opacity="1"></path><path clip-path="url(#clip070)" d="M32.4621 525.447 Q32.4621 530.157 36.1542 532.895 Q39.8145 535.632 46.212 535.632 Q52.6095 535.632 56.3017 532.926 Q59.9619 530.189 59.9619 525.447 Q59.9619 520.768 56.2698 518.031 Q52.5777 515.293 46.212 515.293 Q39.8781 515.293 36.186 518.031 Q32.4621 520.768 32.4621 525.447 M27.4968 525.447 Q27.4968 517.808 32.4621 513.447 Q37.4273 509.087 46.212 509.087 Q54.9649 509.087 59.9619 513.447 Q64.9272 517.808 64.9272 525.447 Q64.9272 533.117 59.9619 537.478 Q54.9649 541.807 46.212 541.807 Q37.4273 541.807 32.4621 537.478 Q27.4968 533.117 27.4968 525.447 Z" fill="#000000" fill-rule="nonzero" fill-opacity="1"></path><path clip-path="url(#clip070)" d="M45.7664 475.921 Q39.4007 475.921 35.8996 478.563 Q32.3984 481.173 32.3984 485.916 Q32.3984 490.626 35.8996 493.268 Q39.4007 495.878 45.7664 495.878 Q52.1003 495.878 55.6014 493.268 Q59.1026 490.626 59.1026 485.916 Q59.1026 481.173 55.6014 478.563 Q52.1003 475.921 45.7664 475.921 M59.58 470.065 Q68.683 470.065 73.1071 474.107 Q77.5631 478.149 77.5631 486.489 Q77.5631 489.576 77.0857 492.313 Q76.6401 495.05 75.6852 497.629 L69.9879 497.629 Q71.3884 495.05 72.0568 492.536 Q72.7252 490.022 72.7252 487.412 Q72.7252 481.651 69.7015 478.786 Q66.7096 475.921 60.6303 475.921 L57.7339 475.921 Q60.885 477.736 62.4446 480.568 Q64.0042 483.401 64.0042 487.348 Q64.0042 493.905 59.0071 497.915 Q54.01 501.925 45.7664 501.925 Q37.491 501.925 32.4939 497.915 Q27.4968 493.905 27.4968 487.348 Q27.4968 483.401 29.0564 480.568 Q30.616 477.736 33.7671 475.921 L28.3562 475.921 L28.3562 470.065 L59.58 470.065 Z" fill="#000000" fill-rule="nonzero" fill-opacity="1"></path><path clip-path="url(#clip070)" d="M29.4065 414.556 L34.9447 414.556 Q33.6716 417.039 33.035 419.712 Q32.3984 422.386 32.3984 425.25 Q32.3984 429.611 33.7352 431.807 Q35.072 433.971 37.7456 433.971 Q39.7826 433.971 40.9603 432.412 Q42.1061 430.852 43.1565 426.142 L43.6021 424.136 Q44.9389 417.898 47.3897 415.288 Q49.8086 412.646 54.1691 412.646 Q59.1344 412.646 62.0308 416.593 Q64.9272 420.508 64.9272 427.383 Q64.9272 430.248 64.3543 433.367 Q63.8132 436.454 62.6992 439.892 L56.6518 439.892 Q58.3387 436.645 59.198 433.494 Q60.0256 430.343 60.0256 427.256 Q60.0256 423.118 58.6251 420.89 Q57.1929 418.662 54.6147 418.662 Q52.2276 418.662 50.9545 420.285 Q49.6813 421.877 48.5037 427.319 L48.0262 429.356 Q46.8804 434.799 44.5251 437.218 Q42.138 439.637 38.0002 439.637 Q32.9713 439.637 30.2341 436.072 Q27.4968 432.507 27.4968 425.951 Q27.4968 422.704 27.9743 419.84 Q28.4517 416.975 29.4065 414.556 Z" fill="#000000" fill-rule="nonzero" fill-opacity="1"></path><path clip-path="url(#clip070)" d="M29.7248 377.667 L35.1993 377.667 Q33.8307 380.149 33.1623 382.664 Q32.4621 385.147 32.4621 387.693 Q32.4621 393.39 36.0905 396.541 Q39.6872 399.692 46.212 399.692 Q52.7369 399.692 56.3653 396.541 Q59.9619 393.39 59.9619 387.693 Q59.9619 385.147 59.2935 382.664 Q58.5933 380.149 57.2247 377.667 L62.6355 377.667 Q63.7814 380.118 64.3543 382.759 Q64.9272 385.369 64.9272 388.329 Q64.9272 396.382 59.8664 401.124 Q54.8057 405.867 46.212 405.867 Q37.491 405.867 32.4939 401.093 Q27.4968 396.286 27.4968 387.947 Q27.4968 385.242 28.0697 382.664 Q28.6108 380.086 29.7248 377.667 Z" fill="#000000" fill-rule="nonzero" fill-opacity="1"></path><path clip-path="url(#clip070)" d="M46.0847 351.281 Q46.0847 358.379 47.7079 361.116 Q49.3312 363.853 53.2461 363.853 Q56.3653 363.853 58.2114 361.816 Q60.0256 359.747 60.0256 356.214 Q60.0256 351.345 56.5881 348.416 Q53.1188 345.456 47.3897 345.456 L46.0847 345.456 L46.0847 351.281 M43.6657 339.6 L64.0042 339.6 L64.0042 345.456 L58.5933 345.456 Q61.8398 347.462 63.3994 350.453 Q64.9272 353.445 64.9272 357.774 Q64.9272 363.248 61.8716 366.495 Q58.7843 369.71 53.6281 369.71 Q47.6125 369.71 44.5569 365.699 Q41.5014 361.657 41.5014 353.668 L41.5014 345.456 L40.9285 345.456 Q36.8862 345.456 34.6901 348.13 Q32.4621 350.772 32.4621 355.578 Q32.4621 358.633 33.1941 361.53 Q33.9262 364.426 35.3903 367.1 L29.9795 367.1 Q28.7381 363.885 28.1334 360.861 Q27.4968 357.838 27.4968 354.973 Q27.4968 347.239 31.5072 343.419 Q35.5176 339.6 43.6657 339.6 Z" fill="#000000" fill-rule="nonzero" fill-opacity="1"></path><path clip-path="url(#clip070)" d="M14.479 327.537 L14.479 321.68 L64.0042 321.68 L64.0042 327.537 L14.479 327.537 Z" fill="#000000" fill-rule="nonzero" fill-opacity="1"></path><path clip-path="url(#clip070)" d="M44.7161 278.935 L47.5806 278.935 L47.5806 305.862 Q53.6281 305.48 56.8109 302.233 Q59.9619 298.955 59.9619 293.13 Q59.9619 289.756 59.1344 286.605 Q58.3069 283.423 56.6518 280.303 L62.1899 280.303 Q63.5267 283.454 64.227 286.765 Q64.9272 290.075 64.9272 293.48 Q64.9272 302.01 59.9619 307.007 Q54.9967 311.973 46.5303 311.973 Q37.7774 311.973 32.6531 307.262 Q27.4968 302.52 27.4968 294.499 Q27.4968 287.306 32.1438 283.136 Q36.7589 278.935 44.7161 278.935 M42.9973 284.791 Q38.1912 284.855 35.3266 287.497 Q32.4621 290.107 32.4621 294.435 Q32.4621 299.337 35.2312 302.297 Q38.0002 305.225 43.0292 305.671 L42.9973 284.791 Z" fill="#000000" fill-rule="nonzero" fill-opacity="1"></path><path clip-path="url(#clip070)" d="M14.5426 270.245 L14.5426 265.153 Q22.0542 260.379 29.2474 258.023 Q36.4406 255.636 43.5384 255.636 Q50.668 255.636 57.8931 258.023 Q65.1182 260.379 72.5979 265.153 L72.5979 270.245 Q65.3091 266.012 58.1159 263.943 Q50.8908 261.843 43.5384 261.843 Q36.186 261.843 29.0246 263.943 Q21.8632 266.012 14.5426 270.245 Z" fill="#000000" fill-rule="nonzero" fill-opacity="1"></path><path clip-path="url(#clip070)" d="M806.78 16.7545 L806.78 25.383 Q802.648 21.5346 797.949 19.6307 Q793.29 17.7268 788.024 17.7268 Q777.654 17.7268 772.144 24.0867 Q766.635 30.4061 766.635 42.3968 Q766.635 54.3469 772.144 60.7069 Q777.654 67.0263 788.024 67.0263 Q793.29 67.0263 797.949 65.1223 Q802.648 63.2184 806.78 59.3701 L806.78 67.9175 Q802.486 70.8341 797.665 72.2924 Q792.885 73.7508 787.538 73.7508 Q773.805 73.7508 765.906 65.3654 Q758.007 56.9395 758.007 42.3968 Q758.007 27.8135 765.906 19.4281 Q773.805 11.0023 787.538 11.0023 Q792.966 11.0023 797.746 12.4606 Q802.567 13.8784 806.78 16.7545 Z" fill="#000000" fill-rule="nonzero" fill-opacity="1"></path><path clip-path="url(#clip070)" d="M836.675 32.4315 Q830.68 32.4315 827.196 37.1306 Q823.712 41.7891 823.712 49.9314 Q823.712 58.0738 827.156 62.7728 Q830.639 67.4314 836.675 67.4314 Q842.63 67.4314 846.114 62.7323 Q849.598 58.0333 849.598 49.9314 Q849.598 41.8701 846.114 37.1711 Q842.63 32.4315 836.675 32.4315 M836.675 26.1121 Q846.397 26.1121 851.947 32.4315 Q857.497 38.7509 857.497 49.9314 Q857.497 61.0714 851.947 67.4314 Q846.397 73.7508 836.675 73.7508 Q826.913 73.7508 821.363 67.4314 Q815.854 61.0714 815.854 49.9314 Q815.854 38.7509 821.363 32.4315 Q826.913 26.1121 836.675 26.1121 Z" fill="#000000" fill-rule="nonzero" fill-opacity="1"></path><path clip-path="url(#clip070)" d="M907.566 45.1919 L907.566 72.576 L900.112 72.576 L900.112 45.4349 Q900.112 38.994 897.601 35.7938 Q895.089 32.5936 890.066 32.5936 Q884.03 32.5936 880.546 36.4419 Q877.063 40.2903 877.063 46.9338 L877.063 72.576 L869.569 72.576 L869.569 27.2059 L877.063 27.2059 L877.063 34.2544 Q879.736 30.163 883.342 28.1376 Q886.987 26.1121 891.727 26.1121 Q899.545 26.1121 903.556 30.9732 Q907.566 35.7938 907.566 45.1919 Z" fill="#000000" fill-rule="nonzero" fill-opacity="1"></path><path clip-path="url(#clip070)" d="M917.086 27.2059 L924.985 27.2059 L939.163 65.2844 L953.341 27.2059 L961.24 27.2059 L944.227 72.576 L934.099 72.576 L917.086 27.2059 Z" fill="#000000" fill-rule="nonzero" fill-opacity="1"></path><path clip-path="url(#clip070)" d="M1010.34 48.0275 L1010.34 51.6733 L976.067 51.6733 Q976.553 59.3701 980.685 63.421 Q984.857 67.4314 992.27 67.4314 Q996.564 67.4314 1000.57 66.3781 Q1004.63 65.3249 1008.6 63.2184 L1008.6 70.267 Q1004.59 71.9684 1000.37 72.8596 Q996.159 73.7508 991.825 73.7508 Q980.968 73.7508 974.608 67.4314 Q968.289 61.1119 968.289 50.3365 Q968.289 39.1965 974.284 32.6746 Q980.32 26.1121 990.529 26.1121 Q999.684 26.1121 1004.99 32.0264 Q1010.34 37.9003 1010.34 48.0275 M1002.88 45.84 Q1002.8 39.7232 999.441 36.0774 Q996.119 32.4315 990.61 32.4315 Q984.371 32.4315 980.604 35.9558 Q976.877 39.4801 976.31 45.8805 L1002.88 45.84 Z" fill="#000000" fill-rule="nonzero" fill-opacity="1"></path><path clip-path="url(#clip070)" d="M1048.86 34.1734 Q1047.61 33.4443 1046.11 33.1202 Q1044.65 32.7556 1042.87 32.7556 Q1036.55 32.7556 1033.14 36.8875 Q1029.78 40.9789 1029.78 48.6757 L1029.78 72.576 L1022.29 72.576 L1022.29 27.2059 L1029.78 27.2059 L1029.78 34.2544 Q1032.13 30.1225 1035.9 28.1376 Q1039.67 26.1121 1045.05 26.1121 Q1045.82 26.1121 1046.76 26.2337 Q1047.69 26.3147 1048.82 26.5172 L1048.86 34.1734 Z" fill="#000000" fill-rule="nonzero" fill-opacity="1"></path><path clip-path="url(#clip070)" d="M1085.08 49.3643 Q1085.08 41.2625 1081.71 36.8065 Q1078.39 32.3505 1072.36 32.3505 Q1066.36 32.3505 1063 36.8065 Q1059.68 41.2625 1059.68 49.3643 Q1059.68 57.4256 1063 61.8816 Q1066.36 66.3376 1072.36 66.3376 Q1078.39 66.3376 1081.71 61.8816 Q1085.08 57.4256 1085.08 49.3643 M1092.53 66.9452 Q1092.53 78.5308 1087.39 84.1616 Q1082.24 89.8329 1071.63 89.8329 Q1067.7 89.8329 1064.21 89.2252 Q1060.73 88.6581 1057.45 87.4428 L1057.45 80.1917 Q1060.73 81.9741 1063.93 82.8248 Q1067.13 83.6755 1070.45 83.6755 Q1077.79 83.6755 1081.43 79.8271 Q1085.08 76.0193 1085.08 68.282 L1085.08 64.5957 Q1082.77 68.6061 1079.16 70.5911 Q1075.56 72.576 1070.53 72.576 Q1062.19 72.576 1057.08 66.2161 Q1051.98 59.8562 1051.98 49.3643 Q1051.98 38.832 1057.08 32.472 Q1062.19 26.1121 1070.53 26.1121 Q1075.56 26.1121 1079.16 28.0971 Q1082.77 30.082 1085.08 34.0924 L1085.08 27.2059 L1092.53 27.2059 L1092.53 66.9452 Z" fill="#000000" fill-rule="nonzero" fill-opacity="1"></path><path clip-path="url(#clip070)" d="M1146.69 48.0275 L1146.69 51.6733 L1112.42 51.6733 Q1112.91 59.3701 1117.04 63.421 Q1121.21 67.4314 1128.62 67.4314 Q1132.92 67.4314 1136.93 66.3781 Q1140.98 65.3249 1144.95 63.2184 L1144.95 70.267 Q1140.94 71.9684 1136.73 72.8596 Q1132.51 73.7508 1128.18 73.7508 Q1117.32 73.7508 1110.96 67.4314 Q1104.64 61.1119 1104.64 50.3365 Q1104.64 39.1965 1110.64 32.6746 Q1116.67 26.1121 1126.88 26.1121 Q1136.04 26.1121 1141.34 32.0264 Q1146.69 37.9003 1146.69 48.0275 M1139.24 45.84 Q1139.16 39.7232 1135.79 36.0774 Q1132.47 32.4315 1126.96 32.4315 Q1120.72 32.4315 1116.96 35.9558 Q1113.23 39.4801 1112.66 45.8805 L1139.24 45.84 Z" fill="#000000" fill-rule="nonzero" fill-opacity="1"></path><path clip-path="url(#clip070)" d="M1196.64 45.1919 L1196.64 72.576 L1189.18 72.576 L1189.18 45.4349 Q1189.18 38.994 1186.67 35.7938 Q1184.16 32.5936 1179.14 32.5936 Q1173.1 32.5936 1169.62 36.4419 Q1166.14 40.2903 1166.14 46.9338 L1166.14 72.576 L1158.64 72.576 L1158.64 27.2059 L1166.14 27.2059 L1166.14 34.2544 Q1168.81 30.163 1172.41 28.1376 Q1176.06 26.1121 1180.8 26.1121 Q1188.62 26.1121 1192.63 30.9732 Q1196.64 35.7938 1196.64 45.1919 Z" fill="#000000" fill-rule="nonzero" fill-opacity="1"></path><path clip-path="url(#clip070)" d="M1244.16 28.9478 L1244.16 35.9153 Q1241 34.1734 1237.8 33.3227 Q1234.64 32.4315 1231.4 32.4315 Q1224.14 32.4315 1220.13 37.0496 Q1216.12 41.6271 1216.12 49.9314 Q1216.12 58.2358 1220.13 62.8538 Q1224.14 67.4314 1231.4 67.4314 Q1234.64 67.4314 1237.8 66.5807 Q1241 65.6895 1244.16 63.9476 L1244.16 70.8341 Q1241.04 72.2924 1237.67 73.0216 Q1234.35 73.7508 1230.59 73.7508 Q1220.34 73.7508 1214.3 67.3098 Q1208.26 60.8689 1208.26 49.9314 Q1208.26 38.832 1214.34 32.472 Q1220.46 26.1121 1231.07 26.1121 Q1234.51 26.1121 1237.8 26.8413 Q1241.08 27.5299 1244.16 28.9478 Z" fill="#000000" fill-rule="nonzero" fill-opacity="1"></path><path clip-path="url(#clip070)" d="M1295.93 48.0275 L1295.93 51.6733 L1261.66 51.6733 Q1262.14 59.3701 1266.27 63.421 Q1270.45 67.4314 1277.86 67.4314 Q1282.15 67.4314 1286.16 66.3781 Q1290.21 65.3249 1294.18 63.2184 L1294.18 70.267 Q1290.17 71.9684 1285.96 72.8596 Q1281.75 73.7508 1277.41 73.7508 Q1266.56 73.7508 1260.2 67.4314 Q1253.88 61.1119 1253.88 50.3365 Q1253.88 39.1965 1259.87 32.6746 Q1265.91 26.1121 1276.12 26.1121 Q1285.27 26.1121 1290.58 32.0264 Q1295.93 37.9003 1295.93 48.0275 M1288.47 45.84 Q1288.39 39.7232 1285.03 36.0774 Q1281.71 32.4315 1276.2 32.4315 Q1269.96 32.4315 1266.19 35.9558 Q1262.47 39.4801 1261.9 45.8805 L1288.47 45.84 Z" fill="#000000" fill-rule="nonzero" fill-opacity="1"></path><path clip-path="url(#clip070)" d="M1380.14 16.7545 L1380.14 25.383 Q1376.01 21.5346 1371.31 19.6307 Q1366.65 17.7268 1361.39 17.7268 Q1351.02 17.7268 1345.51 24.0867 Q1340 30.4061 1340 42.3968 Q1340 54.3469 1345.51 60.7069 Q1351.02 67.0263 1361.39 67.0263 Q1366.65 67.0263 1371.31 65.1223 Q1376.01 63.2184 1380.14 59.3701 L1380.14 67.9175 Q1375.85 70.8341 1371.03 72.2924 Q1366.25 73.7508 1360.9 73.7508 Q1347.17 73.7508 1339.27 65.3654 Q1331.37 56.9395 1331.37 42.3968 Q1331.37 27.8135 1339.27 19.4281 Q1347.17 11.0023 1360.9 11.0023 Q1366.33 11.0023 1371.11 12.4606 Q1375.93 13.8784 1380.14 16.7545 Z" fill="#000000" fill-rule="nonzero" fill-opacity="1"></path><path clip-path="url(#clip070)" d="M1410.04 32.4315 Q1404.04 32.4315 1400.56 37.1306 Q1397.08 41.7891 1397.08 49.9314 Q1397.08 58.0738 1400.52 62.7728 Q1404 67.4314 1410.04 67.4314 Q1415.99 67.4314 1419.48 62.7323 Q1422.96 58.0333 1422.96 49.9314 Q1422.96 41.8701 1419.48 37.1711 Q1415.99 32.4315 1410.04 32.4315 M1410.04 26.1121 Q1419.76 26.1121 1425.31 32.4315 Q1430.86 38.7509 1430.86 49.9314 Q1430.86 61.0714 1425.31 67.4314 Q1419.76 73.7508 1410.04 73.7508 Q1400.28 73.7508 1394.73 67.4314 Q1389.22 61.0714 1389.22 49.9314 Q1389.22 38.7509 1394.73 32.4315 Q1400.28 26.1121 1410.04 26.1121 Z" fill="#000000" fill-rule="nonzero" fill-opacity="1"></path><path clip-path="url(#clip070)" d="M1478.54 35.9153 Q1481.34 30.8922 1485.22 28.5022 Q1489.11 26.1121 1494.38 26.1121 Q1501.47 26.1121 1505.32 31.0947 Q1509.17 36.0368 1509.17 45.1919 L1509.17 72.576 L1501.67 72.576 L1501.67 45.4349 Q1501.67 38.913 1499.36 35.7533 Q1497.05 32.5936 1492.31 32.5936 Q1486.52 32.5936 1483.16 36.4419 Q1479.8 40.2903 1479.8 46.9338 L1479.8 72.576 L1472.3 72.576 L1472.3 45.4349 Q1472.3 38.8725 1469.99 35.7533 Q1467.68 32.5936 1462.86 32.5936 Q1457.15 32.5936 1453.79 36.4824 Q1450.43 40.3308 1450.43 46.9338 L1450.43 72.576 L1442.93 72.576 L1442.93 27.2059 L1450.43 27.2059 L1450.43 34.2544 Q1452.98 30.082 1456.54 28.0971 Q1460.11 26.1121 1465.01 26.1121 Q1469.95 26.1121 1473.4 28.6237 Q1476.88 31.1352 1478.54 35.9153 Z" fill="#000000" fill-rule="nonzero" fill-opacity="1"></path><path clip-path="url(#clip070)" d="M1531.24 65.7705 L1531.24 89.8329 L1523.75 89.8329 L1523.75 27.2059 L1531.24 27.2059 L1531.24 34.0924 Q1533.59 30.0415 1537.16 28.0971 Q1540.76 26.1121 1545.75 26.1121 Q1554.01 26.1121 1559.15 32.6746 Q1564.34 39.2371 1564.34 49.9314 Q1564.34 60.6258 1559.15 67.1883 Q1554.01 73.7508 1545.75 73.7508 Q1540.76 73.7508 1537.16 71.8063 Q1533.59 69.8214 1531.24 65.7705 M1556.6 49.9314 Q1556.6 41.7081 1553.2 37.0496 Q1549.84 32.3505 1543.92 32.3505 Q1538.01 32.3505 1534.61 37.0496 Q1531.24 41.7081 1531.24 49.9314 Q1531.24 58.1548 1534.61 62.8538 Q1538.01 67.5124 1543.92 67.5124 Q1549.84 67.5124 1553.2 62.8538 Q1556.6 58.1548 1556.6 49.9314 Z" fill="#000000" fill-rule="nonzero" fill-opacity="1"></path><path clip-path="url(#clip070)" d="M1597.31 49.7694 Q1588.28 49.7694 1584.8 51.8354 Q1581.31 53.9013 1581.31 58.8839 Q1581.31 62.8538 1583.9 65.2034 Q1586.54 67.5124 1591.03 67.5124 Q1597.23 67.5124 1600.96 63.1374 Q1604.73 58.7219 1604.73 51.4303 L1604.73 49.7694 L1597.31 49.7694 M1612.18 46.6907 L1612.18 72.576 L1604.73 72.576 L1604.73 65.6895 Q1602.17 69.8214 1598.37 71.8063 Q1594.56 73.7508 1589.05 73.7508 Q1582.08 73.7508 1577.95 69.8619 Q1573.86 65.9325 1573.86 59.3701 Q1573.86 51.7138 1578.96 47.825 Q1584.11 43.9361 1594.28 43.9361 L1604.73 43.9361 L1604.73 43.2069 Q1604.73 38.0623 1601.32 35.2672 Q1597.96 32.4315 1591.84 32.4315 Q1587.96 32.4315 1584.27 33.3632 Q1580.58 34.295 1577.18 36.1584 L1577.18 29.2718 Q1581.27 27.692 1585.12 26.9223 Q1588.97 26.1121 1592.61 26.1121 Q1602.46 26.1121 1607.32 31.2163 Q1612.18 36.3204 1612.18 46.6907 Z" fill="#000000" fill-rule="nonzero" fill-opacity="1"></path><path clip-path="url(#clip070)" d="M1653.82 34.1734 Q1652.57 33.4443 1651.07 33.1202 Q1649.61 32.7556 1647.83 32.7556 Q1641.51 32.7556 1638.11 36.8875 Q1634.74 40.9789 1634.74 48.6757 L1634.74 72.576 L1627.25 72.576 L1627.25 27.2059 L1634.74 27.2059 L1634.74 34.2544 Q1637.09 30.1225 1640.86 28.1376 Q1644.63 26.1121 1650.02 26.1121 Q1650.79 26.1121 1651.72 26.2337 Q1652.65 26.3147 1653.78 26.5172 L1653.82 34.1734 Z" fill="#000000" fill-rule="nonzero" fill-opacity="1"></path><path clip-path="url(#clip070)" d="M1661.64 27.2059 L1669.1 27.2059 L1669.1 72.576 L1661.64 72.576 L1661.64 27.2059 M1661.64 9.54393 L1669.1 9.54393 L1669.1 18.9825 L1661.64 18.9825 L1661.64 9.54393 Z" fill="#000000" fill-rule="nonzero" fill-opacity="1"></path><path clip-path="url(#clip070)" d="M1713.61 28.5427 L1713.61 35.5912 Q1710.46 33.9709 1707.05 33.1607 Q1703.65 32.3505 1700 32.3505 Q1694.45 32.3505 1691.66 34.0519 Q1688.9 35.7533 1688.9 39.156 Q1688.9 41.7486 1690.89 43.2475 Q1692.87 44.7058 1698.87 46.0426 L1701.42 46.6097 Q1709.36 48.3111 1712.68 51.4303 Q1716.05 54.509 1716.05 60.0587 Q1716.05 66.3781 1711.02 70.0644 Q1706.04 73.7508 1697.29 73.7508 Q1693.64 73.7508 1689.67 73.0216 Q1685.74 72.3329 1681.37 70.9151 L1681.37 63.2184 Q1685.5 65.3654 1689.51 66.4591 Q1693.52 67.5124 1697.45 67.5124 Q1702.72 67.5124 1705.55 65.73 Q1708.39 63.9071 1708.39 60.6258 Q1708.39 57.5877 1706.32 55.9673 Q1704.3 54.3469 1697.37 52.8481 L1694.78 52.2405 Q1687.85 50.7821 1684.77 47.7845 Q1681.69 44.7463 1681.69 39.4801 Q1681.69 33.0797 1686.23 29.5959 Q1690.77 26.1121 1699.11 26.1121 Q1703.24 26.1121 1706.89 26.7198 Q1710.54 27.3274 1713.61 28.5427 Z" fill="#000000" fill-rule="nonzero" fill-opacity="1"></path><path clip-path="url(#clip070)" d="M1745.5 32.4315 Q1739.5 32.4315 1736.02 37.1306 Q1732.53 41.7891 1732.53 49.9314 Q1732.53 58.0738 1735.98 62.7728 Q1739.46 67.4314 1745.5 67.4314 Q1751.45 67.4314 1754.93 62.7323 Q1758.42 58.0333 1758.42 49.9314 Q1758.42 41.8701 1754.93 37.1711 Q1751.45 32.4315 1745.5 32.4315 M1745.5 26.1121 Q1755.22 26.1121 1760.77 32.4315 Q1766.32 38.7509 1766.32 49.9314 Q1766.32 61.0714 1760.77 67.4314 Q1755.22 73.7508 1745.5 73.7508 Q1735.73 73.7508 1730.18 67.4314 Q1724.67 61.0714 1724.67 49.9314 Q1724.67 38.7509 1730.18 32.4315 Q1735.73 26.1121 1745.5 26.1121 Z" fill="#000000" fill-rule="nonzero" fill-opacity="1"></path><path clip-path="url(#clip070)" d="M1816.39 45.1919 L1816.39 72.576 L1808.93 72.576 L1808.93 45.4349 Q1808.93 38.994 1806.42 35.7938 Q1803.91 32.5936 1798.89 32.5936 Q1792.85 32.5936 1789.37 36.4419 Q1785.88 40.2903 1785.88 46.9338 L1785.88 72.576 L1778.39 72.576 L1778.39 27.2059 L1785.88 27.2059 L1785.88 34.2544 Q1788.56 30.163 1792.16 28.1376 Q1795.81 26.1121 1800.55 26.1121 Q1808.37 26.1121 1812.38 30.9732 Q1816.39 35.7938 1816.39 45.1919 Z" fill="#000000" fill-rule="nonzero" fill-opacity="1"></path><polyline clip-path="url(#clip072)" style="stroke:#0000ff; stroke-linecap:round; stroke-linejoin:round; stroke-width:8; stroke-opacity:1; fill:none" points="281.952,1374.46 533.263,1058.43 784.574,1026.77 1035.89,865.946 1287.2,718.221 1538.51,575.819 1789.82,435.759 2041.13,297.207 2292.44,159.909 "></polyline>
<circle clip-path="url(#clip072)" cx="281.952" cy="1374.46" r="14.4" fill="#0000ff" fill-rule="evenodd" fill-opacity="1" stroke="#000000" stroke-opacity="1" stroke-width="3.2"></circle>
<circle clip-path="url(#clip072)" cx="533.263" cy="1058.43" r="14.4" fill="#0000ff" fill-rule="evenodd" fill-opacity="1" stroke="#000000" stroke-opacity="1" stroke-width="3.2"></circle>
<circle clip-path="url(#clip072)" cx="784.574" cy="1026.77" r="14.4" fill="#0000ff" fill-rule="evenodd" fill-opacity="1" stroke="#000000" stroke-opacity="1" stroke-width="3.2"></circle>
<circle clip-path="url(#clip072)" cx="1035.89" cy="865.946" r="14.4" fill="#0000ff" fill-rule="evenodd" fill-opacity="1" stroke="#000000" stroke-opacity="1" stroke-width="3.2"></circle>
<circle clip-path="url(#clip072)" cx="1287.2" cy="718.221" r="14.4" fill="#0000ff" fill-rule="evenodd" fill-opacity="1" stroke="#000000" stroke-opacity="1" stroke-width="3.2"></circle>
<circle clip-path="url(#clip072)" cx="1538.51" cy="575.819" r="14.4" fill="#0000ff" fill-rule="evenodd" fill-opacity="1" stroke="#000000" stroke-opacity="1" stroke-width="3.2"></circle>
<circle clip-path="url(#clip072)" cx="1789.82" cy="435.759" r="14.4" fill="#0000ff" fill-rule="evenodd" fill-opacity="1" stroke="#000000" stroke-opacity="1" stroke-width="3.2"></circle>
<circle clip-path="url(#clip072)" cx="2041.13" cy="297.207" r="14.4" fill="#0000ff" fill-rule="evenodd" fill-opacity="1" stroke="#000000" stroke-opacity="1" stroke-width="3.2"></circle>
<circle clip-path="url(#clip072)" cx="2292.44" cy="159.909" r="14.4" fill="#0000ff" fill-rule="evenodd" fill-opacity="1" stroke="#000000" stroke-opacity="1" stroke-width="3.2"></circle>
<polyline clip-path="url(#clip072)" style="stroke:#ff0000; stroke-linecap:round; stroke-linejoin:round; stroke-width:8; stroke-opacity:1; fill:none" points="281.952,1374.46 533.263,1131.55 784.574,980.156 1035.89,852.393 1287.2,745.878 1538.51,627.378 1789.82,497.316 2041.13,361.219 2292.44,223.599 "></polyline>
<path clip-path="url(#clip072)" d="M265.952 1358.46 L265.952 1390.46 L297.952 1390.46 L297.952 1358.46 L265.952 1358.46 Z" fill="#ff0000" fill-rule="evenodd" fill-opacity="1" stroke="#000000" stroke-opacity="1" stroke-width="3.2"></path>
<path clip-path="url(#clip072)" d="M517.263 1115.55 L517.263 1147.55 L549.263 1147.55 L549.263 1115.55 L517.263 1115.55 Z" fill="#ff0000" fill-rule="evenodd" fill-opacity="1" stroke="#000000" stroke-opacity="1" stroke-width="3.2"></path>
<path clip-path="url(#clip072)" d="M768.574 964.156 L768.574 996.156 L800.574 996.156 L800.574 964.156 L768.574 964.156 Z" fill="#ff0000" fill-rule="evenodd" fill-opacity="1" stroke="#000000" stroke-opacity="1" stroke-width="3.2"></path>
<path clip-path="url(#clip072)" d="M1019.89 836.393 L1019.89 868.393 L1051.89 868.393 L1051.89 836.393 L1019.89 836.393 Z" fill="#ff0000" fill-rule="evenodd" fill-opacity="1" stroke="#000000" stroke-opacity="1" stroke-width="3.2"></path>
<path clip-path="url(#clip072)" d="M1271.2 729.878 L1271.2 761.878 L1303.2 761.878 L1303.2 729.878 L1271.2 729.878 Z" fill="#ff0000" fill-rule="evenodd" fill-opacity="1" stroke="#000000" stroke-opacity="1" stroke-width="3.2"></path>
<path clip-path="url(#clip072)" d="M1522.51 611.378 L1522.51 643.378 L1554.51 643.378 L1554.51 611.378 L1522.51 611.378 Z" fill="#ff0000" fill-rule="evenodd" fill-opacity="1" stroke="#000000" stroke-opacity="1" stroke-width="3.2"></path>
<path clip-path="url(#clip072)" d="M1773.82 481.316 L1773.82 513.316 L1805.82 513.316 L1805.82 481.316 L1773.82 481.316 Z" fill="#ff0000" fill-rule="evenodd" fill-opacity="1" stroke="#000000" stroke-opacity="1" stroke-width="3.2"></path>
<path clip-path="url(#clip072)" d="M2025.13 345.219 L2025.13 377.219 L2057.13 377.219 L2057.13 345.219 L2025.13 345.219 Z" fill="#ff0000" fill-rule="evenodd" fill-opacity="1" stroke="#000000" stroke-opacity="1" stroke-width="3.2"></path>
<path clip-path="url(#clip072)" d="M2276.44 207.599 L2276.44 239.599 L2308.44 239.599 L2308.44 207.599 L2276.44 207.599 Z" fill="#ff0000" fill-rule="evenodd" fill-opacity="1" stroke="#000000" stroke-opacity="1" stroke-width="3.2"></path>
<path clip-path="url(#clip070)" d="M1526.34 1367.98 L2281.72 1367.98 L2281.72 1212.46 L1526.34 1212.46  Z" fill="#ffffff" fill-rule="evenodd" fill-opacity="1"></path>
<polyline clip-path="url(#clip070)" style="stroke:#000000; stroke-linecap:round; stroke-linejoin:round; stroke-width:4; stroke-opacity:1; fill:none" points="1526.34,1367.98 2281.72,1367.98 2281.72,1212.46 1526.34,1212.46 1526.34,1367.98 "></polyline>
<polyline clip-path="url(#clip070)" style="stroke:#0000ff; stroke-linecap:round; stroke-linejoin:round; stroke-width:8; stroke-opacity:1; fill:none" points="1550.02,1264.3 1692.09,1264.3 "></polyline>
<circle clip-path="url(#clip070)" cx="1621.06" cy="1264.3" r="19.7326" fill="#0000ff" fill-rule="evenodd" fill-opacity="1" stroke="#000000" stroke-opacity="1" stroke-width="4.55111"></circle>
<path clip-path="url(#clip070)" d="M1722.88 1247.02 L1727.56 1247.02 L1727.56 1279.18 Q1727.56 1285.43 1725.17 1288.25 Q1722.81 1291.07 1717.56 1291.07 L1715.77 1291.07 L1715.77 1287.14 L1717.23 1287.14 Q1720.33 1287.14 1721.61 1285.4 Q1722.88 1283.67 1722.88 1279.18 L1722.88 1247.02 Z" fill="#000000" fill-rule="nonzero" fill-opacity="1"></path><path clip-path="url(#clip070)" d="M1748.46 1268.55 Q1743.3 1268.55 1741.31 1269.73 Q1739.32 1270.91 1739.32 1273.76 Q1739.32 1276.03 1740.8 1277.37 Q1742.3 1278.69 1744.87 1278.69 Q1748.41 1278.69 1750.54 1276.19 Q1752.69 1273.67 1752.69 1269.5 L1752.69 1268.55 L1748.46 1268.55 M1756.95 1266.79 L1756.95 1281.58 L1752.69 1281.58 L1752.69 1277.65 Q1751.24 1280.01 1749.06 1281.14 Q1746.88 1282.25 1743.74 1282.25 Q1739.76 1282.25 1737.39 1280.03 Q1735.06 1277.79 1735.06 1274.04 Q1735.06 1269.66 1737.97 1267.44 Q1740.91 1265.22 1746.72 1265.22 L1752.69 1265.22 L1752.69 1264.8 Q1752.69 1261.86 1750.75 1260.26 Q1748.83 1258.64 1745.33 1258.64 Q1743.11 1258.64 1741.01 1259.18 Q1738.9 1259.71 1736.95 1260.77 L1736.95 1256.84 Q1739.29 1255.93 1741.49 1255.49 Q1743.69 1255.03 1745.77 1255.03 Q1751.4 1255.03 1754.18 1257.95 Q1756.95 1260.87 1756.95 1266.79 Z" fill="#000000" fill-rule="nonzero" fill-opacity="1"></path><path clip-path="url(#clip070)" d="M1784.38 1256.65 L1784.38 1260.63 Q1782.58 1259.64 1780.75 1259.15 Q1778.94 1258.64 1777.09 1258.64 Q1772.95 1258.64 1770.66 1261.28 Q1768.37 1263.9 1768.37 1268.64 Q1768.37 1273.39 1770.66 1276.03 Q1772.95 1278.64 1777.09 1278.64 Q1778.94 1278.64 1780.75 1278.16 Q1782.58 1277.65 1784.38 1276.65 L1784.38 1280.59 Q1782.6 1281.42 1780.68 1281.84 Q1778.78 1282.25 1776.63 1282.25 Q1770.77 1282.25 1767.32 1278.57 Q1763.88 1274.89 1763.88 1268.64 Q1763.88 1262.3 1767.35 1258.67 Q1770.84 1255.03 1776.91 1255.03 Q1778.88 1255.03 1780.75 1255.45 Q1782.63 1255.84 1784.38 1256.65 Z" fill="#000000" fill-rule="nonzero" fill-opacity="1"></path><path clip-path="url(#clip070)" d="M1801.84 1258.64 Q1798.41 1258.64 1796.42 1261.33 Q1794.43 1263.99 1794.43 1268.64 Q1794.43 1273.3 1796.4 1275.98 Q1798.39 1278.64 1801.84 1278.64 Q1805.24 1278.64 1807.23 1275.96 Q1809.22 1273.27 1809.22 1268.64 Q1809.22 1264.04 1807.23 1261.35 Q1805.24 1258.64 1801.84 1258.64 M1801.84 1255.03 Q1807.39 1255.03 1810.57 1258.64 Q1813.74 1262.25 1813.74 1268.64 Q1813.74 1275.01 1810.57 1278.64 Q1807.39 1282.25 1801.84 1282.25 Q1796.26 1282.25 1793.09 1278.64 Q1789.94 1275.01 1789.94 1268.64 Q1789.94 1262.25 1793.09 1258.64 Q1796.26 1255.03 1801.84 1255.03 Z" fill="#000000" fill-rule="nonzero" fill-opacity="1"></path><path clip-path="url(#clip070)" d="M1839.41 1268.64 Q1839.41 1263.94 1837.46 1261.28 Q1835.54 1258.6 1832.16 1258.6 Q1828.78 1258.6 1826.84 1261.28 Q1824.92 1263.94 1824.92 1268.64 Q1824.92 1273.34 1826.84 1276.03 Q1828.78 1278.69 1832.16 1278.69 Q1835.54 1278.69 1837.46 1276.03 Q1839.41 1273.34 1839.41 1268.64 M1824.92 1259.59 Q1826.26 1257.28 1828.3 1256.17 Q1830.36 1255.03 1833.2 1255.03 Q1837.93 1255.03 1840.87 1258.78 Q1843.83 1262.53 1843.83 1268.64 Q1843.83 1274.75 1840.87 1278.5 Q1837.93 1282.25 1833.2 1282.25 Q1830.36 1282.25 1828.3 1281.14 Q1826.26 1280.01 1824.92 1277.69 L1824.92 1281.58 L1820.63 1281.58 L1820.63 1245.56 L1824.92 1245.56 L1824.92 1259.59 Z" fill="#000000" fill-rule="nonzero" fill-opacity="1"></path><path clip-path="url(#clip070)" d="M1850.89 1255.66 L1855.15 1255.66 L1855.15 1281.58 L1850.89 1281.58 L1850.89 1255.66 M1850.89 1245.56 L1855.15 1245.56 L1855.15 1250.96 L1850.89 1250.96 L1850.89 1245.56 Z" fill="#000000" fill-rule="nonzero" fill-opacity="1"></path><path clip-path="url(#clip070)" d="M1879.13 1255.66 L1883.39 1255.66 L1883.39 1281.58 L1879.13 1281.58 L1879.13 1255.66 M1879.13 1245.56 L1883.39 1245.56 L1883.39 1250.96 L1879.13 1250.96 L1879.13 1245.56 Z" fill="#000000" fill-rule="nonzero" fill-opacity="1"></path><path clip-path="url(#clip070)" d="M1896.51 1248.3 L1896.51 1255.66 L1905.29 1255.66 L1905.29 1258.97 L1896.51 1258.97 L1896.51 1273.04 Q1896.51 1276.21 1897.37 1277.11 Q1898.25 1278.02 1900.91 1278.02 L1905.29 1278.02 L1905.29 1281.58 L1900.91 1281.58 Q1895.98 1281.58 1894.11 1279.75 Q1892.23 1277.9 1892.23 1273.04 L1892.23 1258.97 L1889.11 1258.97 L1889.11 1255.66 L1892.23 1255.66 L1892.23 1248.3 L1896.51 1248.3 Z" fill="#000000" fill-rule="nonzero" fill-opacity="1"></path><path clip-path="url(#clip070)" d="M1933.06 1267.55 L1933.06 1269.64 L1913.48 1269.64 Q1913.76 1274.04 1916.12 1276.35 Q1918.5 1278.64 1922.74 1278.64 Q1925.19 1278.64 1927.49 1278.04 Q1929.8 1277.44 1932.07 1276.24 L1932.07 1280.26 Q1929.78 1281.24 1927.37 1281.74 Q1924.96 1282.25 1922.49 1282.25 Q1916.28 1282.25 1912.65 1278.64 Q1909.04 1275.03 1909.04 1268.87 Q1909.04 1262.51 1912.46 1258.78 Q1915.91 1255.03 1921.75 1255.03 Q1926.98 1255.03 1930.01 1258.41 Q1933.06 1261.77 1933.06 1267.55 M1928.81 1266.3 Q1928.76 1262.81 1926.84 1260.73 Q1924.94 1258.64 1921.79 1258.64 Q1918.23 1258.64 1916.07 1260.66 Q1913.94 1262.67 1913.62 1266.33 L1928.81 1266.3 Z" fill="#000000" fill-rule="nonzero" fill-opacity="1"></path><path clip-path="url(#clip070)" d="M1955.08 1259.64 Q1954.36 1259.22 1953.5 1259.04 Q1952.67 1258.83 1951.65 1258.83 Q1948.04 1258.83 1946.1 1261.19 Q1944.18 1263.53 1944.18 1267.93 L1944.18 1281.58 L1939.89 1281.58 L1939.89 1255.66 L1944.18 1255.66 L1944.18 1259.68 Q1945.52 1257.32 1947.67 1256.19 Q1949.82 1255.03 1952.9 1255.03 Q1953.34 1255.03 1953.87 1255.1 Q1954.41 1255.15 1955.06 1255.26 L1955.08 1259.64 Z" fill="#000000" fill-rule="nonzero" fill-opacity="1"></path><path clip-path="url(#clip070)" d="M1971.33 1268.55 Q1966.17 1268.55 1964.18 1269.73 Q1962.18 1270.91 1962.18 1273.76 Q1962.18 1276.03 1963.67 1277.37 Q1965.17 1278.69 1967.74 1278.69 Q1971.28 1278.69 1973.41 1276.19 Q1975.56 1273.67 1975.56 1269.5 L1975.56 1268.55 L1971.33 1268.55 M1979.82 1266.79 L1979.82 1281.58 L1975.56 1281.58 L1975.56 1277.65 Q1974.11 1280.01 1971.93 1281.14 Q1969.75 1282.25 1966.61 1282.25 Q1962.62 1282.25 1960.26 1280.03 Q1957.93 1277.79 1957.93 1274.04 Q1957.93 1269.66 1960.84 1267.44 Q1963.78 1265.22 1969.59 1265.22 L1975.56 1265.22 L1975.56 1264.8 Q1975.56 1261.86 1973.62 1260.26 Q1971.7 1258.64 1968.2 1258.64 Q1965.98 1258.64 1963.87 1259.18 Q1961.77 1259.71 1959.82 1260.77 L1959.82 1256.84 Q1962.16 1255.93 1964.36 1255.49 Q1966.56 1255.03 1968.64 1255.03 Q1974.27 1255.03 1977.05 1257.95 Q1979.82 1260.87 1979.82 1266.79 Z" fill="#000000" fill-rule="nonzero" fill-opacity="1"></path><path clip-path="url(#clip070)" d="M1992.81 1248.3 L1992.81 1255.66 L2001.58 1255.66 L2001.58 1258.97 L1992.81 1258.97 L1992.81 1273.04 Q1992.81 1276.21 1993.67 1277.11 Q1994.55 1278.02 1997.21 1278.02 L2001.58 1278.02 L2001.58 1281.58 L1997.21 1281.58 Q1992.28 1281.58 1990.4 1279.75 Q1988.53 1277.9 1988.53 1273.04 L1988.53 1258.97 L1985.4 1258.97 L1985.4 1255.66 L1988.53 1255.66 L1988.53 1248.3 L1992.81 1248.3 Z" fill="#000000" fill-rule="nonzero" fill-opacity="1"></path><path clip-path="url(#clip070)" d="M2007.18 1255.66 L2011.44 1255.66 L2011.44 1281.58 L2007.18 1281.58 L2007.18 1255.66 M2007.18 1245.56 L2011.44 1245.56 L2011.44 1250.96 L2007.18 1250.96 L2007.18 1245.56 Z" fill="#000000" fill-rule="nonzero" fill-opacity="1"></path><path clip-path="url(#clip070)" d="M2030.4 1258.64 Q2026.98 1258.64 2024.99 1261.33 Q2022.99 1263.99 2022.99 1268.64 Q2022.99 1273.3 2024.96 1275.98 Q2026.95 1278.64 2030.4 1278.64 Q2033.8 1278.64 2035.8 1275.96 Q2037.79 1273.27 2037.79 1268.64 Q2037.79 1264.04 2035.8 1261.35 Q2033.8 1258.64 2030.4 1258.64 M2030.4 1255.03 Q2035.96 1255.03 2039.13 1258.64 Q2042.3 1262.25 2042.3 1268.64 Q2042.3 1275.01 2039.13 1278.64 Q2035.96 1282.25 2030.4 1282.25 Q2024.82 1282.25 2021.65 1278.64 Q2018.5 1275.01 2018.5 1268.64 Q2018.5 1262.25 2021.65 1258.64 Q2024.82 1255.03 2030.4 1255.03 Z" fill="#000000" fill-rule="nonzero" fill-opacity="1"></path><path clip-path="url(#clip070)" d="M2070.91 1265.93 L2070.91 1281.58 L2066.65 1281.58 L2066.65 1266.07 Q2066.65 1262.39 2065.22 1260.56 Q2063.78 1258.74 2060.91 1258.74 Q2057.46 1258.74 2055.47 1260.93 Q2053.48 1263.13 2053.48 1266.93 L2053.48 1281.58 L2049.2 1281.58 L2049.2 1255.66 L2053.48 1255.66 L2053.48 1259.68 Q2055.01 1257.35 2057.07 1256.19 Q2059.15 1255.03 2061.86 1255.03 Q2066.33 1255.03 2068.62 1257.81 Q2070.91 1260.56 2070.91 1265.93 Z" fill="#000000" fill-rule="nonzero" fill-opacity="1"></path><path clip-path="url(#clip070)" d="M2095.93 1256.42 L2095.93 1260.45 Q2094.13 1259.52 2092.18 1259.06 Q2090.24 1258.6 2088.16 1258.6 Q2084.98 1258.6 2083.39 1259.57 Q2081.81 1260.54 2081.81 1262.49 Q2081.81 1263.97 2082.95 1264.82 Q2084.08 1265.66 2087.51 1266.42 L2088.97 1266.74 Q2093.5 1267.72 2095.4 1269.5 Q2097.32 1271.26 2097.32 1274.43 Q2097.32 1278.04 2094.45 1280.15 Q2091.61 1282.25 2086.61 1282.25 Q2084.52 1282.25 2082.25 1281.84 Q2080.01 1281.44 2077.51 1280.63 L2077.51 1276.24 Q2079.87 1277.46 2082.16 1278.09 Q2084.45 1278.69 2086.7 1278.69 Q2089.71 1278.69 2091.33 1277.67 Q2092.95 1276.63 2092.95 1274.75 Q2092.95 1273.02 2091.77 1272.09 Q2090.61 1271.17 2086.65 1270.31 L2085.17 1269.96 Q2081.21 1269.13 2079.45 1267.42 Q2077.69 1265.68 2077.69 1262.67 Q2077.69 1259.01 2080.29 1257.02 Q2082.88 1255.03 2087.65 1255.03 Q2090.01 1255.03 2092.09 1255.38 Q2094.17 1255.73 2095.93 1256.42 Z" fill="#000000" fill-rule="nonzero" fill-opacity="1"></path><polyline clip-path="url(#clip070)" style="stroke:#ff0000; stroke-linecap:round; stroke-linejoin:round; stroke-width:8; stroke-opacity:1; fill:none" points="1550.02,1316.14 1692.09,1316.14 "></polyline>
<path clip-path="url(#clip070)" d="M1599.13 1294.22 L1599.13 1338.07 L1642.98 1338.07 L1642.98 1294.22 L1599.13 1294.22 Z" fill="#ff0000" fill-rule="evenodd" fill-opacity="1" stroke="#000000" stroke-opacity="1" stroke-width="4.55111"></path>
<path clip-path="url(#clip070)" d="M1741.33 1328.49 L1741.33 1319.21 L1733.69 1319.21 L1733.69 1315.37 L1745.96 1315.37 L1745.96 1330.2 Q1743.25 1332.13 1739.99 1333.12 Q1736.72 1334.09 1733.02 1334.09 Q1724.92 1334.09 1720.33 1329.37 Q1715.77 1324.63 1715.77 1316.18 Q1715.77 1307.71 1720.33 1302.98 Q1724.92 1298.24 1733.02 1298.24 Q1736.4 1298.24 1739.43 1299.07 Q1742.49 1299.9 1745.06 1301.52 L1745.06 1306.5 Q1742.46 1304.3 1739.55 1303.19 Q1736.63 1302.08 1733.41 1302.08 Q1727.07 1302.08 1723.88 1305.62 Q1720.7 1309.16 1720.7 1316.18 Q1720.7 1323.17 1723.88 1326.71 Q1727.07 1330.25 1733.41 1330.25 Q1735.89 1330.25 1737.83 1329.83 Q1739.78 1329.39 1741.33 1328.49 Z" fill="#000000" fill-rule="nonzero" fill-opacity="1"></path><path clip-path="url(#clip070)" d="M1766.1 1320.39 Q1760.94 1320.39 1758.94 1321.57 Q1756.95 1322.75 1756.95 1325.6 Q1756.95 1327.87 1758.44 1329.21 Q1759.94 1330.53 1762.51 1330.53 Q1766.05 1330.53 1768.18 1328.03 Q1770.33 1325.51 1770.33 1321.34 L1770.33 1320.39 L1766.1 1320.39 M1774.59 1318.63 L1774.59 1333.42 L1770.33 1333.42 L1770.33 1329.49 Q1768.88 1331.85 1766.7 1332.98 Q1764.52 1334.09 1761.38 1334.09 Q1757.39 1334.09 1755.03 1331.87 Q1752.69 1329.63 1752.69 1325.88 Q1752.69 1321.5 1755.61 1319.28 Q1758.55 1317.06 1764.36 1317.06 L1770.33 1317.06 L1770.33 1316.64 Q1770.33 1313.7 1768.39 1312.1 Q1766.47 1310.48 1762.97 1310.48 Q1760.75 1310.48 1758.64 1311.02 Q1756.54 1311.55 1754.59 1312.61 L1754.59 1308.68 Q1756.93 1307.77 1759.13 1307.33 Q1761.33 1306.87 1763.41 1306.87 Q1769.04 1306.87 1771.82 1309.79 Q1774.59 1312.71 1774.59 1318.63 Z" fill="#000000" fill-rule="nonzero" fill-opacity="1"></path><path clip-path="url(#clip070)" d="M1782.93 1323.19 L1782.93 1307.5 L1787.19 1307.5 L1787.19 1323.03 Q1787.19 1326.71 1788.62 1328.56 Q1790.06 1330.39 1792.93 1330.39 Q1796.38 1330.39 1798.37 1328.19 Q1800.38 1325.99 1800.38 1322.2 L1800.38 1307.5 L1804.64 1307.5 L1804.64 1333.42 L1800.38 1333.42 L1800.38 1329.44 Q1798.83 1331.8 1796.77 1332.96 Q1794.73 1334.09 1792.02 1334.09 Q1787.56 1334.09 1785.24 1331.32 Q1782.93 1328.54 1782.93 1323.19 M1793.64 1306.87 L1793.64 1306.87 Z" fill="#000000" fill-rule="nonzero" fill-opacity="1"></path><path clip-path="url(#clip070)" d="M1829.94 1308.26 L1829.94 1312.29 Q1828.13 1311.36 1826.19 1310.9 Q1824.25 1310.44 1822.16 1310.44 Q1818.99 1310.44 1817.39 1311.41 Q1815.82 1312.38 1815.82 1314.33 Q1815.82 1315.81 1816.95 1316.66 Q1818.09 1317.5 1821.51 1318.26 L1822.97 1318.58 Q1827.51 1319.56 1829.41 1321.34 Q1831.33 1323.1 1831.33 1326.27 Q1831.33 1329.88 1828.46 1331.99 Q1825.61 1334.09 1820.61 1334.09 Q1818.53 1334.09 1816.26 1333.68 Q1814.01 1333.28 1811.51 1332.47 L1811.51 1328.08 Q1813.88 1329.3 1816.17 1329.93 Q1818.46 1330.53 1820.7 1330.53 Q1823.71 1330.53 1825.33 1329.51 Q1826.95 1328.47 1826.95 1326.59 Q1826.95 1324.86 1825.77 1323.93 Q1824.62 1323.01 1820.66 1322.15 L1819.18 1321.8 Q1815.22 1320.97 1813.46 1319.26 Q1811.7 1317.52 1811.7 1314.51 Q1811.7 1310.85 1814.29 1308.86 Q1816.88 1306.87 1821.65 1306.87 Q1824.01 1306.87 1826.1 1307.22 Q1828.18 1307.57 1829.94 1308.26 Z" fill="#000000" fill-rule="nonzero" fill-opacity="1"></path><path clip-path="url(#clip070)" d="M1854.64 1308.26 L1854.64 1312.29 Q1852.83 1311.36 1850.89 1310.9 Q1848.94 1310.44 1846.86 1310.44 Q1843.69 1310.44 1842.09 1311.41 Q1840.52 1312.38 1840.52 1314.33 Q1840.52 1315.81 1841.65 1316.66 Q1842.79 1317.5 1846.21 1318.26 L1847.67 1318.58 Q1852.21 1319.56 1854.11 1321.34 Q1856.03 1323.1 1856.03 1326.27 Q1856.03 1329.88 1853.16 1331.99 Q1850.31 1334.09 1845.31 1334.09 Q1843.23 1334.09 1840.96 1333.68 Q1838.71 1333.28 1836.21 1332.47 L1836.21 1328.08 Q1838.57 1329.3 1840.87 1329.93 Q1843.16 1330.53 1845.4 1330.53 Q1848.41 1330.53 1850.03 1329.51 Q1851.65 1328.47 1851.65 1326.59 Q1851.65 1324.86 1850.47 1323.93 Q1849.31 1323.01 1845.36 1322.15 L1843.88 1321.8 Q1839.92 1320.97 1838.16 1319.26 Q1836.4 1317.52 1836.4 1314.51 Q1836.4 1310.85 1838.99 1308.86 Q1841.58 1306.87 1846.35 1306.87 Q1848.71 1306.87 1850.8 1307.22 Q1852.88 1307.57 1854.64 1308.26 Z" fill="#000000" fill-rule="nonzero" fill-opacity="1"></path><path clip-path="url(#clip070)" d="M1860.66 1318.54 L1873.13 1318.54 L1873.13 1322.33 L1860.66 1322.33 L1860.66 1318.54 Z" fill="#000000" fill-rule="nonzero" fill-opacity="1"></path><path clip-path="url(#clip070)" d="M1900.82 1300 L1900.82 1304.56 Q1898.16 1303.28 1895.8 1302.66 Q1893.43 1302.03 1891.24 1302.03 Q1887.42 1302.03 1885.33 1303.52 Q1883.27 1305 1883.27 1307.73 Q1883.27 1310.02 1884.64 1311.2 Q1886.03 1312.36 1889.87 1313.08 L1892.69 1313.65 Q1897.93 1314.65 1900.4 1317.17 Q1902.9 1319.67 1902.9 1323.89 Q1902.9 1328.91 1899.52 1331.5 Q1896.17 1334.09 1889.66 1334.09 Q1887.21 1334.09 1884.43 1333.54 Q1881.68 1332.98 1878.71 1331.89 L1878.71 1327.08 Q1881.56 1328.68 1884.29 1329.49 Q1887.02 1330.3 1889.66 1330.3 Q1893.67 1330.3 1895.84 1328.72 Q1898.02 1327.15 1898.02 1324.23 Q1898.02 1321.69 1896.44 1320.25 Q1894.89 1318.82 1891.33 1318.1 L1888.48 1317.54 Q1883.25 1316.5 1880.91 1314.28 Q1878.57 1312.06 1878.57 1308.1 Q1878.57 1303.52 1881.79 1300.88 Q1885.03 1298.24 1890.7 1298.24 Q1893.13 1298.24 1895.66 1298.68 Q1898.18 1299.12 1900.82 1300 Z" fill="#000000" fill-rule="nonzero" fill-opacity="1"></path><path clip-path="url(#clip070)" d="M1932.18 1319.39 L1932.18 1321.48 L1912.6 1321.48 Q1912.88 1325.88 1915.24 1328.19 Q1917.62 1330.48 1921.86 1330.48 Q1924.31 1330.48 1926.61 1329.88 Q1928.92 1329.28 1931.19 1328.08 L1931.19 1332.1 Q1928.9 1333.08 1926.49 1333.58 Q1924.08 1334.09 1921.61 1334.09 Q1915.4 1334.09 1911.77 1330.48 Q1908.16 1326.87 1908.16 1320.71 Q1908.16 1314.35 1911.58 1310.62 Q1915.03 1306.87 1920.87 1306.87 Q1926.1 1306.87 1929.13 1310.25 Q1932.18 1313.61 1932.18 1319.39 M1927.93 1318.14 Q1927.88 1314.65 1925.96 1312.57 Q1924.06 1310.48 1920.91 1310.48 Q1917.35 1310.48 1915.19 1312.5 Q1913.06 1314.51 1912.74 1318.17 L1927.93 1318.14 Z" fill="#000000" fill-rule="nonzero" fill-opacity="1"></path><path clip-path="url(#clip070)" d="M1939.18 1307.5 L1943.43 1307.5 L1943.43 1333.42 L1939.18 1333.42 L1939.18 1307.5 M1939.18 1297.4 L1943.43 1297.4 L1943.43 1302.8 L1939.18 1302.8 L1939.18 1297.4 Z" fill="#000000" fill-rule="nonzero" fill-opacity="1"></path><path clip-path="url(#clip070)" d="M1969.41 1311.43 L1969.41 1297.4 L1973.67 1297.4 L1973.67 1333.42 L1969.41 1333.42 L1969.41 1329.53 Q1968.06 1331.85 1966 1332.98 Q1963.97 1334.09 1961.1 1334.09 Q1956.4 1334.09 1953.43 1330.34 Q1950.49 1326.59 1950.49 1320.48 Q1950.49 1314.37 1953.43 1310.62 Q1956.4 1306.87 1961.1 1306.87 Q1963.97 1306.87 1966 1308.01 Q1968.06 1309.12 1969.41 1311.43 M1954.89 1320.48 Q1954.89 1325.18 1956.81 1327.87 Q1958.76 1330.53 1962.14 1330.53 Q1965.52 1330.53 1967.46 1327.87 Q1969.41 1325.18 1969.41 1320.48 Q1969.41 1315.78 1967.46 1313.12 Q1965.52 1310.44 1962.14 1310.44 Q1958.76 1310.44 1956.81 1313.12 Q1954.89 1315.78 1954.89 1320.48 Z" fill="#000000" fill-rule="nonzero" fill-opacity="1"></path><path clip-path="url(#clip070)" d="M2004.61 1319.39 L2004.61 1321.48 L1985.03 1321.48 Q1985.31 1325.88 1987.67 1328.19 Q1990.05 1330.48 1994.29 1330.48 Q1996.74 1330.48 1999.04 1329.88 Q2001.35 1329.28 2003.62 1328.08 L2003.62 1332.1 Q2001.33 1333.08 1998.92 1333.58 Q1996.51 1334.09 1994.04 1334.09 Q1987.83 1334.09 1984.2 1330.48 Q1980.59 1326.87 1980.59 1320.71 Q1980.59 1314.35 1984.01 1310.62 Q1987.46 1306.87 1993.3 1306.87 Q1998.53 1306.87 2001.56 1310.25 Q2004.61 1313.61 2004.61 1319.39 M2000.36 1318.14 Q2000.31 1314.65 1998.39 1312.57 Q1996.49 1310.48 1993.34 1310.48 Q1989.78 1310.48 1987.62 1312.5 Q1985.49 1314.51 1985.17 1318.17 L2000.36 1318.14 Z" fill="#000000" fill-rule="nonzero" fill-opacity="1"></path><path clip-path="url(#clip070)" d="M2011.61 1297.4 L2015.86 1297.4 L2015.86 1333.42 L2011.61 1333.42 L2011.61 1297.4 Z" fill="#000000" fill-rule="nonzero" fill-opacity="1"></path><path clip-path="url(#clip070)" d="M2039.85 1307.5 L2044.11 1307.5 L2044.11 1333.42 L2039.85 1333.42 L2039.85 1307.5 M2039.85 1297.4 L2044.11 1297.4 L2044.11 1302.8 L2039.85 1302.8 L2039.85 1297.4 Z" fill="#000000" fill-rule="nonzero" fill-opacity="1"></path><path clip-path="url(#clip070)" d="M2057.23 1300.14 L2057.23 1307.5 L2066 1307.5 L2066 1310.81 L2057.23 1310.81 L2057.23 1324.88 Q2057.23 1328.05 2058.09 1328.95 Q2058.97 1329.86 2061.63 1329.86 L2066 1329.86 L2066 1333.42 L2061.63 1333.42 Q2056.7 1333.42 2054.82 1331.59 Q2052.95 1329.74 2052.95 1324.88 L2052.95 1310.81 L2049.82 1310.81 L2049.82 1307.5 L2052.95 1307.5 L2052.95 1300.14 L2057.23 1300.14 Z" fill="#000000" fill-rule="nonzero" fill-opacity="1"></path><path clip-path="url(#clip070)" d="M2093.78 1319.39 L2093.78 1321.48 L2074.2 1321.48 Q2074.48 1325.88 2076.84 1328.19 Q2079.22 1330.48 2083.46 1330.48 Q2085.91 1330.48 2088.2 1329.88 Q2090.52 1329.28 2092.79 1328.08 L2092.79 1332.1 Q2090.49 1333.08 2088.09 1333.58 Q2085.68 1334.09 2083.2 1334.09 Q2077 1334.09 2073.36 1330.48 Q2069.75 1326.87 2069.75 1320.71 Q2069.75 1314.35 2073.18 1310.62 Q2076.63 1306.87 2082.46 1306.87 Q2087.69 1306.87 2090.73 1310.25 Q2093.78 1313.61 2093.78 1319.39 M2089.52 1318.14 Q2089.48 1314.65 2087.55 1312.57 Q2085.66 1310.48 2082.51 1310.48 Q2078.94 1310.48 2076.79 1312.5 Q2074.66 1314.51 2074.34 1318.17 L2089.52 1318.14 Z" fill="#000000" fill-rule="nonzero" fill-opacity="1"></path><path clip-path="url(#clip070)" d="M2115.79 1311.48 Q2115.08 1311.06 2114.22 1310.88 Q2113.39 1310.67 2112.37 1310.67 Q2108.76 1310.67 2106.81 1313.03 Q2104.89 1315.37 2104.89 1319.77 L2104.89 1333.42 L2100.61 1333.42 L2100.61 1307.5 L2104.89 1307.5 L2104.89 1311.52 Q2106.23 1309.16 2108.39 1308.03 Q2110.54 1306.87 2113.62 1306.87 Q2114.06 1306.87 2114.59 1306.94 Q2115.12 1306.99 2115.77 1307.1 L2115.79 1311.48 Z" fill="#000000" fill-rule="nonzero" fill-opacity="1"></path><path clip-path="url(#clip070)" d="M2132.04 1320.39 Q2126.88 1320.39 2124.89 1321.57 Q2122.9 1322.75 2122.9 1325.6 Q2122.9 1327.87 2124.38 1329.21 Q2125.89 1330.53 2128.46 1330.53 Q2132 1330.53 2134.13 1328.03 Q2136.28 1325.51 2136.28 1321.34 L2136.28 1320.39 L2132.04 1320.39 M2140.54 1318.63 L2140.54 1333.42 L2136.28 1333.42 L2136.28 1329.49 Q2134.82 1331.85 2132.65 1332.98 Q2130.47 1334.09 2127.32 1334.09 Q2123.34 1334.09 2120.98 1331.87 Q2118.64 1329.63 2118.64 1325.88 Q2118.64 1321.5 2121.56 1319.28 Q2124.5 1317.06 2130.31 1317.06 L2136.28 1317.06 L2136.28 1316.64 Q2136.28 1313.7 2134.34 1312.1 Q2132.42 1310.48 2128.92 1310.48 Q2126.7 1310.48 2124.59 1311.02 Q2122.48 1311.55 2120.54 1312.61 L2120.54 1308.68 Q2122.88 1307.77 2125.08 1307.33 Q2127.28 1306.87 2129.36 1306.87 Q2134.98 1306.87 2137.76 1309.79 Q2140.54 1312.71 2140.54 1318.63 Z" fill="#000000" fill-rule="nonzero" fill-opacity="1"></path><path clip-path="url(#clip070)" d="M2153.53 1300.14 L2153.53 1307.5 L2162.3 1307.5 L2162.3 1310.81 L2153.53 1310.81 L2153.53 1324.88 Q2153.53 1328.05 2154.38 1328.95 Q2155.26 1329.86 2157.92 1329.86 L2162.3 1329.86 L2162.3 1333.42 L2157.92 1333.42 Q2152.99 1333.42 2151.12 1331.59 Q2149.24 1329.74 2149.24 1324.88 L2149.24 1310.81 L2146.12 1310.81 L2146.12 1307.5 L2149.24 1307.5 L2149.24 1300.14 L2153.53 1300.14 Z" fill="#000000" fill-rule="nonzero" fill-opacity="1"></path><path clip-path="url(#clip070)" d="M2167.9 1307.5 L2172.16 1307.5 L2172.16 1333.42 L2167.9 1333.42 L2167.9 1307.5 M2167.9 1297.4 L2172.16 1297.4 L2172.16 1302.8 L2167.9 1302.8 L2167.9 1297.4 Z" fill="#000000" fill-rule="nonzero" fill-opacity="1"></path><path clip-path="url(#clip070)" d="M2191.12 1310.48 Q2187.69 1310.48 2185.7 1313.17 Q2183.71 1315.83 2183.71 1320.48 Q2183.71 1325.14 2185.68 1327.82 Q2187.67 1330.48 2191.12 1330.48 Q2194.52 1330.48 2196.51 1327.8 Q2198.5 1325.11 2198.5 1320.48 Q2198.5 1315.88 2196.51 1313.19 Q2194.52 1310.48 2191.12 1310.48 M2191.12 1306.87 Q2196.67 1306.87 2199.85 1310.48 Q2203.02 1314.09 2203.02 1320.48 Q2203.02 1326.85 2199.85 1330.48 Q2196.67 1334.09 2191.12 1334.09 Q2185.54 1334.09 2182.37 1330.48 Q2179.22 1326.85 2179.22 1320.48 Q2179.22 1314.09 2182.37 1310.48 Q2185.54 1306.87 2191.12 1306.87 Z" fill="#000000" fill-rule="nonzero" fill-opacity="1"></path><path clip-path="url(#clip070)" d="M2231.63 1317.77 L2231.63 1333.42 L2227.37 1333.42 L2227.37 1317.91 Q2227.37 1314.23 2225.93 1312.4 Q2224.5 1310.58 2221.63 1310.58 Q2218.18 1310.58 2216.19 1312.77 Q2214.2 1314.97 2214.2 1318.77 L2214.2 1333.42 L2209.91 1333.42 L2209.91 1307.5 L2214.2 1307.5 L2214.2 1311.52 Q2215.72 1309.19 2217.79 1308.03 Q2219.87 1306.87 2222.58 1306.87 Q2227.04 1306.87 2229.34 1309.65 Q2231.63 1312.4 2231.63 1317.77 Z" fill="#000000" fill-rule="nonzero" fill-opacity="1"></path><path clip-path="url(#clip070)" d="M2256.65 1308.26 L2256.65 1312.29 Q2254.85 1311.36 2252.9 1310.9 Q2250.96 1310.44 2248.87 1310.44 Q2245.7 1310.44 2244.1 1311.41 Q2242.53 1312.38 2242.53 1314.33 Q2242.53 1315.81 2243.66 1316.66 Q2244.8 1317.5 2248.22 1318.26 L2249.68 1318.58 Q2254.22 1319.56 2256.12 1321.34 Q2258.04 1323.1 2258.04 1326.27 Q2258.04 1329.88 2255.17 1331.99 Q2252.32 1334.09 2247.32 1334.09 Q2245.24 1334.09 2242.97 1333.68 Q2240.72 1333.28 2238.22 1332.47 L2238.22 1328.08 Q2240.59 1329.3 2242.88 1329.93 Q2245.17 1330.53 2247.41 1330.53 Q2250.42 1330.53 2252.04 1329.51 Q2253.66 1328.47 2253.66 1326.59 Q2253.66 1324.86 2252.48 1323.93 Q2251.33 1323.01 2247.37 1322.15 L2245.89 1321.8 Q2241.93 1320.97 2240.17 1319.26 Q2238.41 1317.52 2238.41 1314.51 Q2238.41 1310.85 2241 1308.86 Q2243.6 1306.87 2248.36 1306.87 Q2250.72 1306.87 2252.81 1307.22 Q2254.89 1307.57 2256.65 1308.26 Z" fill="#000000" fill-rule="nonzero" fill-opacity="1"></path></svg>